<svg width="48" height="48" viewBox="0 0 48 48" fill="none" xmlns="http://www.w3.org/2000/svg">
<path fill-rule="evenodd" clip-rule="evenodd" d="M24 0C37.2548 0 48 10.7452 48 24C48 37.2548 37.2548 48 24 48C10.7452 48 0 37.2548 0 24C0 10.7452 10.7452 0 24 0ZM39.4865 11.3419L11.3419 39.4865C19.1979 45.9234 30.809 45.4753 38.1422 38.1422C45.4753 30.809 45.9234 19.1979 39.4865 11.3419ZM8.51347 36.6581L36.6581 8.51349C28.8021 2.07656 17.1911 2.52466 9.85786 9.85785C2.52467 17.191 2.07654 28.8021 8.51347 36.6581Z" fill="#F1373A"/>
</svg>
