<svg width="32" height="32" viewBox="0 0 32 32" fill="none" xmlns="http://www.w3.org/2000/svg">
<circle cx="16" cy="16" r="15.4" fill="white" stroke="#333333" stroke-width="1.2"/>
<g clip-path="url(#clip0)">
<path d="M19.8028 6H13.1504V13.6993H19.8028V6Z" fill="#333333"/>
<path d="M18.2742 13.084H14.6807V19.8701H18.2742V13.084Z" fill="#333333"/>
<path d="M20.2933 14.731H12.6608C12.297 14.731 12 14.4415 12 14.0703V10.6549C12 10.2911 12.297 9.99414 12.6608 9.99414H20.2933C20.6571 9.99414 20.9541 10.2911 20.9541 10.6549V14.0703C20.9541 14.4415 20.6571 14.731 20.2933 14.731Z" fill="#333333"/>
<path d="M18.957 20.07H13.9973C13.4479 20.07 13.0024 19.6245 13.0024 19.0751V16.6844C13.0024 16.1349 13.4479 15.6895 13.9973 15.6895H18.9644C19.5138 15.6895 19.9593 16.1349 19.9593 16.6844V19.0751C19.9519 19.6245 19.5064 20.07 18.957 20.07Z" fill="#333333"/>
<path d="M18.3405 21.0432H14.6876L14.1753 19.2539H18.7786L18.3405 21.0432Z" fill="#333333"/>
<path d="M15.6382 20.4863V26.0622L16.4772 26.9309L17.3087 26.0622V20.4863H15.6382Z" fill="#333333"/>
</g>
<defs>
<clipPath id="clip0">
<rect x="12" y="6" width="8.95409" height="20.93" fill="white"/>
</clipPath>
</defs>
</svg>
