<svg width="20" height="24" viewBox="0 0 20 24" fill="none" xmlns="http://www.w3.org/2000/svg">
<path d="M16.9839 2.98828V5.48043L13.2529 10.0952C13.0881 10.299 12.8431 10.4163 12.5808 10.4163C12.3185 10.4163 12.0735 10.2993 11.9084 10.0952L8.17773 5.48043V2.98828H16.9839Z" fill="#858585"/>
<path d="M19.9718 6.25428V0.629013C19.9718 0.281483 19.6903 0 19.3428 0H5.819C5.47147 0 5.18999 0.281483 5.18999 0.629013V6.25428C5.18999 6.39895 5.23968 6.53922 5.3312 6.65119L9.17888 11.3807L8.0542 12.7473C7.37204 12.4674 6.62665 12.3104 5.84479 12.3104C2.62173 12.3104 0 14.9325 0 18.1552C0 21.378 2.62173 24 5.84448 24C7.26447 24 8.56716 23.4899 9.58113 22.6445H19.3428C19.6903 22.6445 19.9718 22.363 19.9718 22.0155V16.4525C19.9718 16.3065 19.9212 16.1653 19.8284 16.0527L15.9832 11.3807L19.8309 6.65119C19.9218 6.53922 19.9718 6.39895 19.9718 6.25428ZM1.57253 18.1552C1.57253 15.7996 3.48914 13.883 5.84448 13.883C8.19982 13.883 10.1164 15.7996 10.1164 18.1552C10.1164 20.5109 8.19982 22.4275 5.84448 22.4275C3.48914 22.4275 1.57253 20.5109 1.57253 18.1552ZM18.3993 5.91901L14.1135 11.1867C14.0191 11.3027 14.0194 11.4694 14.1147 11.5852L18.3993 16.7912V21.0723H10.9017C11.3996 20.2127 11.6893 19.2182 11.6893 18.1555C11.6893 16.2845 10.802 14.6205 9.43017 13.5499L11.047 11.5855C11.142 11.4701 11.1427 11.3034 11.0483 11.187L6.76252 5.91901V1.57253H18.3993V5.91901Z" fill="#858585"/>
<path d="M7.49523 19.6637H5.18959C4.75525 19.6637 4.40332 19.3118 4.40332 18.8774V16.257C4.40332 15.8226 4.75525 15.4707 5.18959 15.4707C5.62392 15.4707 5.97585 15.8226 5.97585 16.257V18.0912H7.49523C7.92957 18.0912 8.2815 18.4431 8.2815 18.8774C8.2815 19.3118 7.92957 19.6637 7.49523 19.6637Z" fill="#858585"/>
</svg>
