<svg width="16" height="16" viewBox="0 0 16 16" fill="none" xmlns="http://www.w3.org/2000/svg">
<circle cx="8" cy="8" r="7.4" fill="white" stroke="#333333" stroke-width="1.2"/>
<path d="M4 4.32935H6.81912V5.65876H4V4.32935Z" fill="#333333"/>
<path d="M12.4698 4.32935V5.65876H9.65068H9.64648V4.32935H9.65068H12.4698Z" fill="#333333"/>
<path d="M7.9834 8.4939H8.48188V9.32426H7.9834V8.4939Z" fill="#333333"/>
<path d="M8.81322 10.6536C8.35245 10.6536 7.98382 10.2804 7.98382 9.82324H8.4823C8.4823 10.0078 8.6331 10.1545 8.81741 10.1545H10.9705C11.4313 10.1545 11.7999 10.5278 11.7999 10.9849C11.7999 11.442 11.4271 11.8153 10.9705 11.8153H5.66318C5.47887 11.8153 5.33226 11.962 5.33226 12.1466C5.33226 12.3311 5.47887 12.4779 5.66318 12.4779H7.98382C8.4446 12.4779 8.81322 12.8511 8.81322 13.3082V13.476H8.31474V13.3082C8.31474 13.1237 8.16394 12.9769 7.97963 12.9769H5.65899C5.19822 12.9769 4.82959 12.6037 4.82959 12.1466C4.82959 11.6853 5.20241 11.3162 5.65899 11.3162H10.9663C11.1506 11.3162 11.2972 11.1652 11.2972 10.9849C11.2972 10.8004 11.1464 10.6536 10.9663 10.6536H8.81322Z" fill="#333333"/>
<path d="M8.3146 9.49199H8.14705C8.0549 9.49199 7.97949 9.4165 7.97949 9.32424C7.97949 9.23198 8.0549 9.15649 8.14705 9.15649H8.3146C8.40676 9.15649 8.48215 9.23198 8.48215 9.32424C8.48215 9.4165 8.40676 9.49199 8.3146 9.49199Z" fill="#333333"/>
<path d="M9.64661 3.16775C9.64661 3.07549 9.57122 3 9.47906 3H6.98249C6.89034 3 6.81494 3.07549 6.81494 3.16775C6.81494 3.17194 6.81494 3.17194 6.81494 3.17614V4.33361V5.66302V7.32793L7.81608 8.49379H7.97945H8.47792H8.64547L9.64661 7.32793V5.66302V4.33361V3.16775Z" fill="#333333"/>
</svg>
