<svg width="10" height="10" viewBox="0 0 10 10" fill="none" xmlns="http://www.w3.org/2000/svg">
<path fill-rule="evenodd" clip-rule="evenodd" d="M9.81694 0.183218C10.061 0.427292 10.061 0.823014 9.81694 1.06709L1.06695 9.81685C0.822874 10.0609 0.427141 10.0609 0.183061 9.81685C-0.0610198 9.57277 -0.0610196 9.17705 0.183061 8.93298L8.93305 0.183218C9.17713 -0.0608564 9.57286 -0.0608564 9.81694 0.183218Z" fill="#6E6E82"/>
<path fill-rule="evenodd" clip-rule="evenodd" d="M9.81694 9.81668C9.57286 10.0608 9.17713 10.0608 8.93305 9.81668L0.18306 1.06693C-0.06102 0.822852 -0.0610202 0.42713 0.18306 0.183055C0.427141 -0.0610186 0.822874 -0.0610184 1.06695 0.183055L9.81694 8.93281C10.061 9.17689 10.061 9.57261 9.81694 9.81668Z" fill="#6E6E82"/>
</svg>
