<svg width="48" height="48" viewBox="0 0 48 48" fill="none" xmlns="http://www.w3.org/2000/svg">
<circle cx="24" cy="24" r="24" fill="#EDCD13"/>
<path d="M18.99 35.1875C18.9691 33.3946 18.9686 31.6007 18.9676 29.8079C18.9665 28.015 18.9707 26.2211 18.99 24.4282C18.99 24.6678 18.9936 23.5331 19.0118 22.7949C16.7931 22.7949 14.5744 22.7949 12.3556 22.7949C11.7924 22.7949 11.3569 22.9977 11.1105 23.5263C11.0709 23.6084 11.0365 23.6947 11 23.781V35.0986C11.1042 35.2785 11.1844 35.4781 11.3157 35.634C11.5319 35.8893 11.8336 35.9979 12.1675 35.9979C14.4438 35.9979 16.7205 36.0041 18.9973 35.9953C18.9931 35.6065 18.991 35.2702 18.99 35.1875Z" fill="white"/>
<path d="M37.6014 22.6238C37.4285 21.9481 37.0533 21.4178 36.3818 21.1818C36.032 21.0669 35.6658 21.0095 35.2976 21.0119C33.3428 20.9968 31.3875 21.0061 29.4328 21.0067C29.1816 21.0067 29.1723 20.9911 29.2124 20.7493C29.3338 20.0377 29.4369 19.3229 29.5771 18.6144C29.7667 17.6554 29.7907 16.7036 29.4703 15.7715C29.1816 14.9336 28.8545 14.1081 28.5413 13.2795C28.3658 12.8116 28.0688 12.4691 27.5947 12.2705C26.6981 11.8942 25.8139 11.9014 24.9553 12.3495C24.4062 12.6359 24.0848 13.0929 24.1025 13.7442C24.1275 14.6612 24.1342 15.5792 24.1718 16.4956C24.189 16.7911 24.1181 17.085 23.968 17.3403C23.259 18.5552 22.5728 19.7835 21.832 20.9791C21.449 21.5951 20.9687 22.1513 20.5201 22.7252C20.5041 22.7456 20.4868 22.7654 20.468 22.7845C20.468 23.6117 20.468 24.4389 20.468 25.2661C20.468 28.3972 20.459 31.5284 20.4409 34.6598C21.0479 35.0424 21.6981 35.2166 22.4316 35.2124C25.7696 35.1926 29.1077 35.2036 32.4451 35.2036C33.0255 35.2036 33.5991 35.1682 34.1587 34.9852C35.27 34.6214 35.9681 33.7626 36.0562 32.6018C36.09 32.1605 36.0697 31.7233 35.9103 31.2997C35.8879 31.2404 35.9254 31.1354 35.9691 31.0772C36.4083 30.4924 36.6699 29.8452 36.623 29.1065C36.6074 28.8518 36.5271 28.5982 36.4485 28.3528C36.4068 28.2208 36.4073 28.1329 36.4969 28.0206C36.9137 27.4961 37.1685 26.9004 37.1482 26.2272C37.1388 25.9096 37.021 25.5957 36.9611 25.2791C36.9465 25.2032 36.9345 25.0925 36.9757 25.0467C37.3352 24.647 37.5353 24.176 37.6374 23.6562C37.6459 23.6366 37.6583 23.6189 37.6738 23.6042V22.8713C37.6509 22.7886 37.6238 22.707 37.6014 22.6238Z" fill="white"/>
</svg>
