<svg width="95" height="16" viewBox="0 0 95 16" fill="none" xmlns="http://www.w3.org/2000/svg">
<mask id="path-1-inside-1" fill="white">
<path fill-rule="evenodd" clip-rule="evenodd" d="M8.37299 0.000334141C8.29514 0.00360093 8.22015 0.0306375 8.15813 0.0778106C8.0961 0.124984 8.05001 0.190027 8.02606 0.264187L6.22985 5.83105L0.38207 5.8195C0.301411 5.81935 0.222782 5.84478 0.157485 5.89214C0.0921879 5.9395 0.0435851 6.00635 0.0186624 6.08307C-0.00626039 6.15979 -0.00621977 6.24244 0.0187785 6.31914C0.0437767 6.39584 0.0924453 6.46263 0.157789 6.50993L4.89623 9.93886L3.07685 15.5C3.0518 15.5766 3.05169 15.6593 3.07654 15.736C3.1014 15.8128 3.14993 15.8796 3.21518 15.927C3.28043 15.9745 3.35902 16 3.43967 15.9999C3.52032 15.9998 3.59887 15.9742 3.66404 15.9267L8.38902 12.4785L13.116 15.9267C13.1811 15.9743 13.2597 15.9999 13.3403 15.9999C13.421 16 13.4996 15.9745 13.5648 15.927C13.6301 15.8796 13.6786 15.8128 13.7034 15.736C13.7283 15.6593 13.7282 15.5766 13.7031 15.5L11.8837 9.93886L16.6222 6.50993C16.6875 6.46263 16.7362 6.39584 16.7612 6.31914C16.7862 6.24244 16.7862 6.15979 16.7613 6.08307C16.7364 6.00635 16.6878 5.9395 16.6225 5.89214C16.5572 5.84478 16.4785 5.81935 16.3979 5.8195L10.55 5.83105L8.75182 0.264059C8.72617 0.184734 8.67524 0.116001 8.60682 0.0683719C8.53841 0.020743 8.45627 -0.00315381 8.37299 0.000334141Z"/>
</mask>
<path fill-rule="evenodd" clip-rule="evenodd" d="M8.37299 0.000334141C8.29514 0.00360093 8.22015 0.0306375 8.15813 0.0778106C8.0961 0.124984 8.05001 0.190027 8.02606 0.264187L6.22985 5.83105L0.38207 5.8195C0.301411 5.81935 0.222782 5.84478 0.157485 5.89214C0.0921879 5.9395 0.0435851 6.00635 0.0186624 6.08307C-0.00626039 6.15979 -0.00621977 6.24244 0.0187785 6.31914C0.0437767 6.39584 0.0924453 6.46263 0.157789 6.50993L4.89623 9.93886L3.07685 15.5C3.0518 15.5766 3.05169 15.6593 3.07654 15.736C3.1014 15.8128 3.14993 15.8796 3.21518 15.927C3.28043 15.9745 3.35902 16 3.43967 15.9999C3.52032 15.9998 3.59887 15.9742 3.66404 15.9267L8.38902 12.4785L13.116 15.9267C13.1811 15.9743 13.2597 15.9999 13.3403 15.9999C13.421 16 13.4996 15.9745 13.5648 15.927C13.6301 15.8796 13.6786 15.8128 13.7034 15.736C13.7283 15.6593 13.7282 15.5766 13.7031 15.5L11.8837 9.93886L16.6222 6.50993C16.6875 6.46263 16.7362 6.39584 16.7612 6.31914C16.7862 6.24244 16.7862 6.15979 16.7613 6.08307C16.7364 6.00635 16.6878 5.9395 16.6225 5.89214C16.5572 5.84478 16.4785 5.81935 16.3979 5.8195L10.55 5.83105L8.75182 0.264059C8.72617 0.184734 8.67524 0.116001 8.60682 0.0683719C8.53841 0.020743 8.45627 -0.00315381 8.37299 0.000334141Z" fill="white"/>
<path d="M8.02606 0.264187L7.07446 -0.0431426L7.07437 -0.0428851L8.02606 0.264187ZM6.22985 5.83105L6.22787 6.83105L6.95749 6.83249L7.18154 6.13812L6.22985 5.83105ZM0.38207 5.8195L0.384046 4.8195H0.383887L0.38207 5.8195ZM0.157789 6.50993L-0.42853 7.32001L-0.428457 7.32006L0.157789 6.50993ZM4.89623 9.93886L5.84666 10.2498L6.07351 9.55643L5.48248 9.12873L4.89623 9.93886ZM3.07685 15.5L2.12643 15.189L2.12633 15.1893L3.07685 15.5ZM3.66404 15.9267L4.25323 16.7347L4.25354 16.7344L3.66404 15.9267ZM8.38902 12.4785L8.97837 11.6706L8.38891 11.2406L7.79953 11.6707L8.38902 12.4785ZM13.116 15.9267L12.5266 16.7346L12.5269 16.7348L13.116 15.9267ZM13.7031 15.5L14.6536 15.1893L14.6535 15.189L13.7031 15.5ZM11.8837 9.93886L11.2975 9.12873L10.7064 9.55643L10.9333 10.2498L11.8837 9.93886ZM16.6222 6.50993L17.2084 7.32006L17.2085 7.32001L16.6222 6.50993ZM16.3979 5.8195L16.3961 4.8195H16.3959L16.3979 5.8195ZM10.55 5.83105L9.59838 6.13842L9.82257 6.83249L10.552 6.83105L10.55 5.83105ZM8.75182 0.264059L9.70341 -0.043308L9.70331 -0.0436039L8.75182 0.264059ZM8.33106 -0.998787C8.04906 -0.986954 7.77744 -0.889019 7.55277 -0.718142L8.76348 0.873763C8.66286 0.950294 8.54121 0.994156 8.41491 0.999455L8.33106 -0.998787ZM7.55277 -0.718142C7.32811 -0.547279 7.16119 -0.311708 7.07446 -0.0431426L8.97766 0.571517C8.93883 0.691762 8.86409 0.797247 8.76348 0.873763L7.55277 -0.718142ZM7.07437 -0.0428851L5.27816 5.52398L7.18154 6.13812L8.97775 0.571259L7.07437 -0.0428851ZM6.23183 4.83105L0.384046 4.8195L0.380094 6.81949L6.22787 6.83105L6.23183 4.83105ZM0.383887 4.8195C0.0916936 4.81897 -0.193124 4.91111 -0.429631 5.08264L0.744601 6.70164C0.638688 6.77846 0.511128 6.81973 0.380252 6.81949L0.383887 4.8195ZM-0.429631 5.08264C-0.666145 5.25418 -0.842162 5.49628 -0.932416 5.77412L0.969741 6.39202C0.929332 6.51641 0.850521 6.62482 0.744601 6.70164L-0.429631 5.08264ZM-0.932416 5.77412C-1.02267 6.05196 -1.02252 6.35127 -0.931996 6.62903L0.969553 6.00926C1.01008 6.13362 1.01015 6.26762 0.969741 6.39202L-0.932416 5.77412ZM-0.931996 6.62903C-0.841463 6.90679 -0.6652 7.14871 -0.42853 7.32001L0.744108 5.69985C0.850091 5.77656 0.929017 5.88489 0.969553 6.00926L-0.931996 6.62903ZM-0.428457 7.32006L4.30999 10.749L5.48248 9.12873L0.744035 5.69979L-0.428457 7.32006ZM3.94581 9.62792L2.12643 15.189L4.02728 15.8109L5.84666 10.2498L3.94581 9.62792ZM2.12633 15.1893C2.03559 15.467 2.03519 15.7663 2.1252 16.0441L4.02789 15.4279C4.06819 15.5523 4.06801 15.6863 4.02738 15.8106L2.12633 15.1893ZM2.1252 16.0441C2.2152 16.322 2.39098 16.5643 2.62731 16.736L3.80305 15.1181C3.90889 15.195 3.98759 15.3035 4.02789 15.4279L2.1252 16.0441ZM2.62731 16.736C2.86363 16.9077 3.14832 17.0001 3.44049 16.9999L3.43885 14.9999C3.56972 14.9998 3.69722 15.0412 3.80305 15.1181L2.62731 16.736ZM3.44049 16.9999C3.7327 16.9997 4.01723 16.9068 4.25323 16.7347L3.07485 15.1187C3.18052 15.0416 3.30794 15 3.43885 14.9999L3.44049 16.9999ZM4.25354 16.7344L8.97852 13.2863L7.79953 11.6707L3.07455 15.1189L4.25354 16.7344ZM7.79968 13.2864L12.5266 16.7346L13.7053 15.1189L8.97837 11.6706L7.79968 13.2864ZM12.5269 16.7348C12.763 16.9069 13.0475 16.9997 13.3397 16.9999L13.341 14.9999C13.4718 15 13.5993 15.0416 13.705 15.1187L12.5269 16.7348ZM13.3397 16.9999C13.6318 17.0001 13.9165 16.9077 14.1528 16.7359L12.9769 15.1182C13.0827 15.0412 13.2102 14.9998 13.341 14.9999L13.3397 16.9999ZM14.1528 16.7359C14.3891 16.5642 14.5648 16.322 14.6548 16.0441L12.7521 15.428C12.7924 15.3035 12.8711 15.1951 12.9769 15.1182L14.1528 16.7359ZM14.6548 16.0441C14.7448 15.7662 14.7444 15.4669 14.6536 15.1893L12.7526 15.8107C12.712 15.6864 12.7118 15.5524 12.7521 15.428L14.6548 16.0441ZM14.6535 15.189L12.8342 9.62792L10.9333 10.2498L12.7527 15.8109L14.6535 15.189ZM12.47 10.749L17.2084 7.32006L16.0359 5.6998L11.2975 9.12873L12.47 10.749ZM17.2085 7.32001C17.4452 7.14871 17.6214 6.90679 17.712 6.62903L15.8104 6.00926C15.8509 5.88489 15.9299 5.77656 16.0359 5.69985L17.2085 7.32001ZM17.712 6.62903C17.8025 6.35127 17.8026 6.05197 17.7124 5.77412L15.8102 6.39202C15.7698 6.26762 15.7699 6.13361 15.8104 6.00926L17.712 6.62903ZM17.7124 5.77412C17.6221 5.49628 17.4461 5.25418 17.2096 5.08264L16.0354 6.70164C15.9294 6.62482 15.8506 6.51641 15.8102 6.39202L17.7124 5.77412ZM17.2096 5.08264C16.9731 4.9111 16.6883 4.81897 16.3961 4.8195L16.3997 6.81949C16.2688 6.81973 16.1413 6.77846 16.0354 6.70164L17.2096 5.08264ZM16.3959 4.8195L10.548 4.83105L10.552 6.83105L16.3999 6.81949L16.3959 4.8195ZM11.5016 5.52368L9.70341 -0.043308L7.80023 0.571426L9.59838 6.13842L11.5016 5.52368ZM9.70331 -0.0436039C9.61042 -0.330884 9.42597 -0.579825 9.17817 -0.752334L8.03547 0.889078C7.92451 0.811827 7.84191 0.700352 7.80032 0.571722L9.70331 -0.0436039ZM9.17817 -0.752334C8.93035 -0.924861 8.63283 -1.01142 8.33115 -0.99879L8.41483 0.999458C8.27972 1.00512 8.14646 0.966347 8.03547 0.889078L9.17817 -0.752334Z" fill="#333333" mask="url(#path-1-inside-1)"/>
<mask id="path-3-inside-2" fill="white">
<path fill-rule="evenodd" clip-rule="evenodd" d="M27.7089 0.000334141C27.6311 0.00360093 27.5561 0.0306375 27.4941 0.0778106C27.432 0.124984 27.3859 0.190027 27.362 0.264187L25.5658 5.83105L19.718 5.8195C19.6373 5.81935 19.5587 5.84478 19.4934 5.89214C19.4281 5.9395 19.3795 6.00635 19.3546 6.08307C19.3297 6.15979 19.3297 6.24244 19.3547 6.31914C19.3797 6.39584 19.4284 6.46263 19.4937 6.50993L24.2322 9.93886L22.4128 15.5C22.3877 15.5766 22.3876 15.6593 22.4125 15.736C22.4373 15.8128 22.4859 15.8796 22.5511 15.927C22.6164 15.9745 22.695 16 22.7756 15.9999C22.8563 15.9998 22.9348 15.9742 23 15.9267L27.725 12.4785L32.4519 15.9267C32.5171 15.9743 32.5956 15.9999 32.6763 15.9999C32.7569 16 32.8355 15.9745 32.9008 15.927C32.966 15.8796 33.0145 15.8128 33.0394 15.736C33.0642 15.6593 33.0641 15.5766 33.039 15.5L31.2197 9.93886L35.9581 6.50993C36.0234 6.46263 36.0721 6.39584 36.0971 6.31914C36.1221 6.24244 36.1222 6.15979 36.0972 6.08307C36.0723 6.00635 36.0237 5.9395 35.9584 5.89214C35.8931 5.84478 35.8145 5.81935 35.7338 5.8195L29.8859 5.83105L28.0878 0.264059C28.0621 0.184734 28.0112 0.116001 27.9428 0.0683719C27.8743 0.020743 27.7922 -0.00315381 27.7089 0.000334141Z"/>
</mask>
<path fill-rule="evenodd" clip-rule="evenodd" d="M27.7089 0.000334141C27.6311 0.00360093 27.5561 0.0306375 27.4941 0.0778106C27.432 0.124984 27.3859 0.190027 27.362 0.264187L25.5658 5.83105L19.718 5.8195C19.6373 5.81935 19.5587 5.84478 19.4934 5.89214C19.4281 5.9395 19.3795 6.00635 19.3546 6.08307C19.3297 6.15979 19.3297 6.24244 19.3547 6.31914C19.3797 6.39584 19.4284 6.46263 19.4937 6.50993L24.2322 9.93886L22.4128 15.5C22.3877 15.5766 22.3876 15.6593 22.4125 15.736C22.4373 15.8128 22.4859 15.8796 22.5511 15.927C22.6164 15.9745 22.695 16 22.7756 15.9999C22.8563 15.9998 22.9348 15.9742 23 15.9267L27.725 12.4785L32.4519 15.9267C32.5171 15.9743 32.5956 15.9999 32.6763 15.9999C32.7569 16 32.8355 15.9745 32.9008 15.927C32.966 15.8796 33.0145 15.8128 33.0394 15.736C33.0642 15.6593 33.0641 15.5766 33.039 15.5L31.2197 9.93886L35.9581 6.50993C36.0234 6.46263 36.0721 6.39584 36.0971 6.31914C36.1221 6.24244 36.1222 6.15979 36.0972 6.08307C36.0723 6.00635 36.0237 5.9395 35.9584 5.89214C35.8931 5.84478 35.8145 5.81935 35.7338 5.8195L29.8859 5.83105L28.0878 0.264059C28.0621 0.184734 28.0112 0.116001 27.9428 0.0683719C27.8743 0.020743 27.7922 -0.00315381 27.7089 0.000334141Z" fill="white"/>
<path d="M27.362 0.264187L26.4104 -0.0431426L26.4103 -0.0428851L27.362 0.264187ZM25.5658 5.83105L25.5638 6.83105L26.2934 6.83249L26.5175 6.13812L25.5658 5.83105ZM19.718 5.8195L19.72 4.8195H19.7198L19.718 5.8195ZM19.4937 6.50993L18.9074 7.32001L18.9075 7.32006L19.4937 6.50993ZM24.2322 9.93886L25.1826 10.2498L25.4094 9.55643L24.8184 9.12873L24.2322 9.93886ZM22.4128 15.5L21.4624 15.189L21.4623 15.1893L22.4128 15.5ZM23 15.9267L23.5892 16.7347L23.5895 16.7344L23 15.9267ZM27.725 12.4785L28.3143 11.6706L27.7248 11.2406L27.1355 11.6707L27.725 12.4785ZM32.4519 15.9267L31.8626 16.7346L31.8629 16.7348L32.4519 15.9267ZM33.039 15.5L33.9896 15.1893L33.9895 15.189L33.039 15.5ZM31.2197 9.93886L30.6334 9.12873L30.0424 9.55643L30.2692 10.2498L31.2197 9.93886ZM35.9581 6.50993L36.5444 7.32006L36.5444 7.32001L35.9581 6.50993ZM35.7338 5.8195L35.732 4.8195H35.7318L35.7338 5.8195ZM29.8859 5.83105L28.9343 6.13842L29.1585 6.83249L29.8879 6.83105L29.8859 5.83105ZM28.0878 0.264059L29.0393 -0.043308L29.0393 -0.0436039L28.0878 0.264059ZM27.667 -0.998787C27.385 -0.986954 27.1134 -0.889019 26.8887 -0.718142L28.0994 0.873763C27.9988 0.950294 27.8771 0.994156 27.7508 0.999455L27.667 -0.998787ZM26.8887 -0.718142C26.664 -0.547279 26.4971 -0.311708 26.4104 -0.0431426L28.3136 0.571517C28.2748 0.691762 28.2 0.797247 28.0994 0.873763L26.8887 -0.718142ZM26.4103 -0.0428851L24.6141 5.52398L26.5175 6.13812L28.3137 0.571259L26.4103 -0.0428851ZM25.5678 4.83105L19.72 4.8195L19.716 6.81949L25.5638 6.83105L25.5678 4.83105ZM19.7198 4.8195C19.4276 4.81897 19.1428 4.91111 18.9063 5.08264L20.0805 6.70164C19.9746 6.77846 19.8471 6.81973 19.7162 6.81949L19.7198 4.8195ZM18.9063 5.08264C18.6698 5.25418 18.4938 5.49628 18.4035 5.77412L20.3057 6.39202C20.2653 6.51641 20.1865 6.62482 20.0805 6.70164L18.9063 5.08264ZM18.4035 5.77412C18.3133 6.05196 18.3134 6.35127 18.4039 6.62903L20.3055 6.00926C20.346 6.13362 20.3461 6.26762 20.3057 6.39202L18.4035 5.77412ZM18.4039 6.62903C18.4945 6.90679 18.6707 7.14871 18.9074 7.32001L20.08 5.69985C20.186 5.77656 20.265 5.88489 20.3055 6.00926L18.4039 6.62903ZM18.9075 7.32006L23.6459 10.749L24.8184 9.12873L20.08 5.69979L18.9075 7.32006ZM23.2817 9.62792L21.4624 15.189L23.3632 15.8109L25.1826 10.2498L23.2817 9.62792ZM21.4623 15.1893C21.3715 15.467 21.3711 15.7663 21.4611 16.0441L23.3638 15.4279C23.4041 15.5523 23.4039 15.6863 23.3633 15.8106L21.4623 15.1893ZM21.4611 16.0441C21.5511 16.322 21.7269 16.5643 21.9632 16.736L23.139 15.1181C23.2448 15.195 23.3235 15.3035 23.3638 15.4279L21.4611 16.0441ZM21.9632 16.736C22.1996 16.9077 22.4843 17.0001 22.7764 16.9999L22.7748 14.9999C22.9057 14.9998 23.0332 15.0412 23.139 15.1181L21.9632 16.736ZM22.7764 16.9999C23.0686 16.9997 23.3532 16.9068 23.5892 16.7347L22.4108 15.1187C22.5165 15.0416 22.6439 15 22.7748 14.9999L22.7764 16.9999ZM23.5895 16.7344L28.3145 13.2863L27.1355 11.6707L22.4105 15.1189L23.5895 16.7344ZM27.1356 13.2864L31.8626 16.7346L33.0413 15.1189L28.3143 11.6706L27.1356 13.2864ZM31.8629 16.7348C32.0989 16.9069 32.3835 16.9997 32.6756 16.9999L32.677 14.9999C32.8078 15 32.9352 15.0416 33.041 15.1187L31.8629 16.7348ZM32.6756 16.9999C32.9677 17.0001 33.2524 16.9077 33.4887 16.7359L32.3128 15.1182C32.4186 15.0412 32.5461 14.9998 32.677 14.9999L32.6756 16.9999ZM33.4887 16.7359C33.725 16.5642 33.9008 16.322 33.9907 16.0441L32.088 15.428C32.1283 15.3035 32.207 15.1951 32.3128 15.1182L33.4887 16.7359ZM33.9907 16.0441C34.0807 15.7662 34.0803 15.4669 33.9896 15.1893L32.0885 15.8107C32.0479 15.6864 32.0477 15.5524 32.088 15.428L33.9907 16.0441ZM33.9895 15.189L32.1701 9.62792L30.2692 10.2498L32.0886 15.8109L33.9895 15.189ZM31.8059 10.749L36.5444 7.32006L35.3719 5.6998L30.6334 9.12873L31.8059 10.749ZM36.5444 7.32001C36.7811 7.14871 36.9574 6.90679 37.0479 6.62903L35.1463 6.00926C35.1869 5.88489 35.2658 5.77656 35.3718 5.69985L36.5444 7.32001ZM37.0479 6.62903C37.1384 6.35127 37.1386 6.05197 37.0483 5.77412L35.1462 6.39202C35.1057 6.26762 35.1058 6.13361 35.1463 6.00926L37.0479 6.62903ZM37.0483 5.77412C36.9581 5.49628 36.782 5.25418 36.5455 5.08264L35.3713 6.70164C35.2654 6.62482 35.1866 6.51641 35.1462 6.39202L37.0483 5.77412ZM36.5455 5.08264C36.309 4.9111 36.0242 4.81897 35.732 4.8195L35.7356 6.81949C35.6048 6.81973 35.4772 6.77846 35.3713 6.70164L36.5455 5.08264ZM35.7318 4.8195L29.8839 4.83105L29.8879 6.83105L35.7358 6.81949L35.7318 4.8195ZM30.8375 5.52368L29.0393 -0.043308L27.1362 0.571426L28.9343 6.13842L30.8375 5.52368ZM29.0393 -0.0436039C28.9464 -0.330884 28.7619 -0.579825 28.5141 -0.752334L27.3714 0.889078C27.2604 0.811827 27.1779 0.700352 27.1363 0.571722L29.0393 -0.0436039ZM28.5141 -0.752334C28.2663 -0.924861 27.9688 -1.01142 27.6671 -0.99879L27.7508 0.999458C27.6157 1.00512 27.4824 0.966347 27.3714 0.889078L28.5141 -0.752334Z" fill="#333333" mask="url(#path-3-inside-2)"/>
<mask id="path-5-inside-3" fill="white">
<path fill-rule="evenodd" clip-rule="evenodd" d="M47.0371 0.000334141C46.9592 0.00360093 46.8842 0.0306375 46.8222 0.0778106C46.7602 0.124984 46.7141 0.190027 46.6901 0.264187L44.8939 5.83105L39.0461 5.8195C38.9655 5.81935 38.8868 5.84478 38.8215 5.89214C38.7563 5.9395 38.7076 6.00635 38.6827 6.08307C38.6578 6.15979 38.6578 6.24244 38.6828 6.31914C38.7078 6.39584 38.7565 6.46263 38.8219 6.50993L43.5603 9.93886L41.7409 15.5C41.7159 15.5766 41.7158 15.6593 41.7406 15.736C41.7655 15.8128 41.814 15.8796 41.8792 15.927C41.9445 15.9745 42.0231 16 42.1037 15.9999C42.1844 15.9998 42.2629 15.9742 42.3281 15.9267L47.0531 12.4785L51.78 15.9267C51.8452 15.9743 51.9238 15.9999 52.0044 15.9999C52.0851 16 52.1636 15.9745 52.2289 15.927C52.2941 15.8796 52.3426 15.8128 52.3675 15.736C52.3923 15.6593 52.3922 15.5766 52.3672 15.5L50.5478 9.93886L55.2862 6.50993C55.3516 6.46263 55.4002 6.39584 55.4252 6.31914C55.4502 6.24244 55.4503 6.15979 55.4254 6.08307C55.4004 6.00635 55.3518 5.9395 55.2865 5.89214C55.2212 5.84478 55.1426 5.81935 55.062 5.8195L49.214 5.83105L47.4159 0.264059C47.3902 0.184734 47.3393 0.116001 47.2709 0.0683719C47.2025 0.020743 47.1203 -0.00315381 47.0371 0.000334141Z"/>
</mask>
<path fill-rule="evenodd" clip-rule="evenodd" d="M47.0371 0.000334141C46.9592 0.00360093 46.8842 0.0306375 46.8222 0.0778106C46.7602 0.124984 46.7141 0.190027 46.6901 0.264187L44.8939 5.83105L39.0461 5.8195C38.9655 5.81935 38.8868 5.84478 38.8215 5.89214C38.7563 5.9395 38.7076 6.00635 38.6827 6.08307C38.6578 6.15979 38.6578 6.24244 38.6828 6.31914C38.7078 6.39584 38.7565 6.46263 38.8219 6.50993L43.5603 9.93886L41.7409 15.5C41.7159 15.5766 41.7158 15.6593 41.7406 15.736C41.7655 15.8128 41.814 15.8796 41.8792 15.927C41.9445 15.9745 42.0231 16 42.1037 15.9999C42.1844 15.9998 42.2629 15.9742 42.3281 15.9267L47.0531 12.4785L51.78 15.9267C51.8452 15.9743 51.9238 15.9999 52.0044 15.9999C52.0851 16 52.1636 15.9745 52.2289 15.927C52.2941 15.8796 52.3426 15.8128 52.3675 15.736C52.3923 15.6593 52.3922 15.5766 52.3672 15.5L50.5478 9.93886L55.2862 6.50993C55.3516 6.46263 55.4002 6.39584 55.4252 6.31914C55.4502 6.24244 55.4503 6.15979 55.4254 6.08307C55.4004 6.00635 55.3518 5.9395 55.2865 5.89214C55.2212 5.84478 55.1426 5.81935 55.062 5.8195L49.214 5.83105L47.4159 0.264059C47.3902 0.184734 47.3393 0.116001 47.2709 0.0683719C47.2025 0.020743 47.1203 -0.00315381 47.0371 0.000334141Z" fill="white"/>
<path d="M46.6901 0.264187L45.7385 -0.0431426L45.7384 -0.0428851L46.6901 0.264187ZM44.8939 5.83105L44.8919 6.83105L45.6216 6.83249L45.8456 6.13812L44.8939 5.83105ZM39.0461 5.8195L39.0481 4.8195H39.0479L39.0461 5.8195ZM38.8219 6.50993L38.2355 7.32001L38.2356 7.32006L38.8219 6.50993ZM43.5603 9.93886L44.5107 10.2498L44.7376 9.55643L44.1465 9.12873L43.5603 9.93886ZM41.7409 15.5L40.7905 15.189L40.7904 15.1893L41.7409 15.5ZM42.3281 15.9267L42.9173 16.7347L42.9176 16.7344L42.3281 15.9267ZM47.0531 12.4785L47.6424 11.6706L47.053 11.2406L46.4636 11.6707L47.0531 12.4785ZM51.78 15.9267L51.1907 16.7346L51.191 16.7348L51.78 15.9267ZM52.3672 15.5L53.3177 15.1893L53.3176 15.189L52.3672 15.5ZM50.5478 9.93886L49.9615 9.12873L49.3705 9.55643L49.5974 10.2498L50.5478 9.93886ZM55.2862 6.50993L55.8725 7.32006L55.8725 7.32001L55.2862 6.50993ZM55.062 5.8195L55.0601 4.8195H55.06L55.062 5.8195ZM49.214 5.83105L48.2624 6.13842L48.4866 6.83249L49.216 6.83105L49.214 5.83105ZM47.4159 0.264059L48.3675 -0.043308L48.3674 -0.0436039L47.4159 0.264059ZM46.9951 -0.998787C46.7131 -0.986954 46.4415 -0.889019 46.2168 -0.718142L47.4275 0.873763C47.3269 0.950294 47.2053 0.994156 47.079 0.999455L46.9951 -0.998787ZM46.2168 -0.718142C45.9922 -0.547279 45.8253 -0.311708 45.7385 -0.0431426L47.6417 0.571517C47.6029 0.691762 47.5282 0.797247 47.4275 0.873763L46.2168 -0.718142ZM45.7384 -0.0428851L43.9422 5.52398L45.8456 6.13812L47.6418 0.571259L45.7384 -0.0428851ZM44.8959 4.83105L39.0481 4.8195L39.0442 6.81949L44.8919 6.83105L44.8959 4.83105ZM39.0479 4.8195C38.7558 4.81897 38.4709 4.91111 38.2344 5.08264L39.4087 6.70164C39.3028 6.77846 39.1752 6.81973 39.0443 6.81949L39.0479 4.8195ZM38.2344 5.08264C37.9979 5.25418 37.8219 5.49628 37.7316 5.77412L39.6338 6.39202C39.5934 6.51641 39.5146 6.62482 39.4087 6.70164L38.2344 5.08264ZM37.7316 5.77412C37.6414 6.05196 37.6415 6.35127 37.7321 6.62903L39.6336 6.00926C39.6741 6.13362 39.6742 6.26762 39.6338 6.39202L37.7316 5.77412ZM37.7321 6.62903C37.8226 6.90679 37.9989 7.14871 38.2355 7.32001L39.4082 5.69985C39.5142 5.77656 39.5931 5.88489 39.6336 6.00926L37.7321 6.62903ZM38.2356 7.32006L42.9741 10.749L44.1465 9.12873L39.4081 5.69979L38.2356 7.32006ZM42.6099 9.62792L40.7905 15.189L42.6913 15.8109L44.5107 10.2498L42.6099 9.62792ZM40.7904 15.1893C40.6996 15.467 40.6993 15.7663 40.7893 16.0441L42.6919 15.4279C42.7322 15.5523 42.7321 15.6863 42.6914 15.8106L40.7904 15.1893ZM40.7893 16.0441C40.8793 16.322 41.055 16.5643 41.2914 16.736L42.4671 15.1181C42.5729 15.195 42.6517 15.3035 42.6919 15.4279L40.7893 16.0441ZM41.2914 16.736C41.5277 16.9077 41.8124 17.0001 42.1046 16.9999L42.1029 14.9999C42.2338 14.9998 42.3613 15.0412 42.4671 15.1181L41.2914 16.736ZM42.1046 16.9999C42.3968 16.9997 42.6813 16.9068 42.9173 16.7347L41.7389 15.1187C41.8446 15.0416 41.972 15 42.1029 14.9999L42.1046 16.9999ZM42.9176 16.7344L47.6426 13.2863L46.4636 11.6707L41.7386 15.1189L42.9176 16.7344ZM46.4637 13.2864L51.1907 16.7346L52.3694 15.1189L47.6424 11.6706L46.4637 13.2864ZM51.191 16.7348C51.4271 16.9069 51.7116 16.9997 52.0037 16.9999L52.0051 14.9999C52.1359 15 52.2634 15.0416 52.3691 15.1187L51.191 16.7348ZM52.0037 16.9999C52.2959 17.0001 52.5805 16.9077 52.8168 16.7359L51.6409 15.1182C51.7467 15.0412 51.8742 14.9998 52.0051 14.9999L52.0037 16.9999ZM52.8168 16.7359C53.0531 16.5642 53.2289 16.322 53.3189 16.0441L51.4161 15.428C51.4564 15.3035 51.5351 15.1951 51.6409 15.1182L52.8168 16.7359ZM53.3189 16.0441C53.4088 15.7662 53.4084 15.4669 53.3177 15.1893L51.4167 15.8107C51.376 15.6864 51.3758 15.5524 51.4161 15.428L53.3189 16.0441ZM53.3176 15.189L51.4982 9.62792L49.5974 10.2498L51.4167 15.8109L53.3176 15.189ZM51.134 10.749L55.8725 7.32006L54.7 5.6998L49.9615 9.12873L51.134 10.749ZM55.8725 7.32001C56.1092 7.14871 56.2855 6.90679 56.376 6.62903L54.4745 6.00926C54.515 5.88489 54.5939 5.77656 54.6999 5.69985L55.8725 7.32001ZM56.376 6.62903C56.4665 6.35127 56.4667 6.05197 56.3764 5.77412L54.4743 6.39202C54.4339 6.26762 54.4339 6.13361 54.4745 6.00926L56.376 6.62903ZM56.3764 5.77412C56.2862 5.49628 56.1102 5.25418 55.8737 5.08264L54.6994 6.70164C54.5935 6.62482 54.5147 6.51641 54.4743 6.39202L56.3764 5.77412ZM55.8737 5.08264C55.6371 4.9111 55.3523 4.81897 55.0601 4.8195L55.0638 6.81949C54.9329 6.81973 54.8053 6.77846 54.6994 6.70164L55.8737 5.08264ZM55.06 4.8195L49.2121 4.83105L49.216 6.83105L55.0639 6.81949L55.06 4.8195ZM50.1656 5.52368L48.3675 -0.043308L46.4643 0.571426L48.2624 6.13842L50.1656 5.52368ZM48.3674 -0.0436039C48.2745 -0.330884 48.09 -0.579825 47.8422 -0.752334L46.6995 0.889078C46.5886 0.811827 46.506 0.700352 46.4644 0.571722L48.3674 -0.0436039ZM47.8422 -0.752334C47.5944 -0.924861 47.2969 -1.01142 46.9952 -0.99879L47.0789 0.999458C46.9438 1.00512 46.8105 0.966347 46.6995 0.889078L47.8422 -0.752334Z" fill="#333333" mask="url(#path-5-inside-3)"/>
<mask id="path-7-inside-4" fill="white">
<path fill-rule="evenodd" clip-rule="evenodd" d="M66.373 0.000334141C66.2951 0.00360093 66.2202 0.0306375 66.1581 0.0778106C66.0961 0.124984 66.05 0.190027 66.0261 0.264187L64.2298 5.83105L58.3821 5.8195C58.3014 5.81935 58.2228 5.84478 58.1575 5.89214C58.0922 5.9395 58.0436 6.00635 58.0187 6.08307C57.9937 6.15979 57.9938 6.24244 58.0188 6.31914C58.0438 6.39584 58.0924 6.46263 58.1578 6.50993L62.8962 9.93886L61.0769 15.5C61.0518 15.5766 61.0517 15.6593 61.0765 15.736C61.1014 15.8128 61.1499 15.8796 61.2152 15.927C61.2804 15.9745 61.359 16 61.4397 15.9999C61.5203 15.9998 61.5989 15.9742 61.664 15.9267L66.389 12.4785L71.116 15.9267C71.1811 15.9743 71.2597 15.9999 71.3403 15.9999C71.421 16 71.4996 15.9745 71.5648 15.927C71.6301 15.8796 71.6786 15.8128 71.7034 15.736C71.7283 15.6593 71.7282 15.5766 71.7031 15.5L69.8837 9.93886L74.6222 6.50993C74.6875 6.46263 74.7362 6.39584 74.7612 6.31914C74.7862 6.24244 74.7862 6.15979 74.7613 6.08307C74.7364 6.00635 74.6878 5.9395 74.6225 5.89214C74.5572 5.84478 74.4785 5.81935 74.3979 5.8195L68.55 5.83105L66.7518 0.264059C66.7262 0.184734 66.6752 0.116001 66.6068 0.0683719C66.5384 0.020743 66.4563 -0.00315381 66.373 0.000334141Z"/>
</mask>
<path fill-rule="evenodd" clip-rule="evenodd" d="M66.373 0.000334141C66.2951 0.00360093 66.2202 0.0306375 66.1581 0.0778106C66.0961 0.124984 66.05 0.190027 66.0261 0.264187L64.2298 5.83105L58.3821 5.8195C58.3014 5.81935 58.2228 5.84478 58.1575 5.89214C58.0922 5.9395 58.0436 6.00635 58.0187 6.08307C57.9937 6.15979 57.9938 6.24244 58.0188 6.31914C58.0438 6.39584 58.0924 6.46263 58.1578 6.50993L62.8962 9.93886L61.0769 15.5C61.0518 15.5766 61.0517 15.6593 61.0765 15.736C61.1014 15.8128 61.1499 15.8796 61.2152 15.927C61.2804 15.9745 61.359 16 61.4397 15.9999C61.5203 15.9998 61.5989 15.9742 61.664 15.9267L66.389 12.4785L71.116 15.9267C71.1811 15.9743 71.2597 15.9999 71.3403 15.9999C71.421 16 71.4996 15.9745 71.5648 15.927C71.6301 15.8796 71.6786 15.8128 71.7034 15.736C71.7283 15.6593 71.7282 15.5766 71.7031 15.5L69.8837 9.93886L74.6222 6.50993C74.6875 6.46263 74.7362 6.39584 74.7612 6.31914C74.7862 6.24244 74.7862 6.15979 74.7613 6.08307C74.7364 6.00635 74.6878 5.9395 74.6225 5.89214C74.5572 5.84478 74.4785 5.81935 74.3979 5.8195L68.55 5.83105L66.7518 0.264059C66.7262 0.184734 66.6752 0.116001 66.6068 0.0683719C66.5384 0.020743 66.4563 -0.00315381 66.373 0.000334141Z" fill="white"/>
<path d="M66.0261 0.264187L65.0745 -0.0431426L65.0744 -0.0428851L66.0261 0.264187ZM64.2298 5.83105L64.2279 6.83105L64.9575 6.83249L65.1815 6.13812L64.2298 5.83105ZM58.3821 5.8195L58.384 4.8195H58.3839L58.3821 5.8195ZM58.1578 6.50993L57.5715 7.32001L57.5715 7.32006L58.1578 6.50993ZM62.8962 9.93886L63.8467 10.2498L64.0735 9.55643L63.4825 9.12873L62.8962 9.93886ZM61.0769 15.5L60.1264 15.189L60.1263 15.1893L61.0769 15.5ZM61.664 15.9267L62.2532 16.7347L62.2535 16.7344L61.664 15.9267ZM66.389 12.4785L66.9784 11.6706L66.3889 11.2406L65.7995 11.6707L66.389 12.4785ZM71.116 15.9267L70.5266 16.7346L70.5269 16.7348L71.116 15.9267ZM71.7031 15.5L72.6536 15.1893L72.6535 15.189L71.7031 15.5ZM69.8837 9.93886L69.2975 9.12873L68.7064 9.55643L68.9333 10.2498L69.8837 9.93886ZM74.6222 6.50993L75.2084 7.32006L75.2085 7.32001L74.6222 6.50993ZM74.3979 5.8195L74.3961 4.8195H74.3959L74.3979 5.8195ZM68.55 5.83105L67.5984 6.13842L67.8226 6.83249L68.552 6.83105L68.55 5.83105ZM66.7518 0.264059L67.7034 -0.043308L67.7033 -0.0436039L66.7518 0.264059ZM66.3311 -0.998787C66.0491 -0.986954 65.7774 -0.889019 65.5528 -0.718142L66.7635 0.873763C66.6629 0.950294 66.5412 0.994156 66.4149 0.999455L66.3311 -0.998787ZM65.5528 -0.718142C65.3281 -0.547279 65.1612 -0.311708 65.0745 -0.0431426L66.9777 0.571517C66.9388 0.691762 66.8641 0.797247 66.7635 0.873763L65.5528 -0.718142ZM65.0744 -0.0428851L63.2782 5.52398L65.1815 6.13812L66.9777 0.571259L65.0744 -0.0428851ZM64.2318 4.83105L58.384 4.8195L58.3801 6.81949L64.2279 6.83105L64.2318 4.83105ZM58.3839 4.8195C58.0917 4.81897 57.8069 4.91111 57.5704 5.08264L58.7446 6.70164C58.6387 6.77846 58.5111 6.81973 58.3803 6.81949L58.3839 4.8195ZM57.5704 5.08264C57.3339 5.25418 57.1578 5.49628 57.0676 5.77412L58.9697 6.39202C58.9293 6.51641 58.8505 6.62482 58.7446 6.70164L57.5704 5.08264ZM57.0676 5.77412C56.9773 6.05196 56.9775 6.35127 57.068 6.62903L58.9696 6.00926C59.0101 6.13362 59.0102 6.26762 58.9697 6.39202L57.0676 5.77412ZM57.068 6.62903C57.1585 6.90679 57.3348 7.14871 57.5715 7.32001L58.7441 5.69985C58.8501 5.77656 58.929 5.88489 58.9696 6.00926L57.068 6.62903ZM57.5715 7.32006L62.31 10.749L63.4825 9.12873L58.744 5.69979L57.5715 7.32006ZM61.9458 9.62792L60.1264 15.189L62.0273 15.8109L63.8467 10.2498L61.9458 9.62792ZM60.1263 15.1893C60.0356 15.467 60.0352 15.7663 60.1252 16.0441L62.0279 15.4279C62.0682 15.5523 62.068 15.6863 62.0274 15.8106L60.1263 15.1893ZM60.1252 16.0441C60.2152 16.322 60.391 16.5643 60.6273 16.736L61.803 15.1181C61.9089 15.195 61.9876 15.3035 62.0279 15.4279L60.1252 16.0441ZM60.6273 16.736C60.8636 16.9077 61.1483 17.0001 61.4405 16.9999L61.4389 14.9999C61.5697 14.9998 61.6972 15.0412 61.803 15.1181L60.6273 16.736ZM61.4405 16.9999C61.7327 16.9997 62.0172 16.9068 62.2532 16.7347L61.0749 15.1187C61.1805 15.0416 61.3079 15 61.4389 14.9999L61.4405 16.9999ZM62.2535 16.7344L66.9785 13.2863L65.7995 11.6707L61.0745 15.1189L62.2535 16.7344ZM65.7997 13.2864L70.5266 16.7346L71.7053 15.1189L66.9784 11.6706L65.7997 13.2864ZM70.5269 16.7348C70.763 16.9069 71.0475 16.9997 71.3397 16.9999L71.341 14.9999C71.4718 15 71.5993 15.0416 71.705 15.1187L70.5269 16.7348ZM71.3397 16.9999C71.6318 17.0001 71.9165 16.9077 72.1528 16.7359L70.9769 15.1182C71.0827 15.0412 71.2102 14.9998 71.341 14.9999L71.3397 16.9999ZM72.1528 16.7359C72.3891 16.5642 72.5648 16.322 72.6548 16.0441L70.7521 15.428C70.7924 15.3035 70.8711 15.1951 70.9769 15.1182L72.1528 16.7359ZM72.6548 16.0441C72.7448 15.7662 72.7444 15.4669 72.6536 15.1893L70.7526 15.8107C70.712 15.6864 70.7118 15.5524 70.7521 15.428L72.6548 16.0441ZM72.6535 15.189L70.8342 9.62792L68.9333 10.2498L70.7527 15.8109L72.6535 15.189ZM70.47 10.749L75.2084 7.32006L74.0359 5.6998L69.2975 9.12873L70.47 10.749ZM75.2085 7.32001C75.4452 7.14871 75.6214 6.90679 75.712 6.62903L73.8104 6.00926C73.8509 5.88489 73.9299 5.77656 74.0359 5.69985L75.2085 7.32001ZM75.712 6.62903C75.8025 6.35127 75.8026 6.05197 75.7124 5.77412L73.8102 6.39202C73.7698 6.26762 73.7699 6.13361 73.8104 6.00926L75.712 6.62903ZM75.7124 5.77412C75.6221 5.49628 75.4461 5.25418 75.2096 5.08264L74.0354 6.70164C73.9294 6.62482 73.8506 6.51641 73.8102 6.39202L75.7124 5.77412ZM75.2096 5.08264C74.9731 4.9111 74.6883 4.81897 74.3961 4.8195L74.3997 6.81949C74.2688 6.81973 74.1413 6.77846 74.0354 6.70164L75.2096 5.08264ZM74.3959 4.8195L68.548 4.83105L68.552 6.83105L74.3999 6.81949L74.3959 4.8195ZM69.5016 5.52368L67.7034 -0.043308L65.8002 0.571426L67.5984 6.13842L69.5016 5.52368ZM67.7033 -0.0436039C67.6104 -0.330884 67.426 -0.579825 67.1782 -0.752334L66.0355 0.889078C65.9245 0.811827 65.8419 0.700352 65.8003 0.571722L67.7033 -0.0436039ZM67.1782 -0.752334C66.9304 -0.924861 66.6328 -1.01142 66.3311 -0.99879L66.4148 0.999458C66.2797 1.00512 66.1465 0.966347 66.0355 0.889078L67.1782 -0.752334Z" fill="#333333" mask="url(#path-7-inside-4)"/>
<mask id="path-9-inside-5" fill="white">
<path fill-rule="evenodd" clip-rule="evenodd" d="M85.705 0.000334141C85.6272 0.00360093 85.5522 0.0306375 85.4902 0.0778106C85.4281 0.124984 85.382 0.190027 85.3581 0.264187L83.5619 5.83105L77.7141 5.8195C77.6334 5.81935 77.5548 5.84478 77.4895 5.89214C77.4242 5.9395 77.3756 6.00635 77.3507 6.08307C77.3258 6.15979 77.3258 6.24244 77.3508 6.31914C77.3758 6.39584 77.4245 6.46263 77.4898 6.50993L82.2283 9.93886L80.4089 15.5C80.3838 15.5766 80.3837 15.6593 80.4086 15.736C80.4334 15.8128 80.482 15.8796 80.5472 15.927C80.6125 15.9745 80.6911 16 80.7717 15.9999C80.8524 15.9998 80.9309 15.9742 80.9961 15.9267L85.7211 12.4785L90.448 15.9267C90.5132 15.9743 90.5917 15.9999 90.6724 15.9999C90.753 16 90.8316 15.9745 90.8968 15.927C90.9621 15.8796 91.0106 15.8128 91.0355 15.736C91.0603 15.6593 91.0602 15.5766 91.0351 15.5L89.2158 9.93886L93.9542 6.50993C94.0195 6.46263 94.0682 6.39584 94.0932 6.31914C94.1182 6.24244 94.1182 6.15979 94.0933 6.08307C94.0684 6.00635 94.0198 5.9395 93.9545 5.89214C93.8892 5.84478 93.8106 5.81935 93.7299 5.8195L87.882 5.83105L86.0838 0.264059C86.0582 0.184734 86.0073 0.116001 85.9389 0.0683719C85.8704 0.020743 85.7883 -0.00315381 85.705 0.000334141Z"/>
</mask>
<path fill-rule="evenodd" clip-rule="evenodd" d="M85.705 0.000334141C85.6272 0.00360093 85.5522 0.0306375 85.4902 0.0778106C85.4281 0.124984 85.382 0.190027 85.3581 0.264187L83.5619 5.83105L77.7141 5.8195C77.6334 5.81935 77.5548 5.84478 77.4895 5.89214C77.4242 5.9395 77.3756 6.00635 77.3507 6.08307C77.3258 6.15979 77.3258 6.24244 77.3508 6.31914C77.3758 6.39584 77.4245 6.46263 77.4898 6.50993L82.2283 9.93886L80.4089 15.5C80.3838 15.5766 80.3837 15.6593 80.4086 15.736C80.4334 15.8128 80.482 15.8796 80.5472 15.927C80.6125 15.9745 80.6911 16 80.7717 15.9999C80.8524 15.9998 80.9309 15.9742 80.9961 15.9267L85.7211 12.4785L90.448 15.9267C90.5132 15.9743 90.5917 15.9999 90.6724 15.9999C90.753 16 90.8316 15.9745 90.8968 15.927C90.9621 15.8796 91.0106 15.8128 91.0355 15.736C91.0603 15.6593 91.0602 15.5766 91.0351 15.5L89.2158 9.93886L93.9542 6.50993C94.0195 6.46263 94.0682 6.39584 94.0932 6.31914C94.1182 6.24244 94.1182 6.15979 94.0933 6.08307C94.0684 6.00635 94.0198 5.9395 93.9545 5.89214C93.8892 5.84478 93.8106 5.81935 93.7299 5.8195L87.882 5.83105L86.0838 0.264059C86.0582 0.184734 86.0073 0.116001 85.9389 0.0683719C85.8704 0.020743 85.7883 -0.00315381 85.705 0.000334141Z" fill="white"/>
<path d="M85.3581 0.264187L84.4065 -0.0431426L84.4064 -0.0428851L85.3581 0.264187ZM83.5619 5.83105L83.5599 6.83105L84.2895 6.83249L84.5136 6.13812L83.5619 5.83105ZM77.7141 5.8195L77.7161 4.8195H77.7159L77.7141 5.8195ZM77.4898 6.50993L76.9035 7.32001L76.9036 7.32006L77.4898 6.50993ZM82.2283 9.93886L83.1787 10.2498L83.4055 9.55643L82.8145 9.12873L82.2283 9.93886ZM80.4089 15.5L79.4585 15.189L79.4584 15.1893L80.4089 15.5ZM80.9961 15.9267L81.5853 16.7347L81.5856 16.7344L80.9961 15.9267ZM85.7211 12.4785L86.3104 11.6706L85.7209 11.2406L85.1316 11.6707L85.7211 12.4785ZM90.448 15.9267L89.8587 16.7346L89.8589 16.7348L90.448 15.9267ZM91.0351 15.5L91.9856 15.1893L91.9856 15.189L91.0351 15.5ZM89.2158 9.93886L88.6295 9.12873L88.0385 9.55643L88.2653 10.2498L89.2158 9.93886ZM93.9542 6.50993L94.5404 7.32006L94.5405 7.32001L93.9542 6.50993ZM93.7299 5.8195L93.7281 4.8195H93.7279L93.7299 5.8195ZM87.882 5.83105L86.9304 6.13842L87.1546 6.83249L87.884 6.83105L87.882 5.83105ZM86.0838 0.264059L87.0354 -0.043308L87.0353 -0.0436039L86.0838 0.264059ZM85.6631 -0.998787C85.3811 -0.986954 85.1095 -0.889019 84.8848 -0.718142L86.0955 0.873763C85.9949 0.950294 85.8732 0.994156 85.7469 0.999455L85.6631 -0.998787ZM84.8848 -0.718142C84.6601 -0.547279 84.4932 -0.311708 84.4065 -0.0431426L86.3097 0.571517C86.2709 0.691762 86.1961 0.797247 86.0955 0.873763L84.8848 -0.718142ZM84.4064 -0.0428851L82.6102 5.52398L84.5136 6.13812L86.3098 0.571259L84.4064 -0.0428851ZM83.5639 4.83105L77.7161 4.8195L77.7121 6.81949L83.5599 6.83105L83.5639 4.83105ZM77.7159 4.8195C77.4237 4.81897 77.1389 4.91111 76.9024 5.08264L78.0766 6.70164C77.9707 6.77846 77.8432 6.81973 77.7123 6.81949L77.7159 4.8195ZM76.9024 5.08264C76.6659 5.25418 76.4899 5.49628 76.3996 5.77412L78.3018 6.39202C78.2614 6.51641 78.1826 6.62482 78.0766 6.70164L76.9024 5.08264ZM76.3996 5.77412C76.3094 6.05196 76.3095 6.35127 76.4 6.62903L78.3016 6.00926C78.3421 6.13362 78.3422 6.26762 78.3018 6.39202L76.3996 5.77412ZM76.4 6.62903C76.4906 6.90679 76.6668 7.14871 76.9035 7.32001L78.0761 5.69985C78.1821 5.77656 78.261 5.88489 78.3016 6.00926L76.4 6.62903ZM76.9036 7.32006L81.642 10.749L82.8145 9.12873L78.0761 5.69979L76.9036 7.32006ZM81.2778 9.62792L79.4585 15.189L81.3593 15.8109L83.1787 10.2498L81.2778 9.62792ZM79.4584 15.1893C79.3676 15.467 79.3672 15.7663 79.4572 16.0441L81.3599 15.4279C81.4002 15.5523 81.4 15.6863 81.3594 15.8106L79.4584 15.1893ZM79.4572 16.0441C79.5472 16.322 79.723 16.5643 79.9593 16.736L81.1351 15.1181C81.2409 15.195 81.3196 15.3035 81.3599 15.4279L79.4572 16.0441ZM79.9593 16.736C80.1957 16.9077 80.4804 17.0001 80.7725 16.9999L80.7709 14.9999C80.9017 14.9998 81.0293 15.0412 81.1351 15.1181L79.9593 16.736ZM80.7725 16.9999C81.0647 16.9997 81.3493 16.9068 81.5853 16.7347L80.4069 15.1187C80.5125 15.0416 80.64 15 80.7709 14.9999L80.7725 16.9999ZM81.5856 16.7344L86.3106 13.2863L85.1316 11.6707L80.4066 15.1189L81.5856 16.7344ZM85.1317 13.2864L89.8587 16.7346L91.0373 15.1189L86.3104 11.6706L85.1317 13.2864ZM89.8589 16.7348C90.095 16.9069 90.3796 16.9997 90.6717 16.9999L90.6731 14.9999C90.8039 15 90.9313 15.0416 91.0371 15.1187L89.8589 16.7348ZM90.6717 16.9999C90.9638 17.0001 91.2485 16.9077 91.4848 16.7359L90.3089 15.1182C90.4147 15.0412 90.5422 14.9998 90.6731 14.9999L90.6717 16.9999ZM91.4848 16.7359C91.7211 16.5642 91.8968 16.322 91.9868 16.0441L90.0841 15.428C90.1244 15.3035 90.2031 15.1951 90.3089 15.1182L91.4848 16.7359ZM91.9868 16.0441C92.0768 15.7662 92.0764 15.4669 91.9856 15.1893L90.0846 15.8107C90.044 15.6864 90.0438 15.5524 90.0841 15.428L91.9868 16.0441ZM91.9856 15.189L90.1662 9.62792L88.2653 10.2498L90.0847 15.8109L91.9856 15.189ZM89.802 10.749L94.5404 7.32006L93.368 5.6998L88.6295 9.12873L89.802 10.749ZM94.5405 7.32001C94.7772 7.14871 94.9535 6.90679 95.044 6.62903L93.1424 6.00926C93.183 5.88489 93.2619 5.77656 93.3679 5.69985L94.5405 7.32001ZM95.044 6.62903C95.1345 6.35127 95.1347 6.05197 95.0444 5.77412L93.1422 6.39202C93.1018 6.26762 93.1019 6.13361 93.1424 6.00926L95.044 6.62903ZM95.0444 5.77412C94.9542 5.49628 94.7781 5.25418 94.5416 5.08264L93.3674 6.70164C93.2615 6.62482 93.1827 6.51641 93.1422 6.39202L95.0444 5.77412ZM94.5416 5.08264C94.3051 4.9111 94.0203 4.81897 93.7281 4.8195L93.7317 6.81949C93.6009 6.81973 93.4733 6.77846 93.3674 6.70164L94.5416 5.08264ZM93.7279 4.8195L87.88 4.83105L87.884 6.83105L93.7319 6.81949L93.7279 4.8195ZM88.8336 5.52368L87.0354 -0.043308L85.1323 0.571426L86.9304 6.13842L88.8336 5.52368ZM87.0353 -0.0436039C86.9425 -0.330884 86.758 -0.579825 86.5102 -0.752334L85.3675 0.889078C85.2565 0.811827 85.1739 0.700352 85.1324 0.571722L87.0353 -0.0436039ZM86.5102 -0.752334C86.2624 -0.924861 85.9649 -1.01142 85.6632 -0.99879L85.7469 0.999458C85.6117 1.00512 85.4785 0.966347 85.3675 0.889078L86.5102 -0.752334Z" fill="#333333" mask="url(#path-9-inside-5)"/>
<path fill-rule="evenodd" clip-rule="evenodd" d="M8.37303 0.000334142C8.29517 0.00360094 8.22019 0.0306377 8.15816 0.077811C8.09614 0.124984 8.05005 0.190028 8.0261 0.264188L6.22988 5.83108L0.382071 5.81952C0.301412 5.81937 0.222783 5.84481 0.157486 5.89217C0.0921883 5.93953 0.0435853 6.00637 0.0186625 6.0831C-0.00626042 6.15982 -0.0062198 6.24247 0.0187786 6.31917C0.0437769 6.39587 0.0924457 6.46266 0.15779 6.50996L4.89626 9.93891L3.07687 15.5C3.05181 15.5767 3.0517 15.6594 3.07656 15.7361C3.10141 15.8128 3.14995 15.8797 3.21519 15.9271C3.28044 15.9745 3.35904 16 3.43969 16C3.52034 15.9999 3.59889 15.9743 3.66406 15.9267L8.38906 12.4785L13.116 15.9268C13.1812 15.9743 13.2598 15.9999 13.3404 16C13.4211 16.0001 13.4996 15.9745 13.5649 15.9271C13.6301 15.8797 13.6786 15.8128 13.7035 15.7361C13.7283 15.6594 13.7282 15.5767 13.7032 15.5L11.8838 9.93891L16.6222 6.50996C16.6876 6.46266 16.7363 6.39587 16.7613 6.31917C16.7863 6.24247 16.7863 6.15982 16.7614 6.0831C16.7364 6.00637 16.6878 5.93953 16.6225 5.89217C16.5572 5.84481 16.4786 5.81937 16.398 5.81952L10.55 5.83108L8.75186 0.26406C8.72621 0.184735 8.67528 0.116001 8.60686 0.0683722C8.53845 0.0207431 8.45631 -0.00315383 8.37303 0.000334142Z" fill="#EDCD13"/>
<path fill-rule="evenodd" clip-rule="evenodd" d="M27.7051 0.000334142C27.6272 0.00360094 27.5522 0.0306377 27.4902 0.077811C27.4282 0.124984 27.3821 0.190028 27.3581 0.264188L25.5619 5.83108L19.7141 5.81952C19.6334 5.81937 19.5548 5.84481 19.4895 5.89217C19.4242 5.93953 19.3756 6.00637 19.3507 6.0831C19.3258 6.15982 19.3258 6.24247 19.3508 6.31917C19.3758 6.39587 19.4245 6.46266 19.4898 6.50996L24.2283 9.93891L22.4089 15.5C22.3838 15.5767 22.3837 15.6594 22.4086 15.7361C22.4334 15.8128 22.482 15.8797 22.5472 15.9271C22.6125 15.9745 22.6911 16 22.7717 16C22.8524 15.9999 22.9309 15.9743 22.9961 15.9267L27.7211 12.4785L32.4481 15.9268C32.5132 15.9743 32.5918 15.9999 32.6724 16C32.7531 16.0001 32.8317 15.9745 32.8969 15.9271C32.9621 15.8797 33.0107 15.8128 33.0355 15.7361C33.0604 15.6594 33.0603 15.5767 33.0352 15.5L31.2158 9.93891L35.9543 6.50996C36.0196 6.46266 36.0683 6.39587 36.0933 6.31917C36.1183 6.24247 36.1183 6.15982 36.0934 6.0831C36.0685 6.00637 36.0199 5.93953 35.9546 5.89217C35.8893 5.84481 35.8107 5.81937 35.73 5.81952L29.8821 5.83108L28.0839 0.26406C28.0582 0.184735 28.0073 0.116001 27.9389 0.0683722C27.8705 0.0207431 27.7883 -0.00315383 27.7051 0.000334142Z" fill="#EDCD13"/>
<path fill-rule="evenodd" clip-rule="evenodd" d="M47.041 0.000334142C46.9631 0.00360094 46.8882 0.0306377 46.8261 0.077811C46.7641 0.124984 46.718 0.190028 46.6941 0.264188L44.8978 5.83108L39.05 5.81952C38.9694 5.81937 38.8908 5.84481 38.8255 5.89217C38.7602 5.93953 38.7116 6.00637 38.6866 6.0831C38.6617 6.15982 38.6617 6.24247 38.6867 6.31917C38.7117 6.39587 38.7604 6.46266 38.8258 6.50996L43.5642 9.93891L41.7448 15.5C41.7198 15.5767 41.7197 15.6594 41.7445 15.7361C41.7694 15.8128 41.8179 15.8797 41.8832 15.9271C41.9484 15.9745 42.027 16 42.1077 16C42.1883 15.9999 42.2669 15.9743 42.332 15.9267L47.057 12.4785L51.784 15.9268C51.8492 15.9743 51.9277 15.9999 52.0084 16C52.089 16.0001 52.1676 15.9745 52.2328 15.9271C52.2981 15.8797 52.3466 15.8128 52.3715 15.7361C52.3963 15.6594 52.3962 15.5767 52.3711 15.5L50.5517 9.93891L55.2902 6.50996C55.3556 6.46266 55.4042 6.39587 55.4292 6.31917C55.4542 6.24247 55.4543 6.15982 55.4293 6.0831C55.4044 6.00637 55.3558 5.93953 55.2905 5.89217C55.2252 5.84481 55.1466 5.81937 55.0659 5.81952L49.218 5.83108L47.4198 0.26406C47.3942 0.184735 47.3432 0.116001 47.2748 0.0683722C47.2064 0.0207431 47.1243 -0.00315383 47.041 0.000334142Z" fill="#EDCD13"/>
<path fill-rule="evenodd" clip-rule="evenodd" d="M66.373 0.000334142C66.2952 0.00360094 66.2202 0.0306377 66.1582 0.077811C66.0961 0.124984 66.05 0.190028 66.0261 0.264188L64.2299 5.83108L58.3821 5.81952C58.3014 5.81937 58.2228 5.84481 58.1575 5.89217C58.0922 5.93953 58.0436 6.00637 58.0187 6.0831C57.9937 6.15982 57.9938 6.24247 58.0188 6.31917C58.0438 6.39587 58.0924 6.46266 58.1578 6.50996L62.8963 9.93891L61.0769 15.5C61.0518 15.5767 61.0517 15.6594 61.0766 15.7361C61.1014 15.8128 61.1499 15.8797 61.2152 15.9271C61.2804 15.9745 61.359 16 61.4397 16C61.5203 15.9999 61.5989 15.9743 61.6641 15.9267L66.3891 12.4785L71.116 15.9268C71.1812 15.9743 71.2598 15.9999 71.3404 16C71.4211 16.0001 71.4996 15.9745 71.5649 15.9271C71.6301 15.8797 71.6786 15.8128 71.7035 15.7361C71.7283 15.6594 71.7282 15.5767 71.7032 15.5L69.8838 9.93891L74.6222 6.50996C74.6876 6.46266 74.7363 6.39587 74.7613 6.31917C74.7863 6.24247 74.7863 6.15982 74.7614 6.0831C74.7364 6.00637 74.6878 5.93953 74.6225 5.89217C74.5572 5.84481 74.4786 5.81937 74.398 5.81952L68.55 5.83108L66.7519 0.26406C66.7262 0.184735 66.6753 0.116001 66.6069 0.0683722C66.5384 0.0207431 66.4563 -0.00315383 66.373 0.000334142Z" fill="#EDCD13"/>
<path fill-rule="evenodd" clip-rule="evenodd" d="M85.7051 0.000334142C85.6272 0.00360094 85.5522 0.0306377 85.4902 0.077811C85.4282 0.124984 85.3821 0.190028 85.3581 0.264188L83.5619 5.83108L77.7141 5.81952C77.6334 5.81937 77.5548 5.84481 77.4895 5.89217C77.4242 5.93953 77.3756 6.00637 77.3507 6.0831C77.3258 6.15982 77.3258 6.24247 77.3508 6.31917C77.3758 6.39587 77.4245 6.46266 77.4898 6.50996L82.2283 9.93891L80.4089 15.5C80.3838 15.5767 80.3837 15.6594 80.4086 15.7361C80.4334 15.8128 80.482 15.8797 80.5472 15.9271C80.6125 15.9745 80.6911 16 80.7717 16C80.8524 15.9999 80.9309 15.9743 80.9961 15.9267L85.7211 12.4785L90.4481 15.9268C90.5132 15.9743 90.5918 15.9999 90.6724 16C90.7531 16.0001 90.8317 15.9745 90.8969 15.9271C90.9621 15.8797 91.0107 15.8128 91.0355 15.7361C91.0604 15.6594 91.0603 15.5767 91.0352 15.5L89.2158 9.93891L93.9543 6.50996C94.0196 6.46266 94.0683 6.39587 94.0933 6.31917C94.1183 6.24247 94.1183 6.15982 94.0934 6.0831C94.0685 6.00637 94.0199 5.93953 93.9546 5.89217C93.8893 5.84481 93.8107 5.81937 93.73 5.81952L87.8821 5.83108L86.0839 0.26406C86.0582 0.184735 86.0073 0.116001 85.9389 0.0683722C85.8705 0.0207431 85.7883 -0.00315383 85.7051 0.000334142Z" fill="#EDCD13"/>
</svg>
