<svg width="37" height="22" viewBox="0 0 37 22" fill="none" xmlns="http://www.w3.org/2000/svg">
<rect x="1.25" y="1" width="33.75" height="20" rx="3" fill="white" stroke="#D9D9D9"/>
<path opacity="0.7" d="M8.05709 7.1H10.9731C12.9251 7.1 13.9011 8.004 13.9011 9.812C13.9011 10.74 13.6491 11.432 13.1451 11.888C12.6411 12.344 11.9211 12.572 10.9851 12.572H9.47309V15.5H8.05709V7.1ZM10.8171 11.384C11.3771 11.384 11.7931 11.26 12.0651 11.012C12.3451 10.756 12.4851 10.364 12.4851 9.836C12.4851 9.3 12.3451 8.908 12.0651 8.66C11.7931 8.412 11.3691 8.288 10.7931 8.288H9.47309V11.384H10.8171ZM15.1001 7.1H18.2321C19.0401 7.1 19.7561 7.268 20.3801 7.604C21.0121 7.94 21.5041 8.424 21.8561 9.056C22.2081 9.688 22.3841 10.436 22.3841 11.3C22.3841 12.164 22.2081 12.912 21.8561 13.544C21.5041 14.176 21.0121 14.66 20.3801 14.996C19.7561 15.332 19.0401 15.5 18.2321 15.5H15.1001V7.1ZM18.2321 14.252C19.0881 14.252 19.7401 13.992 20.1881 13.472C20.6361 12.944 20.8601 12.22 20.8601 11.3C20.8601 10.38 20.6361 9.66 20.1881 9.14C19.7401 8.612 19.0881 8.348 18.2321 8.348H16.4921V14.252H18.2321ZM23.7719 7.1H28.9319V8.42H25.1639V10.46H28.0679V11.78H25.1639V15.5H23.7719V7.1Z" fill="#333333"/>
</svg>
