<svg width="22" height="21" viewBox="0 0 22 21" fill="none" xmlns="http://www.w3.org/2000/svg">
<path d="M11.662 1.6613C9.89693 1.82672 8.47328 3.40784 8.49327 5.18058L8.62462 14.7652C8.63672 15.8381 9.50578 16.6206 10.5741 16.5205C11.6425 16.4204 12.4921 15.4768 12.48 14.4039L12.3897 8.45804C12.3855 8.08483 12.1036 7.83105 11.732 7.86587C11.3604 7.9007 11.0849 8.20672 11.0891 8.57993L11.1329 14.5301C11.1366 14.8567 10.8611 15.1627 10.5359 15.1932C10.2108 15.2236 9.92891 14.9698 9.92523 14.6433L9.79388 5.05869C9.78231 4.03237 10.6319 3.0888 11.6538 2.99303C12.6757 2.89726 13.5448 3.67977 13.5564 4.70609L13.6877 14.2907C13.7077 16.0634 12.307 17.619 10.5649 17.759C8.79974 17.9244 7.36696 16.6343 7.37046 14.8827L7.27365 6.29893C7.26944 5.92572 6.98758 5.67194 6.61598 5.70676C6.24438 5.74158 5.96883 6.04761 5.97304 6.42082L6.04636 14.9834C6.07424 17.4559 8.11772 19.2959 10.5796 19.0652C13.0415 18.8345 15.0392 16.6158 15.0113 14.1433L14.9034 4.57985C14.8834 2.80711 13.4272 1.49588 11.662 1.6613Z" fill="black"/>
</svg>
