<svg width="16" height="16" viewBox="0 0 16 16" fill="none" xmlns="http://www.w3.org/2000/svg">
<rect width="16" height="16" rx="2" fill="#F4F6F8"/>
<path d="M8.39576 3.33301C7.99326 3.33301 7.66659 3.65967 7.66659 4.06217V7.41634H6.35409C6.30159 7.41634 6.25492 7.44551 6.22867 7.48926C6.20242 7.53301 6.20242 7.59134 6.22867 7.63509L8.27034 11.1351C8.29659 11.1818 8.34326 11.208 8.39576 11.208C8.44826 11.208 8.49492 11.1818 8.52117 11.1351L10.5628 7.63509C10.5891 7.59134 10.5891 7.53301 10.5628 7.48926C10.5366 7.44551 10.4899 7.41634 10.4374 7.41634H9.12492V4.06217C9.12492 3.65967 8.79826 3.33301 8.39576 3.33301Z" fill="#2B96DC"/>
<path d="M10.8757 11.4995H5.91732C5.59648 11.4995 5.33398 11.762 5.33398 12.0828C5.33398 12.4037 5.59648 12.6662 5.91732 12.6662H10.8757C11.1965 12.6662 11.459 12.4037 11.459 12.0828C11.459 11.762 11.1965 11.4995 10.8757 11.4995Z" fill="#2B96DC"/>
</svg>
