<svg width="16" height="16" viewBox="0 0 16 16" fill="none" xmlns="http://www.w3.org/2000/svg">
<path d="M15.5562 15.9998C15.4424 15.9998 15.3286 15.9562 15.2415 15.87L0.130004 0.758466C-0.0433345 0.585127 -0.0433345 0.303342 0.130004 0.130004C0.303342 -0.0433345 0.585127 -0.0433345 0.758466 0.130004L15.87 15.2415C16.0433 15.4149 16.0433 15.6967 15.87 15.87C15.7838 15.9562 15.67 15.9998 15.5562 15.9998Z" fill="black"/>
<path d="M0.444679 15.9998C0.330898 15.9998 0.217117 15.9562 0.130004 15.87C-0.0433345 15.6967 -0.0433345 15.4149 0.130004 15.2415L15.2415 0.130004C15.4149 -0.0433345 15.6967 -0.0433345 15.87 0.130004C16.0433 0.303342 16.0433 0.585127 15.87 0.758466L0.758466 15.87C0.672241 15.9562 0.55846 15.9998 0.444679 15.9998Z" fill="black"/>
</svg>
