<svg width="16" height="16" viewBox="0 0 16 16" fill="none" xmlns="http://www.w3.org/2000/svg">
<path d="M15.2421 6.31579H14.4C14.08 6.31579 13.8105 6.11368 13.6926 5.81053C13.6589 5.70947 13.6084 5.60842 13.5747 5.52421C13.44 5.23789 13.4905 4.88421 13.7263 4.66526L14.3326 4.05895C14.6358 3.75579 14.6358 3.28421 14.3326 2.98105L13.0189 1.66737C12.7158 1.36421 12.2442 1.36421 11.9411 1.66737L11.3347 2.27368C11.1158 2.49263 10.7621 2.56 10.4758 2.42526C10.3747 2.39158 10.2905 2.34105 10.1895 2.30737C9.88632 2.18947 9.68421 1.92 9.68421 1.6V0.757895C9.68421 0.336842 9.34737 0 8.92632 0H7.07368C6.65263 0 6.31579 0.336842 6.31579 0.757895V1.61684C6.31579 1.93684 6.11368 2.22316 5.81053 2.32421C5.70947 2.35789 5.62526 2.39158 5.52421 2.44211C5.23789 2.57684 4.90105 2.50947 4.66526 2.29053L4.05895 1.68421C3.75579 1.38105 3.28421 1.38105 2.98105 1.68421L1.66737 2.99789C1.36421 3.30105 1.36421 3.77263 1.66737 4.07579L2.27368 4.68211C2.49263 4.90105 2.56 5.25474 2.42526 5.54105C2.37474 5.64211 2.34105 5.72632 2.30737 5.82737C2.18947 6.13053 1.92 6.33263 1.6 6.33263H0.757895C0.336842 6.33263 0 6.66947 0 7.09053V8.94316C0 9.34737 0.336842 9.68421 0.757895 9.68421H1.58316C1.90316 9.68421 2.18947 9.88632 2.29053 10.1895C2.32421 10.2905 2.37474 10.3916 2.40842 10.4926C2.54316 10.7789 2.47579 11.1158 2.25684 11.3516L1.66737 11.9411C1.36421 12.2442 1.36421 12.7158 1.66737 13.0189L2.98105 14.3326C3.28421 14.6358 3.75579 14.6358 4.05895 14.3326L4.63158 13.76C4.85053 13.5411 5.18737 13.4737 5.47368 13.6084C5.59158 13.6589 5.70947 13.7095 5.81053 13.76C6.09684 13.8779 6.29895 14.1474 6.29895 14.4674V15.2421C6.29895 15.6632 6.63579 16 7.05684 16H8.90947C9.33053 16 9.66737 15.6632 9.66737 15.2421V14.4168C9.66737 14.1137 9.85263 13.8274 10.1558 13.7095C10.2737 13.6589 10.3916 13.6253 10.4926 13.5579C10.7789 13.4232 11.1158 13.4905 11.3347 13.7095L11.9074 14.2821C12.2105 14.5853 12.6821 14.5853 12.9853 14.2821L14.2989 12.9684C14.6021 12.6653 14.6021 12.1937 14.2989 11.8905L13.7263 11.3347C13.5074 11.1158 13.44 10.7789 13.5747 10.4758C13.6253 10.3747 13.6589 10.2737 13.6926 10.1726C13.8105 9.86947 14.08 9.66737 14.4 9.66737H15.2421C15.6632 9.66737 16 9.33053 16 8.90947V7.05684C16 6.65263 15.6632 6.31579 15.2421 6.31579ZM8 10.9474C6.36632 10.9474 5.05263 9.63368 5.05263 8C5.05263 6.36632 6.36632 5.05263 8 5.05263C9.63368 5.05263 10.9474 6.36632 10.9474 8C10.9474 9.63368 9.63368 10.9474 8 10.9474Z" fill="#33333E"/>
</svg>
