<svg width="36" height="35" viewBox="0 0 36 35" fill="none" xmlns="http://www.w3.org/2000/svg">
<path fill-rule="evenodd" clip-rule="evenodd" d="M17.7935 0.000710085C17.628 0.00765235 17.4687 0.065108 17.3369 0.165356C17.2051 0.265604 17.1071 0.403828 17.0562 0.561426L13.2391 12.3916L0.811939 12.367C0.64053 12.3667 0.473435 12.4208 0.334672 12.5214C0.195909 12.6221 0.092623 12.7641 0.0396595 12.9272C-0.013304 13.0902 -0.0132177 13.2659 0.0399063 13.4288C0.0930302 13.5918 0.196456 13.7338 0.335318 13.8343L10.405 21.1211L6.53864 32.9391C6.48539 33.102 6.48516 33.2776 6.53798 33.4407C6.5908 33.6038 6.69394 33.7459 6.8326 33.8467C6.97125 33.9474 7.13828 34.0016 7.30967 34.0015C7.48106 34.0014 7.64799 33.9469 7.78648 33.8459L17.8276 26.5181L27.8728 33.846C28.0113 33.947 28.1783 34.0014 28.3496 34.0015C28.521 34.0017 28.688 33.9474 28.8267 33.8467C28.9653 33.7459 29.0684 33.6038 29.1212 33.4407C29.174 33.2776 29.1738 33.102 29.1206 32.9391L25.2542 21.1211L35.3239 13.8343C35.4627 13.7338 35.5662 13.5918 35.6193 13.4288C35.6724 13.2659 35.6725 13.0902 35.6195 12.9272C35.5666 12.7641 35.4633 12.6221 35.3245 12.5214C35.1858 12.4208 35.0187 12.3667 34.8473 12.367L22.4198 12.3916L18.5985 0.561154C18.544 0.39258 18.4358 0.246514 18.2904 0.145298C18.145 0.0440811 17.9705 -0.00670219 17.7935 0.000710085Z" fill="#EDCD13"/>
</svg>
