<svg width="15" height="13" viewBox="0 0 15 13" fill="none" xmlns="http://www.w3.org/2000/svg">
<path fill-rule="evenodd" clip-rule="evenodd" d="M7.48277 0.000271491C7.41951 0.00292577 7.35859 0.0248931 7.30819 0.0632214C7.2578 0.10155 7.22035 0.154398 7.20089 0.214653L5.74146 4.73775L0.990121 4.72836C0.924585 4.72824 0.860699 4.74891 0.807645 4.78739C0.75459 4.82587 0.715101 4.88018 0.694851 4.94252C0.674601 5.00485 0.674634 5.07201 0.694945 5.13432C0.715256 5.19664 0.7548 5.25091 0.807892 5.28934L4.6579 8.07536L3.17964 12.5938C3.15928 12.6561 3.1592 12.7232 3.17939 12.7856C3.19958 12.8479 3.23902 12.9023 3.29203 12.9408C3.34505 12.9793 3.4089 13 3.47443 13C3.53996 12.9999 3.60379 12.9791 3.65674 12.9405L7.4958 10.1388L11.3365 12.9405C11.3894 12.9791 11.4532 13 11.5188 13C11.5843 13 11.6481 12.9793 11.7011 12.9408C11.7542 12.9023 11.7936 12.8479 11.8138 12.7856C11.834 12.7232 11.8339 12.6561 11.8135 12.5938L10.3353 8.07536L14.1853 5.28934C14.2384 5.25091 14.2779 5.19664 14.2982 5.13432C14.3185 5.07201 14.3185 5.00485 14.2983 4.94252C14.278 4.88018 14.2386 4.82587 14.1855 4.78739C14.1325 4.74891 14.0686 4.72824 14.003 4.72836L9.25158 4.73775L7.79057 0.214549C7.76973 0.150097 7.72835 0.0942511 7.67276 0.0555524C7.61717 0.0168538 7.55044 -0.00256248 7.48277 0.000271491Z" fill="#EDCD13"/>
</svg>
