<svg width="10" height="14" viewBox="0 0 10 14" fill="none" xmlns="http://www.w3.org/2000/svg">
<path d="M4.59266 0C3.98891 0 3.49891 0.49 3.49891 1.09375V6.125H1.53016C1.45141 6.125 1.38141 6.16875 1.34203 6.23438C1.30266 6.3 1.30266 6.3875 1.34203 6.45312L4.40453 11.7031C4.44391 11.7731 4.51391 11.8125 4.59266 11.8125C4.67141 11.8125 4.74141 11.7731 4.78078 11.7031L7.84328 6.45312C7.88266 6.3875 7.88266 6.3 7.84328 6.23438C7.80391 6.16875 7.73391 6.125 7.65516 6.125H5.68641V1.09375C5.68641 0.49 5.19641 0 4.59266 0Z" fill="#2B96DC"/>
<path d="M8.3125 12.25H0.875C0.39375 12.25 0 12.6437 0 13.125C0 13.6063 0.39375 14 0.875 14H8.3125C8.79375 14 9.1875 13.6063 9.1875 13.125C9.1875 12.6437 8.79375 12.25 8.3125 12.25Z" fill="#2B96DC"/>
</svg>
