<svg width="8" height="7" viewBox="0 0 8 7" fill="none" xmlns="http://www.w3.org/2000/svg">
<path d="M4.03056 6.57766C4.12968 6.57057 4.22356 6.53047 4.29722 6.46377L7.85266 3.26387C7.89608 3.22484 7.93138 3.17764 7.95655 3.12497C7.98173 3.07229 7.99627 3.01518 7.99937 2.95688C8.00247 2.89859 7.99406 2.84025 7.97461 2.7852C7.95516 2.73016 7.92506 2.67949 7.88603 2.63607C7.847 2.59266 7.79979 2.55737 7.74712 2.5322C7.69444 2.50703 7.63732 2.49249 7.57903 2.48939C7.52073 2.4863 7.46239 2.49472 7.40735 2.51418C7.35231 2.53363 7.30164 2.56374 7.25823 2.60278L4 5.53602L0.741771 2.60278C0.698364 2.56374 0.647696 2.53363 0.592654 2.51418C0.537612 2.49472 0.479277 2.4863 0.42098 2.48939C0.362683 2.49249 0.305562 2.50703 0.252886 2.5322C0.200211 2.55737 0.153003 2.59266 0.113969 2.63607C0.0749359 2.67949 0.0448346 2.73016 0.0253868 2.7852C0.00593901 2.84025 -0.00247288 2.89859 0.000626087 2.95688C0.00372505 3.01518 0.0182791 3.07229 0.0434527 3.12497C0.0686264 3.17764 0.10393 3.22484 0.147345 3.26387L3.70279 6.46377C3.74699 6.50376 3.79879 6.53445 3.8551 6.55402C3.91141 6.57358 3.97108 6.58162 4.03056 6.57766Z" fill="#2B96DC"/>
<path d="M4.03056 4.08889C4.12968 4.0818 4.22356 4.0417 4.29722 3.975L7.85266 0.775097C7.89608 0.736068 7.93138 0.68887 7.95655 0.636197C7.98173 0.583525 7.99627 0.526409 7.99937 0.468112C8.00247 0.409816 7.99406 0.351479 7.97461 0.296435C7.95516 0.24139 7.92506 0.190716 7.88603 0.147305C7.847 0.103894 7.79979 0.0685964 7.74712 0.0434288C7.69444 0.0182612 7.63732 0.00371605 7.57903 0.000623969C7.52073 -0.00246811 7.46239 0.00595347 7.40735 0.0254077C7.35231 0.044862 7.30164 0.0749679 7.25823 0.114006L4 3.04725L0.741771 0.114006C0.698364 0.0749679 0.647696 0.044862 0.592654 0.0254077C0.537612 0.00595347 0.479277 -0.00246811 0.42098 0.000623969C0.362683 0.00371605 0.305562 0.0182612 0.252886 0.0434288C0.200211 0.0685964 0.153003 0.103894 0.113969 0.147305C0.0749359 0.190716 0.0448346 0.24139 0.0253868 0.296435C0.00593901 0.351479 -0.00247288 0.409816 0.000626087 0.468112C0.00372505 0.526409 0.0182791 0.583525 0.0434527 0.636197C0.0686264 0.68887 0.10393 0.736068 0.147345 0.775097L3.70279 3.975C3.74699 4.01499 3.79879 4.04568 3.8551 4.06525C3.91141 4.08481 3.97108 4.09285 4.03056 4.08889Z" fill="#2B96DC"/>
</svg>
