<svg width="14" height="12" viewBox="0 0 14 12" fill="none" xmlns="http://www.w3.org/2000/svg">
<path d="M8.96712 2.42969H0.602818C0.523655 2.42969 0.445267 2.44528 0.37213 2.47557C0.298992 2.50586 0.232538 2.55027 0.176561 2.60624C0.120584 2.66222 0.0761801 2.72867 0.0458858 2.80181C0.0155914 2.87495 -6.08093e-07 2.95333 1.26526e-10 3.0325V9.0306C-1.62176e-06 9.10976 0.0155896 9.18815 0.0458835 9.26129C0.0761774 9.33442 0.120581 9.40088 0.176558 9.45686C0.232535 9.51283 0.29899 9.55724 0.372128 9.58753C0.445266 9.61782 0.523655 9.63342 0.602818 9.63342H1.03373V11.9996L3.21262 9.63342H8.96712C9.04628 9.63342 9.12467 9.61782 9.19781 9.58753C9.27095 9.55724 9.33741 9.51283 9.39338 9.45686C9.44936 9.40088 9.49376 9.33442 9.52406 9.26129C9.55435 9.18815 9.56994 9.10976 9.56994 9.0306V3.0325C9.56994 2.95333 9.55435 2.87495 9.52405 2.80181C9.49376 2.72867 9.44936 2.66222 9.39338 2.60624C9.3374 2.55027 9.27095 2.50586 9.19781 2.47557C9.12467 2.44528 9.04628 2.42969 8.96712 2.42969ZM2.45185 6.60552C2.33833 6.60552 2.22736 6.57186 2.13297 6.50879C2.03858 6.44572 1.96502 6.35608 1.92157 6.2512C1.87813 6.14632 1.86677 6.03091 1.88891 5.91957C1.91106 5.80823 1.96572 5.70596 2.046 5.62569C2.12627 5.54542 2.22854 5.49076 2.33988 5.46861C2.45122 5.44646 2.56662 5.45783 2.6715 5.50127C2.77638 5.54471 2.86602 5.61828 2.92909 5.71267C2.99216 5.80706 3.02582 5.91803 3.02582 6.03155C3.02582 6.18377 2.96535 6.32977 2.85771 6.4374C2.75007 6.54504 2.60408 6.60552 2.45186 6.60552H2.45185ZM4.78497 6.60552C4.67145 6.60552 4.56047 6.57186 4.46608 6.50879C4.3717 6.44572 4.29813 6.35608 4.25469 6.2512C4.21125 6.14632 4.19988 6.03091 4.22203 5.91957C4.24417 5.80823 4.29884 5.70596 4.37911 5.62569C4.45938 5.54542 4.56165 5.49076 4.67299 5.46861C4.78433 5.44646 4.89973 5.45783 5.00461 5.50127C5.10949 5.54471 5.19913 5.61828 5.2622 5.71267C5.32527 5.80706 5.35893 5.91803 5.35893 6.03155C5.35893 6.18377 5.29846 6.32977 5.19082 6.4374C5.08319 6.54504 4.93719 6.60552 4.78497 6.60552H4.78497ZM7.11808 6.60552C7.00456 6.60552 6.89359 6.57185 6.7992 6.50878C6.70482 6.44571 6.63125 6.35607 6.58781 6.25119C6.54437 6.14631 6.53301 6.0309 6.55516 5.91956C6.57731 5.80823 6.63197 5.70596 6.71224 5.62569C6.79252 5.54542 6.89479 5.49075 7.00613 5.46861C7.11746 5.44646 7.23287 5.45783 7.33775 5.50127C7.44263 5.54472 7.53227 5.61828 7.59533 5.71267C7.6584 5.80706 7.69206 5.91803 7.69206 6.03155C7.69206 6.10693 7.67722 6.18156 7.64837 6.2512C7.61953 6.32084 7.57725 6.38411 7.52395 6.43741C7.47065 6.49071 7.40737 6.53299 7.33773 6.56183C7.2681 6.59067 7.19346 6.60552 7.11808 6.60552H7.11808Z" fill="#42A2E0"/>
<path d="M13.2916 1.77664e-07H4.92738C4.76752 -0.00012243 4.61415 0.0632196 4.50096 0.17611C4.38777 0.289 4.32403 0.442205 4.32373 0.602065V1.34927H8.96747C9.41384 1.34988 9.84173 1.52757 10.1572 1.84335C10.4727 2.15912 10.65 2.58717 10.6502 3.03354V7.20333H10.6811L12.8609 9.56998V7.20333H13.2916C13.4515 7.20303 13.6047 7.1393 13.7176 7.02612C13.8305 6.91294 13.8938 6.75958 13.8937 6.59972V0.602073C13.8935 0.442458 13.83 0.289438 13.7171 0.176573C13.6043 0.0637066 13.4513 0.000207277 13.2916 1.77664e-07Z" fill="#42A2E0"/>
</svg>
