<svg width="1440" height="720" viewBox="0 0 1440 720" fill="none" xmlns="http://www.w3.org/2000/svg">
<g clip-path="url(#clip0)">
<rect width="1440" height="720" fill="white"/>
<rect width="1440" height="720" fill="#2A95DB"/>
<g opacity="0.4">
<path d="M163.746 665.697H80.5391V831.241H163.746V665.697Z" stroke="white" stroke-miterlimit="10"/>
<path d="M333.699 588H250.492V831.241H333.699V588Z" stroke="white" stroke-miterlimit="10"/>
<path d="M503.649 466H420.442V831.241H503.649V466Z" stroke="white" stroke-miterlimit="10"/>
<path d="M670 303.286H586.794V831.232H670V303.286Z" stroke="white" stroke-miterlimit="10"/>
</g>
<g opacity="0.4">
<g clip-path="url(#clip1)">
<path d="M107.717 -13.1812C92.5748 -19.9661 74.7728 -13.2499 68.0416 1.79431C61.3042 16.8386 68.1478 34.6005 83.2898 41.3854C98.4317 48.1704 116.234 41.4542 122.965 26.4099C129.696 11.3657 122.859 -6.39631 107.717 -13.1812ZM83.5707 40.7419C68.7847 34.1132 62.1035 16.7698 68.6785 2.0817C75.2536 -12.6064 92.6372 -19.1664 107.423 -12.5377C122.209 -5.90899 128.891 11.4344 122.316 26.1225C115.74 40.8107 98.3631 47.3707 83.5707 40.7419Z" fill="white"/>
<path d="M110.614 -19.6538C91.8816 -28.0506 69.8586 -19.7412 61.5289 -1.12334C53.1993 17.4883 61.6601 39.4612 80.3924 47.8579C99.1248 56.2547 121.148 47.9392 129.477 29.3275C137.807 10.7159 129.346 -11.257 110.614 -19.6538ZM80.6734 47.2144C62.2907 38.9738 53.9923 17.4196 62.1659 -0.83595C70.3394 -19.0915 91.9441 -27.2446 110.32 -19.0103C128.703 -10.7759 137.002 10.7846 128.828 29.0401C120.661 47.3019 99.0561 55.455 80.6734 47.2144Z" fill="white"/>
<path d="M111.575 -21.8092C91.6441 -30.7433 68.2161 -21.8967 59.3495 -2.09802C50.4828 17.7069 59.4869 41.0792 79.4181 50.0133C99.3493 58.9474 122.777 50.1008 131.644 30.3021C140.511 10.5034 131.507 -12.8752 111.575 -21.8092ZM79.7116 49.3698C60.1362 40.5982 51.2883 17.6382 59.9989 -1.81063C68.7032 -21.2594 91.7128 -29.9436 111.294 -21.1657C130.87 -12.3941 139.718 10.5659 131.007 30.0147C122.296 49.4635 99.2869 58.1477 79.7116 49.3698Z" fill="white"/>
<path d="M196.096 59.2098C196.096 59.2036 196.102 59.1973 196.108 59.1973C196.115 59.1848 196.115 59.1661 196.121 59.1536C196.127 59.1286 196.133 59.1099 196.14 59.0849C196.14 59.0599 196.14 59.0411 196.133 59.0161C196.133 58.9911 196.127 58.9724 196.121 58.9537C196.115 58.9287 196.102 58.9099 196.09 58.8849C196.083 58.8724 196.077 58.8537 196.071 58.8412C196.065 58.835 196.058 58.835 196.058 58.8287C196.046 58.81 196.027 58.7975 196.008 58.785C195.99 58.7725 195.971 58.7537 195.952 58.7412C195.946 58.7412 195.946 58.735 195.94 58.7287L177.645 50.5319C177.638 50.5319 177.632 50.5319 177.626 50.5256C177.601 50.5194 177.582 50.5131 177.557 50.5131C177.532 50.5069 177.513 50.5069 177.488 50.5069C177.482 50.5069 177.476 50.5069 177.47 50.5069C177.451 50.5069 177.438 50.5194 177.426 50.5194C177.401 50.5256 177.376 50.5319 177.357 50.5381C177.339 50.5444 177.32 50.5569 177.301 50.5756C177.282 50.5881 177.264 50.6006 177.251 50.6193C177.232 50.6381 177.22 50.6568 177.207 50.6756C177.201 50.6881 177.189 50.7006 177.182 50.7131C177.182 50.7193 177.182 50.7256 177.176 50.7318C177.17 50.7505 177.164 50.7755 177.164 50.8005C177.157 50.8255 177.157 50.8505 177.157 50.8692C177.157 50.8755 177.157 50.8817 177.157 50.888L177.345 52.9872L176.67 52.6811L176.664 52.6748L167.979 48.7825C166.611 48.1703 165.568 47.0707 165.031 45.6775C164.494 44.2905 164.532 42.7786 165.144 41.4229C165.749 40.0671 166.848 39.0363 168.241 38.5052L200.785 26.2224C200.804 26.2162 200.816 26.2037 200.829 26.1974C200.848 26.1849 200.873 26.1724 200.891 26.1599C200.91 26.1474 200.923 26.1287 200.935 26.11C200.948 26.0912 200.96 26.0787 200.973 26.0537C200.985 26.0287 200.991 26.0038 200.998 25.9788C201.004 25.96 201.01 25.9475 201.01 25.9288C201.522 21.1806 201.703 16.3512 201.566 11.5718L202.908 11.4406C202.921 11.4406 202.927 11.4343 202.933 11.4343C202.971 11.4281 203.008 11.4156 203.039 11.4031C203.058 11.3968 203.071 11.3781 203.083 11.3656C203.102 11.3469 203.127 11.3344 203.146 11.3156C203.164 11.2906 203.177 11.2656 203.189 11.2344C203.195 11.2219 203.208 11.2094 203.208 11.1969C203.22 11.1532 203.227 11.1032 203.22 11.0532L202.921 8.19805L204.988 3.34991C204.988 3.34366 204.988 3.33742 204.994 3.33117C205 3.30618 205.006 3.28743 205.006 3.26244C205.012 3.23745 205.012 3.21871 205.012 3.19372C205.012 3.18747 205.012 3.18123 205.012 3.17498C205.012 3.16248 205.006 3.14999 205 3.13749C204.994 3.10626 204.988 3.08127 204.975 3.05003C204.969 3.03753 204.963 3.03128 204.956 3.01879C204.938 2.98755 204.919 2.96256 204.894 2.93757C204.881 2.93132 204.869 2.92507 204.856 2.91258C204.838 2.90008 204.825 2.88759 204.8 2.8751C204.8 2.8751 204.788 2.87509 204.781 2.86884C204.756 2.86259 204.738 2.85635 204.713 2.85635C204.688 2.85011 204.669 2.8501 204.644 2.8501C204.638 2.8501 204.632 2.8501 204.625 2.8501L195.909 3.71852L193.43 3.96843L184.719 4.83685C184.713 4.83685 184.707 4.84309 184.7 4.84309C184.675 4.84934 184.657 4.85558 184.632 4.86183C184.613 4.86808 184.588 4.87433 184.569 4.88683C184.563 4.89308 184.557 4.89307 184.551 4.89307C184.538 4.89932 184.532 4.91806 184.519 4.92431C184.501 4.94305 184.482 4.95555 184.469 4.97429C184.457 4.99304 184.444 5.01177 184.438 5.03676C184.432 5.05551 184.419 5.07425 184.413 5.09924C184.407 5.12423 184.407 5.14922 184.407 5.17421C184.407 5.18671 184.401 5.20545 184.401 5.21795C184.401 5.2242 184.407 5.22419 184.407 5.23044C184.413 5.28667 184.432 5.33665 184.463 5.38038L184.469 5.38663L185.681 7.11098L184.944 7.18594L175.49 8.12934C174.029 8.27303 172.531 7.82945 171.388 6.89856C170.22 5.95517 169.496 4.61193 169.34 3.13125C169.19 1.65681 169.621 0.219863 170.551 -0.929698L192.481 -27.8069C192.493 -27.8194 192.493 -27.8319 192.499 -27.8507C192.512 -27.8757 192.53 -27.8944 192.537 -27.9194C192.543 -27.9381 192.543 -27.9631 192.549 -27.9819C192.555 -28.0069 192.555 -28.0256 192.555 -28.0506C192.555 -28.0756 192.549 -28.0943 192.543 -28.1193C192.537 -28.1381 192.537 -28.1568 192.53 -28.1693C190.589 -32.5489 188.322 -36.8347 185.799 -40.9144L186.892 -41.7016C186.93 -41.7329 186.967 -41.7641 186.986 -41.8078C186.992 -41.8203 186.998 -41.8391 187.004 -41.8516C187.017 -41.8766 187.029 -41.9078 187.036 -41.9328C187.042 -41.9578 187.036 -41.9828 187.036 -42.0078C187.036 -42.0265 187.036 -42.0452 187.036 -42.064C187.029 -42.1015 187.011 -42.1327 186.992 -42.1639C186.986 -42.1702 186.986 -42.1827 186.979 -42.1889L185.287 -44.5193L184.638 -49.761C184.638 -49.7673 184.632 -49.7735 184.632 -49.7798C184.625 -49.8048 184.619 -49.8235 184.607 -49.8485C184.6 -49.8735 184.588 -49.8922 184.575 -49.911C184.569 -49.9172 184.569 -49.9235 184.569 -49.9235C184.557 -49.936 184.544 -49.9422 184.532 -49.9547C184.513 -49.9735 184.501 -49.986 184.482 -50.0047C184.463 -50.0172 184.438 -50.0297 184.419 -50.0359C184.401 -50.0422 184.382 -50.0547 184.363 -50.0547C184.338 -50.0609 184.313 -50.0609 184.282 -50.0609C184.27 -50.0609 184.257 -50.0672 184.238 -50.0672C184.232 -50.0672 184.226 -50.0609 184.226 -50.0609C184.201 -50.0547 184.176 -50.0484 184.157 -50.0359C184.138 -50.0297 184.113 -50.0234 184.101 -50.0109C184.095 -50.0047 184.088 -50.0047 184.082 -50.0047L167.891 -38.3654C167.885 -38.3654 167.885 -38.3591 167.879 -38.3529C167.854 -38.3342 167.841 -38.3154 167.823 -38.2904C167.81 -38.2779 167.798 -38.2592 167.791 -38.2404C167.785 -38.2342 167.785 -38.2279 167.779 -38.2217C167.773 -38.2092 167.773 -38.1905 167.766 -38.178C167.76 -38.153 167.754 -38.1342 167.748 -38.1092C167.748 -38.0843 167.748 -38.0655 167.748 -38.0405C167.748 -38.0155 167.754 -37.9968 167.76 -37.978C167.766 -37.9531 167.779 -37.9343 167.791 -37.9093C167.798 -37.8968 167.798 -37.8843 167.81 -37.8718C167.81 -37.8656 167.816 -37.8656 167.823 -37.8656C167.854 -37.8219 167.897 -37.7844 167.947 -37.7594L169.864 -36.8597L161.578 -30.8995C160.373 -30.0311 158.893 -29.6875 157.42 -29.9249C154.379 -30.4184 152.287 -33.2861 152.768 -36.3162L158.207 -70.5843C158.207 -70.5968 158.207 -70.6156 158.207 -70.6281C158.207 -70.6531 158.207 -70.6843 158.2 -70.7093C158.194 -70.728 158.188 -70.7468 158.182 -70.7655C158.175 -70.7905 158.163 -70.8155 158.15 -70.8342C158.138 -70.853 158.125 -70.8655 158.107 -70.8842C158.094 -70.8967 158.082 -70.9155 158.069 -70.928C154.192 -73.7644 150.083 -76.3571 145.856 -78.65L146.405 -79.8745C146.486 -80.0495 146.405 -80.2619 146.23 -80.3431L143.602 -81.5239L140.411 -85.7535C140.405 -85.7598 140.405 -85.7598 140.398 -85.766C140.386 -85.7848 140.361 -85.7973 140.342 -85.816C140.323 -85.8285 140.305 -85.8472 140.286 -85.8535C140.28 -85.8535 140.273 -85.8597 140.267 -85.866C140.248 -85.8722 140.236 -85.8722 140.217 -85.8785C140.192 -85.8847 140.174 -85.891 140.155 -85.891C140.13 -85.891 140.105 -85.891 140.086 -85.8847C140.067 -85.8847 140.042 -85.8785 140.024 -85.8722C139.999 -85.866 139.98 -85.8535 139.961 -85.841C139.949 -85.8348 139.93 -85.8285 139.918 -85.8223C139.911 -85.816 139.911 -85.8098 139.905 -85.8098C139.886 -85.7973 139.874 -85.7785 139.861 -85.7598C139.849 -85.741 139.83 -85.7223 139.818 -85.7036C139.818 -85.6973 139.811 -85.6973 139.805 -85.6911L131.669 -67.5168C131.669 -67.5105 131.669 -67.5043 131.663 -67.498C131.657 -67.473 131.65 -67.4543 131.644 -67.4293C131.638 -67.4043 131.638 -67.3856 131.638 -67.3606C131.638 -67.3543 131.638 -67.3481 131.638 -67.3418C131.638 -67.3293 131.644 -67.3231 131.65 -67.3168C131.657 -67.2731 131.675 -67.2294 131.694 -67.1919C131.7 -67.1794 131.707 -67.1669 131.719 -67.1544C131.75 -67.1107 131.794 -67.0732 131.85 -67.0482C131.9 -67.0232 131.956 -67.0169 132.006 -67.0232C132.012 -67.0232 132.019 -67.0232 132.019 -67.0232L134.129 -67.1981L129.964 -57.8892C129.359 -56.5335 128.26 -55.4963 126.867 -54.9715C123.989 -53.8845 120.748 -55.3339 119.643 -58.2078L107.111 -90.6642C107.105 -90.6829 107.092 -90.6891 107.086 -90.7079C107.073 -90.7266 107.061 -90.7516 107.048 -90.7704C107.036 -90.7891 107.017 -90.7954 106.999 -90.8141C106.98 -90.8266 106.961 -90.8453 106.942 -90.8578C106.924 -90.8703 106.899 -90.8703 106.874 -90.8766C106.855 -90.8828 106.842 -90.8891 106.824 -90.8891C102.047 -91.4264 97.2015 -91.6325 92.3998 -91.5201L92.2562 -92.8633C92.2499 -92.9008 92.2374 -92.932 92.225 -92.9633C92.2187 -92.9758 92.2187 -92.982 92.2125 -92.9945C92.2 -93.0195 92.1813 -93.032 92.1625 -93.0507C92.15 -93.0632 92.1375 -93.082 92.1251 -93.0945C92.1126 -93.107 92.0938 -93.1132 92.0751 -93.1195C92.0501 -93.132 92.0314 -93.1507 92.0064 -93.157C91.9939 -93.1632 91.9752 -93.157 91.9565 -93.1632C91.9252 -93.1694 91.9003 -93.1757 91.869 -93.1694L89.003 -92.8821L84.1201 -94.9688C84.1138 -94.9688 84.1076 -94.9688 84.1014 -94.975C84.0826 -94.9813 84.0577 -94.9875 84.0327 -94.9875C84.0077 -94.9938 83.989 -95 83.964 -95C83.9577 -95 83.9515 -95 83.9453 -95C83.9328 -95 83.9203 -94.9875 83.9015 -94.9875C83.8766 -94.9813 83.8516 -94.975 83.8266 -94.9625C83.8079 -94.95 83.7892 -94.9375 83.7704 -94.925C83.7517 -94.9125 83.733 -94.9 83.7205 -94.8813C83.7017 -94.8626 83.6892 -94.8438 83.6768 -94.8188C83.6705 -94.8063 83.658 -94.7938 83.6518 -94.7813C83.6518 -94.7751 83.6518 -94.7688 83.6455 -94.7626C83.6393 -94.7376 83.6331 -94.7189 83.6331 -94.6939C83.6268 -94.6689 83.6268 -94.6501 83.6268 -94.6251C83.6268 -94.6189 83.6268 -94.6126 83.6268 -94.6064L85.7248 -74.7702C85.7248 -74.764 85.7311 -74.764 85.7311 -74.7577C85.7373 -74.7078 85.7561 -74.6515 85.7873 -74.6078C85.7873 -74.6078 85.7873 -74.6078 85.7935 -74.6015C85.831 -74.5516 85.8809 -74.5078 85.9371 -74.4828C85.9933 -74.4579 86.0558 -74.4516 86.112 -74.4516C86.112 -74.4516 86.112 -74.4516 86.1182 -74.4516C86.1744 -74.4579 86.2244 -74.4766 86.2681 -74.5078C86.2743 -74.5078 86.2743 -74.5078 86.2806 -74.5141L88.0164 -75.7136L89.0904 -65.555C89.2465 -64.0743 88.8157 -62.6311 87.8791 -61.4816C85.9434 -59.1075 82.4155 -58.7514 80.0177 -60.7006L52.912 -82.686C52.8995 -82.6985 52.8808 -82.6985 52.8683 -82.7109C52.8495 -82.7234 52.8246 -82.7359 52.8058 -82.7422C52.7809 -82.7484 52.7621 -82.7547 52.7371 -82.7547C52.7184 -82.7547 52.6997 -82.7609 52.6747 -82.7609C52.6497 -82.7609 52.6248 -82.7547 52.5998 -82.7422C52.5873 -82.7359 52.5686 -82.7359 52.5561 -82.7297C48.1665 -80.8179 43.8767 -78.5813 39.7868 -76.0947L38.9876 -77.1881C38.9751 -77.2068 38.9564 -77.2193 38.9376 -77.2318C38.9189 -77.2505 38.9064 -77.2693 38.8814 -77.2818C38.869 -77.288 38.8502 -77.2943 38.8377 -77.3005C38.8128 -77.313 38.7815 -77.3255 38.7566 -77.3318C38.7441 -77.3318 38.7316 -77.3318 38.7129 -77.3318C38.6816 -77.3318 38.6504 -77.338 38.6192 -77.3255C38.6129 -77.3255 38.6005 -77.3193 38.5942 -77.313C38.5568 -77.3005 38.5255 -77.288 38.4943 -77.2693L36.1653 -75.5949L30.9015 -74.9764C30.8952 -74.9764 30.889 -74.9702 30.8827 -74.9702C30.8578 -74.9639 30.8328 -74.9577 30.8078 -74.9452C30.7891 -74.9389 30.7641 -74.9264 30.7454 -74.9202C30.7391 -74.9139 30.7329 -74.9139 30.7266 -74.9139C30.7141 -74.9077 30.7079 -74.8889 30.6954 -74.8827C30.6767 -74.8639 30.6579 -74.8514 30.6455 -74.8265C30.633 -74.8077 30.6267 -74.789 30.6142 -74.7702C30.608 -74.7515 30.5955 -74.7265 30.5893 -74.7078C30.583 -74.6828 30.583 -74.664 30.583 -74.639C30.583 -74.6203 30.5768 -74.6078 30.5768 -74.5953C30.5768 -74.5891 30.583 -74.5828 30.583 -74.5828C30.5893 -74.5328 30.608 -74.4766 30.6392 -74.4329V-74.4266L42.4094 -58.2453C42.4094 -58.239 42.4156 -58.239 42.4219 -58.239C42.4531 -58.1953 42.4968 -58.1578 42.5467 -58.1391H42.553C42.6029 -58.1141 42.6591 -58.1078 42.7153 -58.1141C42.7278 -58.1141 42.7466 -58.1203 42.759 -58.1203C42.8028 -58.1266 42.8402 -58.1453 42.8777 -58.1641C42.8839 -58.1703 42.8964 -58.1703 42.9027 -58.1766C42.9089 -58.1828 42.9089 -58.1828 42.9151 -58.1891C42.9339 -58.2016 42.9464 -58.2203 42.9651 -58.2453C42.9776 -58.264 42.9963 -58.2828 43.0026 -58.3015C43.0026 -58.3078 43.0088 -58.3078 43.0151 -58.314L43.908 -60.2195L49.9398 -51.929C50.8202 -50.7232 51.1699 -49.2487 50.9388 -47.7805C50.7078 -46.3186 49.921 -45.0378 48.7222 -44.1757C47.5108 -43.301 46.031 -42.9511 44.5511 -43.1948L10.1647 -48.7739H10.1585H10.1398C10.1273 -48.7739 10.121 -48.7739 10.1085 -48.7739C10.0711 -48.7739 10.0399 -48.7802 10.0086 -48.7677C9.99615 -48.7614 9.98366 -48.7552 9.96493 -48.7552C9.93995 -48.7427 9.90873 -48.7364 9.88376 -48.7177C9.86502 -48.7052 9.84629 -48.6864 9.8338 -48.6677C9.82131 -48.6552 9.80883 -48.649 9.79634 -48.6302C6.96775 -44.7879 4.38269 -40.7082 2.10358 -36.5099L0.867248 -37.0659C0.692413 -37.1471 0.480113 -37.0659 0.398939 -36.891L-0.768711 -34.2795L-5.00222 -31.1244C-5.00847 -31.1182 -5.00847 -31.1119 -5.01471 -31.1119C-5.03344 -31.0994 -5.04593 -31.0807 -5.06466 -31.0619C-5.07715 -31.0432 -5.09589 -31.0245 -5.10213 -31.0057C-5.10213 -30.9995 -5.10837 -30.9995 -5.11462 -30.9932C-5.12086 -30.9807 -5.12086 -30.962 -5.12711 -30.9495C-5.13335 -30.9245 -5.13959 -30.9057 -5.14584 -30.8808C-5.14584 -30.8558 -5.14584 -30.837 -5.14584 -30.812C-5.14584 -30.787 -5.13959 -30.7683 -5.13335 -30.7496C-5.12711 -30.7246 -5.11462 -30.7058 -5.10213 -30.6871C-5.09589 -30.6746 -5.08964 -30.6558 -5.0834 -30.6433C-5.07715 -30.6371 -5.07715 -30.6371 -5.07091 -30.6309C-5.03969 -30.5871 -4.99598 -30.5559 -4.94603 -30.5309L13.3492 -22.334C13.3992 -22.309 13.4554 -22.3028 13.5116 -22.309C13.5178 -22.309 13.5241 -22.309 13.5303 -22.309C13.5491 -22.309 13.5615 -22.3215 13.574 -22.3215C13.599 -22.3278 13.624 -22.334 13.6427 -22.3403C13.6614 -22.3528 13.6802 -22.3653 13.6989 -22.3778C13.7176 -22.3903 13.7364 -22.4027 13.7489 -22.4215C13.7676 -22.4402 13.7801 -22.459 13.7926 -22.4777C13.7988 -22.4902 13.8113 -22.5027 13.8176 -22.5152C13.8176 -22.5215 13.8176 -22.5277 13.8238 -22.5339C13.83 -22.5527 13.8363 -22.5777 13.8363 -22.6027C13.8425 -22.6277 13.8425 -22.6527 13.8425 -22.6714C13.8425 -22.6776 13.8425 -22.6839 13.8425 -22.6901L13.6552 -24.7893L14.3296 -24.4894L14.3358 -24.4832L23.0214 -20.5909C24.3888 -19.9787 25.4316 -18.8791 25.9686 -17.4859C26.5056 -16.0989 26.4681 -14.587 25.8562 -13.2312C25.2505 -11.8755 24.1516 -10.8447 22.7591 -10.3136L-9.76649 1.98168C-9.78522 1.98793 -9.79771 2.00043 -9.8102 2.00668C-9.82893 2.01917 -9.8539 2.03167 -9.87264 2.04416C-9.89137 2.05666 -9.90386 2.0754 -9.91635 2.09414C-9.92883 2.11289 -9.94132 2.12538 -9.95381 2.15037C-9.9663 2.17536 -9.97254 2.20035 -9.97879 2.22534C-9.98503 2.24408 -9.99128 2.25658 -9.99128 2.27532C-10.5033 7.02351 -10.6844 11.8529 -10.547 16.6323L-11.8895 16.7635C-11.902 16.7635 -11.9082 16.7698 -11.9145 16.7698C-11.9519 16.776 -11.9894 16.7823 -12.0206 16.801C-12.0393 16.8135 -12.0518 16.826 -12.0706 16.8385C-12.0893 16.851 -12.1143 16.8635 -12.1268 16.8885C-12.1455 16.9135 -12.158 16.9447 -12.1705 16.9697C-12.1767 16.9822 -12.183 16.9947 -12.1892 17.0072C-12.2017 17.0509 -12.2079 17.1009 -12.2017 17.1509L-11.902 20.006L-13.9688 24.8542C-13.9688 24.8604 -13.9688 24.8667 -13.975 24.8729C-13.9813 24.8917 -13.9875 24.9167 -13.9875 24.9417C-13.9938 24.9604 -14 24.9854 -14 25.0104C-14 25.0166 -14 25.0229 -14 25.0291C-14 25.0416 -13.9938 25.0479 -13.9875 25.0541C-13.9813 25.0979 -13.9625 25.1353 -13.9438 25.1728C-13.9376 25.1853 -13.9313 25.1978 -13.9188 25.2103C-13.8876 25.254 -13.8439 25.2915 -13.7939 25.3103H-13.7877C-13.7377 25.3353 -13.6815 25.3353 -13.6316 25.3353C-13.6254 25.3353 -13.6254 25.3353 -13.6191 25.3353L6.28714 23.3485H6.29339C6.34959 23.3423 6.39954 23.3235 6.44325 23.2923C6.44949 23.2923 6.45573 23.2923 6.45573 23.286C6.46822 23.2798 6.47447 23.2611 6.48696 23.2548C6.50569 23.2361 6.52442 23.2236 6.53691 23.2048C6.5494 23.1861 6.56188 23.1673 6.56813 23.1424C6.57437 23.1236 6.58686 23.1049 6.59311 23.0799C6.60559 23.0674 6.60559 23.0424 6.60559 23.0174C6.60559 23.0049 6.61184 22.9862 6.61184 22.9737C6.61184 22.9674 6.60559 22.9612 6.60559 22.9549C6.59935 22.9299 6.59311 22.9112 6.58686 22.8862C6.58062 22.8612 6.56813 22.8425 6.55564 22.8175C6.5494 22.8112 6.5494 22.805 6.5494 22.7987L5.33804 21.0681L6.07484 20.9932L15.5347 20.0498C17.0208 19.8998 18.4819 20.3372 19.6371 21.2806C20.8047 22.2239 21.529 23.5672 21.6851 25.0479C21.835 26.5223 21.4042 27.9593 20.4738 29.1088L-1.45556 55.986C-1.46805 55.9985 -1.46805 56.011 -1.4743 56.0298C-1.48679 56.0548 -1.50552 56.0735 -1.51176 56.0985C-1.51801 56.1172 -1.51801 56.1422 -1.52425 56.161C-1.53049 56.186 -1.53049 56.2047 -1.53049 56.2297C-1.53049 56.2547 -1.52425 56.2734 -1.51801 56.2984C-1.51176 56.3172 -1.51176 56.3359 -1.50552 56.3484C0.436404 60.728 2.70302 65.0138 5.22564 69.0935L4.13292 69.8807C4.09546 69.912 4.05799 69.9432 4.03926 69.9869C4.03302 69.9994 4.03302 70.0119 4.02677 70.0244C4.01429 70.0557 4.0018 70.0807 3.99555 70.1119C3.98931 70.1369 3.99555 70.1619 3.99555 70.1869C3.99555 70.2056 3.99555 70.2306 3.99555 70.2493C4.0018 70.2868 4.02053 70.3181 4.03926 70.3493C4.0455 70.3556 4.0455 70.3681 4.05175 70.3743L5.74391 72.7047L6.39329 77.9464C6.39329 77.9527 6.39954 77.9526 6.39954 77.9589C6.40578 78.0089 6.42451 78.0651 6.45573 78.1088C6.4932 78.1588 6.53691 78.1963 6.59311 78.2213C6.6493 78.2463 6.71174 78.2525 6.77419 78.2463H6.78043C6.83663 78.24 6.88658 78.215 6.93029 78.1901C6.93653 78.1901 6.94278 78.1901 6.94278 78.1838L23.1338 66.5445C23.14 66.5383 23.14 66.532 23.1463 66.532C23.165 66.5195 23.1775 66.5008 23.19 66.482C23.2025 66.4633 23.2212 66.4446 23.2337 66.4258C23.2337 66.4196 23.2399 66.4195 23.2462 66.4133C23.2524 66.4008 23.2524 66.3821 23.2587 66.3696C23.2649 66.3446 23.2711 66.3258 23.2774 66.3008C23.2774 66.2759 23.2774 66.2571 23.2774 66.2321C23.2774 66.2134 23.2711 66.1884 23.2649 66.1697C23.2587 66.1447 23.2462 66.1259 23.2337 66.1009C23.2274 66.0884 23.2274 66.0759 23.215 66.0634C23.2087 66.0572 23.2087 66.0572 23.2025 66.0509C23.19 66.0322 23.1712 66.0197 23.1463 66.001C23.1275 65.9885 23.1088 65.9697 23.0901 65.9572C23.0838 65.9572 23.0838 65.951 23.0776 65.9447L21.1606 65.0451L29.4466 59.0849C30.633 58.2289 32.1503 57.8728 33.6052 58.1102C36.6461 58.6038 38.7378 61.4715 38.257 64.5015L32.8184 98.7697C32.8184 98.7759 32.8247 98.7822 32.8184 98.7884C32.8122 98.8572 32.8247 98.9259 32.8496 98.9821C32.8496 98.9884 32.8496 98.9946 32.8559 98.9946C32.8808 99.0383 32.9121 99.0758 32.9558 99.1071C36.8334 101.943 40.942 104.536 45.1693 106.829L44.6198 108.054C44.5386 108.229 44.6198 108.441 44.7946 108.522L47.4234 109.703L50.6141 113.933C50.6141 113.939 50.6204 113.939 50.6266 113.939C50.6579 113.983 50.7016 114.014 50.7515 114.039C50.8077 114.064 50.8577 114.07 50.9139 114.064C50.9264 114.064 50.9451 114.058 50.9576 114.058C51.0013 114.051 51.045 114.033 51.0825 114.008C51.0887 114.001 51.1012 114.001 51.1074 113.995C51.1137 113.989 51.1137 113.983 51.1199 113.983C51.1387 113.97 51.1511 113.951 51.1636 113.933C51.1761 113.914 51.1949 113.895 51.2073 113.876C51.2073 113.87 51.2136 113.87 51.2198 113.864L59.3559 95.6896C59.3559 95.6834 59.3559 95.6771 59.3622 95.6709C59.3684 95.6459 59.3746 95.6271 59.3809 95.6021C59.3871 95.5772 59.3871 95.5584 59.3871 95.5334C59.3871 95.5272 59.3871 95.5209 59.3871 95.5147C59.3871 95.4959 59.3746 95.4834 59.3746 95.471C59.3684 95.446 59.3622 95.421 59.3559 95.4022C59.3497 95.3835 59.3372 95.3648 59.3247 95.346C59.3122 95.3273 59.2997 95.3085 59.281 95.2898C59.2623 95.2773 59.2435 95.2648 59.2248 95.2523C59.2123 95.246 59.1998 95.2273 59.1811 95.2211C59.1748 95.2211 59.1686 95.221 59.1623 95.2148C59.1436 95.2085 59.1186 95.2023 59.0999 95.2023C59.0749 95.1961 59.05 95.1961 59.0312 95.1961C59.025 95.1961 59.0187 95.1961 59.0125 95.1961L56.902 95.371L61.0668 86.062C61.6725 84.7063 62.7714 83.6755 64.1639 83.1444C67.0424 82.0573 70.2831 83.513 71.3883 86.3807L83.8953 118.856C83.9015 118.868 83.9078 118.875 83.914 118.887C83.9203 118.9 83.9265 118.912 83.939 118.924C83.9765 118.981 84.0202 119.024 84.0826 119.056C84.1138 119.068 84.1513 119.081 84.1888 119.087C88.9593 119.624 93.811 119.83 98.6127 119.718L98.7563 121.061C98.7626 121.117 98.7875 121.167 98.8125 121.211C98.8187 121.217 98.8187 121.23 98.8187 121.236C98.8562 121.286 98.9062 121.324 98.9561 121.349C99.0123 121.374 99.0685 121.386 99.1372 121.38L102.003 121.092L106.886 123.179C106.936 123.204 106.992 123.204 107.048 123.204C107.055 123.204 107.055 123.204 107.061 123.204C107.073 123.204 107.086 123.192 107.105 123.192C107.13 123.185 107.155 123.179 107.18 123.167C107.198 123.154 107.217 123.142 107.236 123.129C107.255 123.117 107.273 123.104 107.286 123.085C107.305 123.067 107.317 123.048 107.329 123.023C107.336 123.01 107.348 122.998 107.354 122.985C107.354 122.979 107.354 122.973 107.361 122.967C107.373 122.942 107.373 122.91 107.379 122.879C107.379 122.86 107.386 122.848 107.386 122.836C107.386 122.829 107.392 122.817 107.386 122.811L105.288 102.974C105.288 102.968 105.281 102.962 105.281 102.956C105.275 102.931 105.269 102.912 105.263 102.893C105.256 102.868 105.244 102.849 105.231 102.824C105.231 102.818 105.225 102.812 105.225 102.812C105.219 102.799 105.2 102.793 105.194 102.781C105.175 102.762 105.157 102.743 105.138 102.724C105.119 102.712 105.107 102.706 105.088 102.699C105.063 102.687 105.044 102.681 105.019 102.674C105 102.668 104.975 102.668 104.957 102.668C104.938 102.668 104.919 102.662 104.907 102.662C104.901 102.662 104.894 102.668 104.888 102.668C104.863 102.674 104.844 102.681 104.826 102.687C104.801 102.693 104.782 102.699 104.757 102.718C104.751 102.718 104.744 102.724 104.738 102.724L103.002 103.93L101.928 93.7654C101.772 92.2847 102.203 90.8415 103.14 89.6919C105.075 87.3178 108.603 86.968 111.001 88.911L138.107 110.896C138.132 110.915 138.157 110.934 138.188 110.946C138.25 110.971 138.319 110.978 138.388 110.965C138.406 110.965 138.419 110.959 138.431 110.959C138.444 110.953 138.456 110.959 138.475 110.953C142.865 109.041 147.154 106.804 151.244 104.318L152.044 105.411C152.081 105.461 152.131 105.498 152.187 105.523C152.243 105.548 152.306 105.561 152.362 105.555C152.368 105.555 152.375 105.548 152.387 105.548C152.437 105.542 152.493 105.523 152.537 105.492L154.866 103.818L160.117 103.199H160.124C160.18 103.193 160.23 103.168 160.273 103.137C160.28 103.137 160.286 103.137 160.286 103.131C160.298 103.124 160.305 103.106 160.317 103.099C160.336 103.081 160.355 103.068 160.367 103.043C160.38 103.024 160.386 103.006 160.398 102.987C160.411 102.968 160.417 102.943 160.423 102.924C160.429 102.899 160.429 102.881 160.429 102.856C160.429 102.837 160.436 102.824 160.436 102.812C160.436 102.806 160.429 102.799 160.429 102.793C160.423 102.768 160.417 102.749 160.404 102.724C160.398 102.699 160.386 102.681 160.373 102.662C160.367 102.656 160.367 102.649 160.367 102.643L148.591 86.4557C148.584 86.4494 148.584 86.4494 148.578 86.4432C148.566 86.4244 148.547 86.4119 148.528 86.3932C148.509 86.3807 148.491 86.3619 148.472 86.3494C148.466 86.3494 148.466 86.3432 148.459 86.3369C148.453 86.3369 148.441 86.3369 148.435 86.3307C148.328 86.287 148.203 86.2932 148.104 86.3682C148.097 86.3744 148.091 86.3869 148.085 86.3932C148.072 86.3994 148.066 86.4119 148.06 86.4182C148.041 86.4432 148.016 86.4619 148.004 86.4869C148.004 86.4931 147.997 86.4931 147.991 86.4994L147.098 88.4049L146.661 87.8051L141.066 80.1143C140.186 78.9085 139.836 77.4341 140.067 75.9659C140.298 74.504 141.085 73.2232 142.284 72.361C143.495 71.4864 144.975 71.1365 146.455 71.3802L180.891 76.978C180.898 76.978 180.898 76.978 180.904 76.978C180.941 76.9843 180.973 76.978 181.01 76.9718C181.016 76.9718 181.029 76.9718 181.035 76.9718C181.079 76.9593 181.116 76.9405 181.147 76.9218C181.16 76.9155 181.166 76.9031 181.179 76.8906C181.197 76.8718 181.216 76.8593 181.229 76.8406C184.057 72.992 186.642 68.9186 188.921 64.7202L190.158 65.2762C190.333 65.3575 190.545 65.2763 190.626 65.1013L191.794 62.4898L196.027 59.3348C196.033 59.3285 196.033 59.3223 196.04 59.3223C196.058 59.3098 196.071 59.291 196.09 59.2723C196.071 59.2473 196.083 59.2286 196.096 59.2098ZM185.119 62.2587L186.037 60.2032L191.013 62.4336L190.095 64.489L185.119 62.2587ZM182.84 61.2403L183.758 59.1848L185.393 59.9158L184.476 61.9713L182.84 61.2403ZM177.22 58.7225L178.138 56.667L183.114 58.8974L182.196 60.9529L177.22 58.7225ZM177.894 51.419L185.031 54.6178L183.402 58.2539L178.294 55.9673L177.894 51.419ZM185.681 59.2785L184.045 58.5476L185.674 54.9115L187.31 55.6424L185.681 59.2785ZM191.432 61.8526L186.324 59.5659L187.954 55.9298L195.091 59.1286L191.432 61.8526ZM177.607 56.1422L176.439 58.7537C176.358 58.9287 176.439 59.1411 176.614 59.2223L182.989 62.0775C180.473 66.6632 177.563 71.0803 174.348 75.2099L163.383 73.4294C168.69 67.3942 173.155 60.6842 176.664 53.4558L177.401 53.7869L177.607 56.1422ZM189.733 12.0466L188.459 12.1715L188.222 9.92865L193.636 9.39135L193.873 11.6342L189.733 12.0466ZM185.375 5.49285L193.142 4.71814L193.561 8.69162L188.004 9.24766L185.375 5.49285ZM195.621 4.46824L196.04 8.44172L194.26 8.61665L193.842 4.64317L195.621 4.46824ZM201.154 10.9033L197.057 11.3094L196.82 9.06648L202.234 8.52919L202.471 10.7721L201.154 10.9033ZM202.303 7.81696L196.745 8.373L196.327 4.39951L204.095 3.62481L202.303 7.81696ZM194.572 11.5593L194.335 9.31638L196.115 9.14145L196.352 11.3843L195.434 11.4781L194.572 11.5593ZM196.776 12.0528L200.841 11.6467C200.979 16.3075 200.798 21.0119 200.311 25.6414L195.003 27.6469C195.678 22.5238 195.959 17.3133 195.827 12.1465L196.776 12.0528ZM187.491 9.74122L187.791 12.5964C187.797 12.6526 187.822 12.7026 187.847 12.7463C187.854 12.7526 187.854 12.7651 187.854 12.7713C187.891 12.8213 187.941 12.8588 187.991 12.8838C188.047 12.9088 188.103 12.9213 188.172 12.915L189.796 12.7526L195.109 12.2215C195.234 17.4633 194.947 22.7425 194.241 27.9343L183.882 31.8453C185.437 23.9608 185.924 15.9076 185.319 7.87943L186.118 7.79821L187.491 9.74122ZM175.827 -34.6043L174.791 -33.8609L173.461 -35.6914L177.863 -38.8527L179.193 -37.0222L175.827 -34.6043ZM168.765 -38.128L175.078 -42.67L177.438 -39.4275L172.924 -36.1787L168.765 -38.128ZM177.101 -44.1194L179.462 -40.8769L178.013 -39.8398L175.653 -43.0823L177.101 -44.1194ZM183.989 -49.0738L184.551 -44.538L180.03 -41.2893L177.669 -44.5318L183.989 -49.0738ZM185.112 -41.283L181.778 -38.8839L180.448 -40.7145L184.85 -43.8758L186.18 -42.0452L185.112 -41.283ZM179.874 -40.3084L181.204 -38.4779L180.454 -37.9406L179.755 -37.4408L178.425 -39.2713L179.874 -40.3084ZM181.909 -38.1092L185.219 -40.4833C187.673 -36.4974 189.883 -32.324 191.787 -28.0568L188.21 -23.671C186.224 -28.4567 183.845 -33.1237 181.141 -37.5532L181.909 -38.1092ZM172.73 -35.4915L174.423 -33.1611C174.46 -33.1112 174.51 -33.0737 174.566 -33.0487C174.622 -33.0237 174.685 -33.0112 174.741 -33.0174C174.747 -33.0174 174.753 -33.0237 174.766 -33.0237C174.816 -33.0299 174.872 -33.0487 174.916 -33.0799L176.24 -34.0296L180.561 -37.1346C183.302 -32.6426 185.706 -27.9131 187.704 -23.0525L180.723 -14.4995C178.107 -22.1216 174.479 -29.3626 169.933 -36.035L170.582 -36.4974L172.73 -35.4915ZM137.801 -67.9728L140.011 -72.9084L142.084 -71.9775L140.392 -68.204L139.874 -67.0419L137.801 -67.9728ZM132.531 -67.7542L135.703 -74.8452L139.368 -73.2021L137.101 -68.1353L132.531 -67.7542ZM139.655 -73.8393L135.99 -75.4825L136.714 -77.1068L140.38 -75.4637L139.655 -73.8393ZM141.029 -75.1701L143.102 -74.2392L142.727 -73.3958L142.378 -72.6148L140.305 -73.5457L141.029 -75.1701ZM145.069 -78.65L145.056 -78.625L143.383 -74.8889L141.31 -75.8198L143.52 -80.7554L145.593 -79.8245L145.069 -78.65ZM140.673 -76.1072L137.008 -77.7503L140.18 -84.8414L142.94 -81.1803L140.673 -76.1072ZM143.883 -74.2767L145.543 -77.9878C149.665 -75.7511 153.667 -73.2208 157.457 -70.4656L156.571 -64.8803C152.449 -68.0478 148.054 -70.9155 143.495 -73.4145L143.883 -74.2767ZM137.276 -67.4355L139.905 -66.2547C140.08 -66.1735 140.292 -66.2547 140.373 -66.4297L141.035 -67.9166L143.208 -72.7647C147.829 -70.2282 152.281 -67.3106 156.446 -64.0868L154.716 -53.1847C148.628 -58.5014 141.866 -62.9872 134.585 -66.5171L134.91 -67.2419L137.276 -67.4355ZM106.53 -90.2081L108.572 -84.9164C103.421 -85.6161 98.1881 -85.9222 92.9992 -85.8223L92.8993 -86.7719L92.4685 -90.8203C97.1453 -90.9203 101.872 -90.7204 106.53 -90.2081ZM92.9305 -79.7496L93.0679 -78.4813L90.8138 -78.2564L90.2456 -83.6481L92.4997 -83.873L92.9305 -79.7496ZM86.3742 -75.4387L85.5562 -83.1795L89.5462 -83.5794L90.1332 -78.044L86.3742 -75.4387ZM85.2877 -85.6536L89.2777 -86.0534L89.4651 -84.2791L85.4751 -83.8793L85.2877 -85.6536ZM84.3948 -94.0878L88.6159 -92.2823L89.2028 -86.7469L85.2128 -86.3471L84.3948 -94.0878ZM91.5881 -92.4385L92.1563 -87.0468L89.9021 -86.8219L89.3339 -92.2136L91.5881 -92.4385ZM89.9833 -86.1221L92.2374 -86.3471L92.3374 -85.4287L92.4248 -84.579L90.1706 -84.3541L89.9833 -86.1221ZM90.6265 -77.5317L93.4925 -77.8191C93.505 -77.8191 93.5112 -77.8253 93.5175 -77.8253C93.555 -77.8316 93.5924 -77.8378 93.6236 -77.8566C93.6424 -77.8628 93.6549 -77.8815 93.6673 -77.894C93.6861 -77.9128 93.7111 -77.9253 93.7298 -77.944C93.7485 -77.969 93.761 -77.994 93.7735 -78.0252C93.7797 -78.0377 93.7922 -78.0502 93.7922 -78.0627C93.8047 -78.1065 93.811 -78.1564 93.8047 -78.2064L93.6299 -79.8245L93.1553 -84.2978L93.0679 -85.1163C98.3255 -85.2162 103.633 -84.8976 108.853 -84.1666L112.837 -73.8331C104.913 -75.42 96.8206 -75.951 88.7657 -75.3887L88.6845 -76.1822L90.6265 -77.5317ZM36.5961 -67.4668L39.8368 -69.7971L40.8921 -68.3477L37.6514 -66.0173L36.5961 -67.4668ZM31.5883 -74.3516L36.1403 -74.8889L39.4247 -70.3719L36.184 -68.0416L31.5883 -74.3516ZM38.6254 -76.5008L39.3872 -75.4512L41.8287 -72.0963L39.9991 -70.778L36.7959 -75.1763L38.6254 -76.5008ZM41.3104 -67.7854L44.5948 -63.2684L42.6591 -59.1387L38.0635 -65.455L41.3104 -67.7854ZM45.0819 -63.7932L41.8786 -68.1915L43.7082 -69.5097L46.9114 -65.1114L45.0819 -63.7932ZM41.4665 -68.7663L40.4113 -70.2157L42.2408 -71.534L42.7903 -70.7843L43.296 -70.0908L41.4665 -68.7663ZM43.1712 -71.4465L42.6029 -72.2275L40.199 -75.5324C44.1827 -77.9565 48.3663 -80.1369 52.6372 -82.005L57.0643 -78.4126C52.2751 -76.4571 47.6045 -74.1205 43.1712 -71.4465ZM45.2817 -63.0685L47.6107 -64.7428C47.6482 -64.7741 47.6794 -64.8053 47.7044 -64.849C47.7106 -64.8615 47.7169 -64.8803 47.7231 -64.8928C47.7356 -64.9177 47.7481 -64.949 47.7543 -64.974C47.7606 -64.999 47.7543 -65.024 47.7543 -65.0489C47.7543 -65.0677 47.7543 -65.0864 47.7543 -65.1052C47.7481 -65.1427 47.7294 -65.1739 47.7106 -65.2051C47.7044 -65.2114 47.7044 -65.2239 47.6981 -65.2301L44.0828 -70.2032L43.5958 -70.8717C48.0853 -73.5769 52.8246 -75.9448 57.695 -77.9065L66.3181 -70.9092C58.6753 -68.3414 51.4259 -64.7741 44.7572 -60.2758L44.2826 -60.9255L45.2817 -63.0685ZM13.1057 -23.2087L5.96869 -26.4075L7.59841 -30.0436L12.7061 -27.757L13.1057 -23.2087ZM2.0911 -35.7539L2.11607 -35.7414L5.88128 -34.0545L4.96339 -31.9991L-0.0131728 -34.2295L0.904714 -36.2849L2.0911 -35.7539ZM-0.431529 -33.6484L4.67616 -31.3618L3.04645 -27.7257L-4.09058 -30.9245L-0.431529 -33.6484ZM5.31306 -31.0682L6.94902 -30.3372L5.31931 -26.7011L3.68335 -27.4321L5.31306 -31.0682ZM12.856 -28.4629L7.87939 -30.6933L8.79728 -32.7488L13.7738 -30.5184L12.856 -28.4629ZM7.24249 -30.9807L5.60653 -31.7117L6.52442 -33.7672L7.37362 -33.386L8.16038 -33.0299L7.24249 -30.9807ZM7.36738 -34.1608L6.4932 -34.5544L2.75922 -36.2287C4.98212 -40.3209 7.4985 -44.2944 10.2459 -48.0492L15.8656 -47.137C12.7061 -43.0449 9.84629 -38.684 7.36738 -34.1608ZM13.393 -27.9381L14.5606 -30.5496C14.6418 -30.7246 14.5606 -30.937 14.3858 -31.0182L8.76606 -33.536L8.00428 -33.8734C10.5269 -38.4591 13.4304 -42.8762 16.6461 -47.0058L27.6108 -45.2253C22.3033 -39.1963 17.8388 -32.4801 14.3296 -25.2517L13.5928 -25.5828L13.393 -27.9381ZM1.26063 16.1638L2.53443 16.0388L2.77171 18.2817L-2.64195 18.819L-2.87922 16.5761L1.26063 16.1638ZM5.62527 22.7175L-2.14242 23.4922L-2.56077 19.5187L2.99649 18.9627L5.62527 22.7175ZM-4.62133 23.7359L-5.03969 19.7624L-3.26011 19.5875L-2.84176 23.5609L-4.62133 23.7359ZM-10.1599 17.3008C-10.1536 17.3008 -10.1536 17.3008 -10.1599 17.3008L-6.05748 16.8885L-5.8202 19.1314L-11.2339 19.6687L-11.4711 17.4258L-10.1599 17.3008ZM-11.3025 20.3934L-5.74527 19.8374L-5.32692 23.8108L-13.0946 24.5855L-11.3025 20.3934ZM-3.57232 16.6448L-3.33504 18.8877L-5.11462 19.0627L-5.35189 16.8198L-4.43401 16.7261L-3.57232 16.6448ZM-5.77649 16.1575L-9.84142 16.5636C-9.97879 11.9029 -9.79771 7.19844 -9.31067 2.56896L-4.00316 0.563481C-4.67753 5.68652 -4.95852 10.897 -4.82739 16.0638L-5.77649 16.1575ZM3.50851 18.4629L3.20879 15.6077C3.20255 15.5765 3.19006 15.5515 3.18382 15.5203C3.17757 15.5078 3.17757 15.489 3.17133 15.4703C3.16508 15.4578 3.1526 15.4453 3.14011 15.4328C3.12138 15.4078 3.10889 15.3828 3.08391 15.3703C3.07142 15.3578 3.04645 15.3516 3.03396 15.3453C3.00898 15.3328 2.99025 15.3203 2.96527 15.3078C2.9403 15.3016 2.91532 15.3016 2.89034 15.3016C2.86537 15.3016 2.84663 15.2953 2.82166 15.2953L1.19819 15.4578L-3.29134 15.9076L-4.1218 15.9888C-4.24669 10.7471 -3.95946 5.46785 -3.25387 0.276087L7.10512 -3.63492C5.55034 4.24957 5.0633 12.3027 5.66898 20.3309L4.86973 20.4121L3.50851 18.4629ZM15.1725 62.8147L16.2091 62.0712L17.539 63.9018L13.1369 67.0631L11.8069 65.2325L15.1725 62.8147ZM22.2284 66.3383L15.9156 70.8804L13.5553 67.6378L18.0698 64.3891L22.2284 66.3383ZM13.8987 72.3236L11.5384 69.081L12.9871 68.0439L15.3474 71.2864L13.8987 72.3236ZM7.01146 77.2779L6.44949 72.7421L10.9702 69.4934L13.3305 72.7359L7.01146 77.2779ZM5.88752 69.4871L9.22188 67.0881L10.5519 68.9186L6.14977 72.0799L4.81978 70.2493L5.88752 69.4871ZM11.1263 68.5125L9.79634 66.682L10.5456 66.1447L11.245 65.6449L12.575 67.4754L11.1263 68.5125ZM9.09075 66.3134L5.78137 68.6874C3.32743 64.7077 1.11701 60.5281 -0.787443 56.2609L2.79044 51.8751C4.77607 56.6608 7.14883 61.3278 9.85878 65.7573L9.09075 66.3134ZM18.2696 63.6956L16.5775 61.3715C16.5712 61.359 16.5587 61.3527 16.5462 61.3465C16.5213 61.3215 16.5025 61.2965 16.4713 61.2778C16.4651 61.2715 16.4588 61.2715 16.4526 61.2715C16.4151 61.2528 16.3839 61.2403 16.3402 61.234C16.3277 61.234 16.3152 61.234 16.2965 61.234C16.2652 61.234 16.234 61.2278 16.2028 61.2403C16.1903 61.2465 16.1778 61.2528 16.1653 61.259C16.1341 61.2715 16.1091 61.2778 16.0779 61.2965L14.7542 62.2462L10.4332 65.3512C7.69207 60.8592 5.28809 56.1297 3.28997 51.2691L10.2709 42.7161C12.8872 50.3382 16.515 57.5792 21.0607 64.2516L20.4113 64.714L18.2696 63.6956ZM53.1992 96.1769L50.9888 101.113L48.9157 100.182L50.6079 96.4081L51.1262 95.246L53.1992 96.1769ZM58.4692 95.9583L55.2972 103.049L51.6319 101.406L53.8986 96.3394L58.4692 95.9583ZM51.3385 102.043L55.0038 103.687L54.2794 105.311L50.6141 103.668L51.3385 102.043ZM49.971 103.38L47.898 102.45L48.2726 101.606L48.6223 100.825L50.6953 101.756L49.971 103.38ZM45.9248 106.86L45.9373 106.835L47.6107 103.099L49.6838 104.03L47.4734 108.966L45.4003 108.035L45.9248 106.86ZM50.3269 104.311L53.9922 105.954L50.8202 113.045L48.0541 109.384L50.3269 104.311ZM47.1112 102.487L45.4503 106.198C41.3291 103.961 37.3267 101.431 33.5365 98.676L34.4231 93.0906C38.5443 96.2582 42.9339 99.1258 47.4983 101.625L47.1112 102.487ZM53.7237 95.6396L51.0949 94.4588C50.9201 94.3776 50.7078 94.4588 50.6266 94.6338L49.9648 96.1207L47.7918 100.969C43.1712 98.4323 38.7191 95.5147 34.5543 92.2909L36.2839 81.3888C42.3719 86.7055 49.1343 91.1913 56.4149 94.7212L56.0902 95.446L53.7237 95.6396ZM98.0695 107.954L97.9383 106.685L100.192 106.46L100.761 111.852L98.5065 112.077L98.0695 107.954ZM104.626 103.643L105.444 111.384L101.454 111.783L100.867 106.248L104.626 103.643ZM105.706 113.858L101.716 114.258L101.529 112.489L105.519 112.09L105.706 113.858ZM106.605 122.298L102.384 120.493L101.797 114.957L105.787 114.557L106.605 122.298ZM99.4119 120.643L99.2746 119.362L98.8375 115.251L101.092 115.026L101.66 120.418L99.4119 120.643ZM101.017 114.326L98.7626 114.551L98.6626 113.633L98.5752 112.783L100.829 112.558L101.017 114.326ZM98.0008 114.026L98.1007 114.976L98.5315 119.024C93.8484 119.131 89.1216 118.931 84.4698 118.418L82.4279 113.127C87.5793 113.82 92.8119 114.126 98.0008 114.026ZM100.374 105.736L97.5075 106.023C97.495 106.023 97.4888 106.029 97.4763 106.029C97.4388 106.036 97.4013 106.042 97.3701 106.061C97.3514 106.073 97.3389 106.086 97.3202 106.098C97.3014 106.111 97.2765 106.123 97.264 106.148C97.2452 106.173 97.2327 106.204 97.2203 106.229C97.214 106.242 97.2078 106.254 97.2015 106.267C97.189 106.311 97.1828 106.361 97.189 106.411L97.3576 108.029L97.9196 113.32C92.6558 113.42 87.3483 113.102 82.1345 112.371L78.157 102.037C86.0807 103.624 94.1731 104.155 102.228 103.593L102.309 104.386L100.374 105.736ZM144.838 94.3526L144.082 93.3155L145.912 91.9973L149.115 96.3956L147.286 97.7138L144.838 94.3526ZM154.404 95.6771L151.163 98.0075L150.108 96.558L153.349 94.2277L154.404 95.6771ZM159.412 102.562L154.86 103.093L151.575 98.576L154.816 96.2456L159.412 102.562ZM152.375 104.705L151.594 103.637L149.171 100.307L151.001 98.9884L154.204 103.387L152.375 104.705ZM149.69 95.9895L146.405 91.4725L148.341 87.3428L152.937 93.6591L149.69 95.9895ZM149.533 96.9704L150.589 98.4198L148.759 99.7381L148.21 98.9884L147.704 98.2949L149.533 96.9704ZM147.829 99.6569L148.397 100.438L150.801 103.743C146.817 106.167 142.634 108.347 138.363 110.215L133.936 106.623C138.725 104.661 143.396 102.325 147.829 99.6569ZM145.718 91.2788L143.389 92.9532C143.352 92.9844 143.314 93.0156 143.296 93.0594C143.289 93.0719 143.289 93.0844 143.283 93.0969C143.271 93.1281 143.258 93.1531 143.252 93.1843C143.246 93.2093 143.252 93.2343 143.252 93.2593C143.252 93.278 143.252 93.303 143.252 93.3218C143.258 93.3593 143.277 93.3905 143.296 93.4217C143.302 93.428 143.302 93.4405 143.308 93.4467L144.27 94.7712L147.41 99.0883C142.915 101.794 138.175 104.161 133.311 106.123L124.682 99.1258C132.318 96.5643 139.574 92.9907 146.243 88.4924L146.717 89.1421L145.718 91.2788ZM141.834 71.7925C140.486 72.7734 139.593 74.2166 139.337 75.8597C139.075 77.5153 139.474 79.1709 140.461 80.5329L145.831 87.9176C139.093 92.4534 131.763 96.0457 124.039 98.601L111.419 88.3674C108.722 86.1808 104.751 86.5744 102.571 89.2546C101.516 90.5478 101.029 92.1847 101.204 93.8466L102.159 102.893C94.0295 103.455 85.856 102.912 77.8635 101.262L72.0377 86.1433C70.7951 82.9133 67.1486 81.2764 63.9079 82.5009C62.3406 83.0944 61.098 84.2627 60.4112 85.7872L56.7022 94.0777C49.3591 90.5166 42.5343 85.9746 36.415 80.5704L38.9501 64.6202C39.4934 61.2091 37.1456 57.9853 33.7176 57.423C32.0566 57.1543 30.3957 57.5417 29.0345 58.5226L21.6477 63.833C17.052 57.0981 13.4054 49.7822 10.8016 42.0726L21.0108 29.5649C22.066 28.2716 22.5531 26.6473 22.3782 24.9854C22.2034 23.311 21.3917 21.8054 20.0742 20.7433C18.7691 19.6812 17.1269 19.1939 15.4598 19.3563L6.37456 20.2622C5.76888 12.1653 6.27466 4.0309 7.87939 -3.92231L23.0276 -9.63887C24.5949 -10.2324 25.8375 -11.4007 26.5243 -12.9251C27.2049 -14.4495 27.2549 -16.1551 26.6492 -17.7233C26.0435 -19.2852 24.8696 -20.5285 23.3336 -21.2157L14.9852 -24.958C18.5256 -32.2552 23.0464 -39.0214 28.435 -45.0878L44.4699 -42.4826C46.1371 -42.2139 47.8043 -42.6075 49.1718 -43.5884C50.5205 -44.5693 51.4134 -46.0125 51.6694 -47.6556C51.9317 -49.305 51.532 -50.9668 50.5455 -52.3226L45.1755 -59.7072C51.9129 -64.243 59.2373 -67.8354 66.9675 -70.3907L79.5869 -60.1571C80.024 -59.801 80.4923 -59.5136 80.9855 -59.2949C83.5207 -58.1578 86.6053 -58.8013 88.4348 -61.038C89.49 -62.3375 89.9771 -63.9681 89.8022 -65.63L88.8469 -74.6765C96.9767 -75.2388 105.15 -74.6953 113.143 -73.0459L118.969 -57.9267C119.593 -56.3085 120.817 -55.0965 122.284 -54.4343C123.758 -53.772 125.475 -53.672 127.098 -54.2843C128.666 -54.8778 129.908 -56.0461 130.595 -57.5706L134.304 -65.8611C141.647 -62.3 148.472 -57.758 154.591 -52.3538L152.056 -36.4036C151.6 -33.5485 153.174 -30.8183 155.715 -29.6812C156.208 -29.4625 156.733 -29.3001 157.289 -29.2126C158.95 -28.944 160.611 -29.3313 161.972 -30.3122L169.359 -35.6227C173.948 -28.8878 177.601 -21.5718 180.205 -13.8623L169.995 -1.35454C168.94 -0.0612849 168.453 1.5631 168.628 3.21872C168.803 4.89308 169.621 6.39874 170.932 7.46708C171.369 7.8232 171.844 8.11059 172.343 8.3355C173.342 8.77908 174.435 8.96026 175.553 8.85406L184.638 7.94815C185.244 16.0451 184.744 24.1795 183.133 32.1327L167.985 37.8492C166.418 38.4427 165.175 39.611 164.488 41.1355C163.808 42.6599 163.758 44.3655 164.363 45.9336C164.969 47.5018 166.143 48.7388 167.679 49.4261L176.027 53.1684C172.487 60.4656 167.966 67.2318 162.577 73.2982L146.543 70.6929C144.863 70.418 143.196 70.8116 141.834 71.7925ZM180.754 76.2533L175.134 75.3411C178.294 71.2552 181.147 66.8944 183.633 62.3711L188.241 64.4391C186.024 68.525 183.508 72.4922 180.754 76.2533Z" fill="white"/>
<path d="M55.7466 105.186L49.234 102.268C49.1465 102.231 49.1028 102.125 49.1465 102.037C49.184 101.95 49.2902 101.906 49.3776 101.95L55.8902 104.867C55.9776 104.905 56.0213 105.011 55.9776 105.099C55.9401 105.186 55.8402 105.23 55.7466 105.186Z" fill="white"/>
<path d="M15.3034 73.0109C15.2784 72.9984 15.2534 72.9796 15.2347 72.9546L11.0449 67.1881C10.9887 67.1069 11.0074 67.0006 11.0823 66.9444C11.1635 66.8882 11.2697 66.9007 11.3259 66.9819L15.5157 72.7485C15.5719 72.8297 15.5531 72.9359 15.4782 72.9921C15.4283 73.0296 15.3596 73.0359 15.3034 73.0109Z" fill="white"/>
<path d="M195.271 10.5035C195.215 10.4785 195.178 10.4286 195.172 10.3598L194.422 3.29379C194.41 3.20008 194.485 3.11262 194.578 3.10012C194.672 3.08762 194.759 3.1626 194.772 3.25631L195.521 10.3224C195.534 10.4161 195.459 10.5035 195.365 10.516C195.328 10.5223 195.296 10.516 195.271 10.5035Z" fill="white"/>
<path d="M184.051 60.7343C183.963 60.6968 183.92 60.5906 183.963 60.5032L186.861 54.0306C186.898 53.9432 187.004 53.8994 187.092 53.9432C187.179 53.9807 187.223 54.0869 187.179 54.1743L184.282 60.6469C184.244 60.7343 184.138 60.7718 184.051 60.7343Z" fill="white"/>
<path d="M149.078 98.5073C149.053 98.4948 149.028 98.4761 149.009 98.4511C148.953 98.3699 148.971 98.2637 149.053 98.2074L154.816 94.0653C154.897 94.0091 155.003 94.0278 155.059 94.1028C155.116 94.184 155.097 94.2902 155.016 94.3464L149.252 98.4886C149.202 98.5261 149.134 98.5323 149.078 98.5073Z" fill="white"/>
<path d="M99.7364 113.714C99.6802 113.689 99.6365 113.633 99.6303 113.57C99.624 113.47 99.6927 113.389 99.7864 113.377L106.873 112.671C106.967 112.658 107.055 112.733 107.067 112.827C107.073 112.927 107.005 113.008 106.911 113.021L99.8238 113.727C99.7926 113.733 99.7614 113.727 99.7364 113.714Z" fill="white"/>
<path d="M197.882 60.1844L190.714 56.9732C190.626 56.9357 190.582 56.8295 190.626 56.742C190.664 56.6545 190.77 56.6108 190.857 56.6545L198.025 59.8658C198.113 59.9033 198.157 60.0095 198.113 60.097C198.075 60.1844 197.969 60.2219 197.882 60.1844ZM189.752 56.5358L188.79 56.1047C188.703 56.0673 188.659 55.9611 188.703 55.8736C188.74 55.7861 188.847 55.7424 188.934 55.7861L189.896 56.2172C189.983 56.2547 190.027 56.3609 189.983 56.4484C189.946 56.5358 189.839 56.5796 189.752 56.5358ZM187.823 55.6737L174.835 49.8509C174.747 49.8134 174.704 49.7072 174.747 49.6197C174.785 49.5323 174.891 49.4885 174.978 49.5323L187.966 55.355C188.054 55.3925 188.097 55.4987 188.054 55.5862C188.016 55.6737 187.91 55.7111 187.823 55.6737ZM173.873 49.4198L172.912 48.9887C172.824 48.9512 172.78 48.845 172.824 48.7576C172.862 48.6701 172.968 48.6264 173.055 48.6701L174.017 49.1012C174.104 49.1387 174.148 49.2449 174.104 49.3323C174.067 49.4198 173.961 49.4573 173.873 49.4198ZM171.944 48.5576L158.956 42.7349C158.869 42.6974 158.825 42.5912 158.869 42.5037C158.906 42.4162 159.012 42.3725 159.1 42.4162L172.087 48.239C172.175 48.2765 172.218 48.3827 172.175 48.4702C172.137 48.5576 172.031 48.5951 171.944 48.5576ZM157.988 42.3038L157.027 41.8727C156.939 41.8352 156.895 41.729 156.939 41.6415C156.977 41.5541 157.083 41.5103 157.17 41.5541L158.132 41.9851C158.219 42.0226 158.263 42.1288 158.219 42.2163C158.182 42.3038 158.076 42.3413 157.988 42.3038ZM156.059 41.4354L143.071 35.6126C142.984 35.5751 142.94 35.4689 142.984 35.3814C143.021 35.294 143.127 35.2502 143.215 35.294L156.202 41.1167C156.29 41.1542 156.333 41.2604 156.29 41.3479C156.252 41.4354 156.152 41.4791 156.059 41.4354ZM142.109 35.1877L141.148 34.7567C141.06 34.7192 141.017 34.613 141.06 34.5255C141.098 34.438 141.204 34.3943 141.291 34.438L142.253 34.8691C142.34 34.9066 142.384 35.0128 142.34 35.1003C142.303 35.1877 142.197 35.2252 142.109 35.1877ZM140.18 34.3193L127.192 28.4966C127.105 28.4591 127.061 28.3529 127.105 28.2654C127.142 28.1779 127.248 28.1342 127.336 28.1779L140.324 34.0007C140.411 34.0382 140.455 34.1444 140.411 34.2319C140.373 34.3193 140.267 34.3631 140.18 34.3193ZM126.224 28.0655L125.263 27.6344C125.175 27.5969 125.132 27.4907 125.175 27.4032C125.213 27.3158 125.319 27.272 125.406 27.3158L126.368 27.7468C126.455 27.7843 126.499 27.8905 126.455 27.978C126.418 28.0655 126.318 28.1092 126.224 28.0655ZM124.295 27.2033L111.307 21.3805C111.22 21.343 111.176 21.2368 111.22 21.1494C111.257 21.0619 111.363 21.0182 111.451 21.0619L124.438 26.8847C124.526 26.9222 124.57 27.0284 124.526 27.1158C124.488 27.2033 124.389 27.2408 124.295 27.2033ZM110.345 20.9494L109.384 20.5183C109.296 20.4809 109.253 20.3747 109.296 20.2872C109.334 20.1997 109.44 20.156 109.528 20.1997L110.489 20.6308C110.577 20.6683 110.62 20.7745 110.577 20.862C110.539 20.9494 110.433 20.9869 110.345 20.9494ZM108.416 20.0873L95.4283 14.2645C95.3409 14.227 95.2972 14.1208 95.3409 14.0333C95.3783 13.9459 95.4845 13.9021 95.5719 13.9459L108.56 19.7686C108.647 19.8061 108.691 19.9123 108.647 19.9998C108.61 20.0873 108.503 20.1248 108.416 20.0873Z" fill="white"/>
<path d="M95.4282 14.2646L82.4404 8.44183C82.353 8.40434 82.3093 8.29812 82.353 8.21066C82.3905 8.12319 82.4966 8.07946 82.5841 8.12319L95.5718 13.946C95.6592 13.9835 95.703 14.0897 95.6592 14.1771C95.6218 14.2646 95.5156 14.3021 95.4282 14.2646ZM81.4726 8.01074L80.511 7.57965C80.4236 7.54217 80.3799 7.43596 80.4236 7.34849C80.4611 7.26103 80.5672 7.21729 80.6546 7.26102L81.6162 7.69211C81.7036 7.72959 81.7474 7.83581 81.7036 7.92327C81.6662 8.01074 81.5663 8.04823 81.4726 8.01074ZM79.5432 7.14857L66.5554 1.32579C66.468 1.2883 66.4243 1.1821 66.468 1.09463C66.5055 1.00716 66.6116 0.963429 66.699 1.00716L79.6868 6.82994C79.7742 6.86743 79.8179 6.97363 79.7742 7.0611C79.7367 7.14857 79.6368 7.18605 79.5432 7.14857ZM65.5938 0.89471L64.6322 0.463623C64.5448 0.426138 64.5011 0.319922 64.5448 0.232455C64.5823 0.144989 64.6884 0.101256 64.7758 0.144989L65.7374 0.576076C65.8248 0.613562 65.8686 0.719777 65.8248 0.807244C65.7874 0.894711 65.6812 0.932196 65.5938 0.89471ZM63.6644 0.0262926L50.6766 -5.79649C50.5892 -5.83397 50.5455 -5.94018 50.5892 -6.02764C50.6267 -6.11511 50.7328 -6.15884 50.8202 -6.11511L63.808 -0.292342C63.8954 -0.254856 63.9391 -0.14864 63.8954 -0.0611736C63.858 0.026293 63.7518 0.0700259 63.6644 0.0262926ZM49.7088 -6.22757L48.7472 -6.65866C48.6598 -6.69615 48.6161 -6.80235 48.6598 -6.88982C48.6972 -6.97728 48.8034 -7.02102 48.8908 -6.97728L49.8524 -6.5462C49.9398 -6.50871 49.9835 -6.40251 49.9398 -6.31504C49.9024 -6.22757 49.8024 -6.18384 49.7088 -6.22757ZM47.7794 -7.08974L34.7916 -12.9125C34.7042 -12.95 34.6605 -13.0562 34.7042 -13.1437C34.7416 -13.2311 34.8478 -13.2749 34.9352 -13.2311L47.923 -7.40837C48.0104 -7.37089 48.0541 -7.26467 48.0104 -7.1772C47.9729 -7.08974 47.873 -7.05225 47.7794 -7.08974ZM33.83 -13.3436L32.8684 -13.7747C32.781 -13.8122 32.7373 -13.9184 32.781 -14.0058C32.8184 -14.0933 32.9246 -14.137 33.012 -14.0933L33.9736 -13.6622C34.061 -13.6247 34.1047 -13.5185 34.061 -13.4311C34.0236 -13.3436 33.9174 -13.2999 33.83 -13.3436ZM31.9006 -14.2058L18.9128 -20.0285C18.8254 -20.066 18.7817 -20.1722 18.8254 -20.2597C18.8628 -20.3472 18.969 -20.3909 19.0564 -20.3472L32.0442 -14.5244C32.1316 -14.4869 32.1753 -14.3807 32.1316 -14.2932C32.0941 -14.2058 31.988 -14.1683 31.9006 -14.2058ZM17.9512 -20.4596L16.9896 -20.8907C16.9022 -20.9282 16.8585 -21.0344 16.9022 -21.1219C16.9397 -21.2093 17.0458 -21.2531 17.1332 -21.2093L18.0948 -20.7783C18.1822 -20.7408 18.2259 -20.6346 18.1822 -20.5471C18.1385 -20.4596 18.0386 -20.4221 17.9512 -20.4596ZM16.0218 -21.3218L3.034 -27.1446C2.94658 -27.1821 2.90287 -27.2883 2.94658 -27.3757C2.98404 -27.4632 3.09019 -27.5069 3.17761 -27.4632L16.1654 -21.6404C16.2528 -21.6029 16.2965 -21.4967 16.2528 -21.4093C16.2153 -21.3218 16.1092 -21.2843 16.0218 -21.3218ZM2.06616 -27.5757L1.10457 -28.0067C1.01715 -28.0442 0.973438 -28.1504 1.01715 -28.2379C1.05461 -28.3254 1.16076 -28.3691 1.24818 -28.3254L2.20977 -27.8943C2.29719 -27.8568 2.3409 -27.7506 2.29719 -27.6631C2.25973 -27.5757 2.15358 -27.5382 2.06616 -27.5757Z" fill="white"/>
<path d="M53.4239 108.097C53.3365 108.06 53.2928 107.954 53.3365 107.866L53.5238 107.448C53.5613 107.36 53.6674 107.316 53.7548 107.36C53.8423 107.398 53.886 107.504 53.8423 107.591L53.6549 108.01C53.6175 108.097 53.5113 108.135 53.4239 108.097ZM54.0421 106.71C53.9547 106.673 53.9109 106.567 53.9547 106.479L59.7742 93.4842C59.8116 93.3967 59.9178 93.353 60.0052 93.3967C60.0926 93.4405 60.1363 93.5405 60.0926 93.6279L54.2731 106.623C54.2356 106.71 54.1295 106.754 54.0421 106.71ZM60.2924 92.7532C60.205 92.7158 60.1613 92.6095 60.205 92.5221L60.6359 91.5599C60.6733 91.4725 60.7795 91.4288 60.8669 91.4725C60.9543 91.51 60.998 91.6162 60.9543 91.7036L60.5235 92.6658C60.486 92.7532 60.3799 92.7907 60.2924 92.7532ZM61.1541 90.8227C61.0667 90.7852 61.023 90.679 61.0667 90.5916L66.8862 77.5965C66.9237 77.5091 67.0298 77.4653 67.1173 77.5091C67.2047 77.5466 67.2484 77.6528 67.2047 77.7402L61.3852 90.7353C61.3477 90.8227 61.2415 90.8602 61.1541 90.8227ZM67.4045 76.8593C67.3171 76.8218 67.2734 76.7156 67.3171 76.6282L67.7479 75.666C67.7854 75.5786 67.8915 75.5348 67.9789 75.5786C68.0664 75.6223 68.1101 75.7222 68.0664 75.8097L67.6355 76.7719C67.5981 76.8593 67.4919 76.903 67.4045 76.8593ZM68.2662 74.9288C68.1788 74.8913 68.135 74.7851 68.1788 74.6976L73.9983 61.7026C74.0357 61.6151 74.1419 61.5714 74.2293 61.6151C74.3167 61.6526 74.3604 61.7588 74.3167 61.8463L68.4972 74.8413C68.4597 74.9288 68.3598 74.9725 68.2662 74.9288ZM74.5165 60.9716C74.4291 60.9342 74.3854 60.8279 74.4291 60.7405L74.86 59.7783C74.8974 59.6909 75.0036 59.6472 75.091 59.6909C75.1784 59.7284 75.2221 59.8346 75.1784 59.922L74.7476 60.8842C74.7101 60.9716 74.6039 61.0091 74.5165 60.9716ZM75.3845 59.0411C75.297 59.0036 75.2533 58.8974 75.297 58.81L81.1166 45.8149C81.154 45.7275 81.2602 45.6837 81.3476 45.7275C81.435 45.765 81.4787 45.8712 81.435 45.9586L75.6155 58.9537C75.578 59.0411 75.4719 59.0786 75.3845 59.0411ZM81.6348 45.0777C81.5474 45.0402 81.5037 44.934 81.5474 44.8466L81.9783 43.8844C82.0157 43.797 82.1219 43.7532 82.2093 43.797C82.2967 43.8344 82.3404 43.9407 82.2967 44.0281L81.8659 44.9903C81.8221 45.0777 81.7222 45.1215 81.6348 45.0777ZM82.4965 43.1472C82.4091 43.1097 82.3654 43.0035 82.4091 42.916L88.2286 29.921C88.2661 29.8335 88.3722 29.7898 88.4596 29.8335C88.5471 29.871 88.5908 29.9772 88.5471 30.0647L82.7276 43.0597C82.6901 43.1472 82.5839 43.1909 82.4965 43.1472ZM88.7469 29.19C88.6595 29.1526 88.6158 29.0463 88.6595 28.9589L89.0903 27.9967C89.1278 27.9093 89.2339 27.8655 89.3213 27.9093C89.4088 27.9468 89.4525 28.053 89.4088 28.1404L88.9779 29.1026C88.9404 29.19 88.8343 29.2275 88.7469 29.19ZM89.6086 27.2595C89.5211 27.222 89.4774 27.1158 89.5211 27.0284L95.3407 14.0333C95.3781 13.9459 95.4843 13.9021 95.5717 13.9459C95.6591 13.9834 95.7028 14.0896 95.6591 14.177L89.8396 27.1721C89.8021 27.2595 89.696 27.297 89.6086 27.2595Z" fill="white"/>
<path d="M95.4283 14.2645C95.3409 14.227 95.2972 14.1208 95.3409 14.0333L101.16 1.03831C101.198 0.950846 101.304 0.907114 101.391 0.950847C101.479 0.988333 101.523 1.09454 101.479 1.18201L95.6593 14.177C95.6219 14.2645 95.5157 14.302 95.4283 14.2645ZM101.679 0.30109C101.591 0.263604 101.548 0.157398 101.591 0.0699312L102.022 -0.892197C102.06 -0.979664 102.166 -1.0234 102.253 -0.979663C102.341 -0.942178 102.384 -0.835971 102.341 -0.748505L101.91 0.213624C101.872 0.30109 101.766 0.344823 101.679 0.30109ZM102.54 -1.62942C102.453 -1.66691 102.409 -1.77311 102.453 -1.86058L108.272 -14.8556C108.31 -14.9431 108.416 -14.9868 108.503 -14.9431C108.591 -14.9056 108.635 -14.7994 108.591 -14.7119L102.771 -1.71689C102.734 -1.62317 102.628 -1.58569 102.54 -1.62942ZM108.791 -15.5866C108.703 -15.6241 108.66 -15.7303 108.703 -15.8177L109.134 -16.7799C109.172 -16.8673 109.278 -16.9111 109.365 -16.8673C109.453 -16.8299 109.496 -16.7237 109.453 -16.6362L109.022 -15.6741C108.984 -15.5866 108.878 -15.5491 108.791 -15.5866ZM109.652 -17.5171C109.565 -17.5546 109.521 -17.6608 109.565 -17.7483L115.385 -30.7433C115.422 -30.8308 115.528 -30.8745 115.616 -30.8308C115.703 -30.787 115.747 -30.6871 115.703 -30.5996L109.883 -17.6046C109.846 -17.5171 109.746 -17.4796 109.652 -17.5171ZM115.903 -31.4743C115.815 -31.5118 115.772 -31.618 115.815 -31.7054L116.246 -32.6676C116.284 -32.755 116.39 -32.7988 116.477 -32.755C116.565 -32.7175 116.608 -32.6113 116.565 -32.5239L116.134 -31.5617C116.096 -31.4743 115.996 -31.4368 115.903 -31.4743ZM116.771 -33.4048C116.683 -33.4423 116.64 -33.5485 116.683 -33.6359L122.503 -46.631C122.54 -46.7184 122.646 -46.7622 122.734 -46.7184C122.821 -46.6747 122.865 -46.5747 122.821 -46.4873L117.002 -33.4922C116.964 -33.4048 116.858 -33.3673 116.771 -33.4048ZM123.021 -47.3682C122.934 -47.4057 122.89 -47.5119 122.934 -47.5994L123.364 -48.5615C123.402 -48.649 123.508 -48.6927 123.596 -48.649C123.683 -48.6115 123.727 -48.5053 123.683 -48.4178L123.252 -47.4557C123.215 -47.3682 123.108 -47.3307 123.021 -47.3682ZM123.883 -49.2987C123.795 -49.3362 123.752 -49.4424 123.795 -49.5299L129.615 -62.5249C129.652 -62.6124 129.758 -62.6561 129.846 -62.6124C129.933 -62.5686 129.977 -62.4687 129.933 -62.3812L124.114 -49.3862C124.076 -49.2987 123.97 -49.2612 123.883 -49.2987ZM130.133 -63.2559C130.046 -63.2934 130.002 -63.3996 130.046 -63.487L130.477 -64.4492C130.514 -64.5366 130.62 -64.5804 130.708 -64.5366C130.795 -64.4991 130.839 -64.3929 130.795 -64.3055L130.364 -63.3433C130.327 -63.2559 130.221 -63.2184 130.133 -63.2559ZM130.995 -65.1864C130.907 -65.2239 130.864 -65.3301 130.907 -65.4175L136.727 -78.4126C136.764 -78.5 136.871 -78.5438 136.958 -78.5C137.045 -78.4563 137.089 -78.3564 137.045 -78.2689L131.226 -65.2739C131.188 -65.1864 131.082 -65.1489 130.995 -65.1864ZM137.245 -79.1498C137.158 -79.1873 137.114 -79.2935 137.158 -79.381L137.345 -79.7996C137.383 -79.887 137.489 -79.9308 137.576 -79.887C137.664 -79.8495 137.707 -79.7433 137.664 -79.6559L137.476 -79.2373C137.439 -79.1498 137.333 -79.1123 137.245 -79.1498Z" fill="white"/>
<path fill-rule="evenodd" clip-rule="evenodd" d="M60.7108 78.0901L60.0926 77.9776C60.0489 77.9714 59.999 77.9776 59.9615 78.0026C59.9365 78.0214 59.9303 78.0463 59.9178 78.0651C59.9053 78.0838 59.8928 78.0963 59.8866 78.1151C59.8803 78.1588 59.8928 78.2025 59.9116 78.24C59.9116 78.24 59.9116 78.2463 59.9116 78.2525L63.3084 83.1756L66.0058 88.4424C66.0246 88.4798 66.0558 88.5048 66.0932 88.5236C66.1432 88.5423 66.1931 88.5423 66.2431 88.5173C66.3305 88.4736 66.3617 88.3674 66.318 88.2799L63.6206 83.007L61.6162 77.3841C61.61 77.3654 61.5912 77.3591 61.5787 77.3404C61.56 77.3216 61.5538 77.2966 61.5288 77.2841H61.5225C61.4851 77.2654 61.4476 77.2716 61.4102 77.2779C61.4039 77.2779 61.3977 77.2716 61.3914 77.2779C61.3477 77.2904 61.3103 77.3216 61.2915 77.3654L61.0168 77.9276L59.8242 75.6035L55.6219 67.3942C55.5782 67.3067 55.472 67.2755 55.3846 67.3192C55.2972 67.3629 55.2659 67.4691 55.3097 67.5566L60.7108 78.0901Z" fill="white"/>
<path fill-rule="evenodd" clip-rule="evenodd" d="M68.8157 121.567L66.83 120.674L69.8522 115.776C69.8709 115.744 69.8709 115.713 69.8647 115.676C69.8647 115.663 69.8709 115.651 69.8709 115.638C69.8647 115.607 69.8397 115.582 69.8147 115.557C69.8085 115.551 69.8022 115.538 69.796 115.532C69.746 115.501 69.6961 115.501 69.6524 115.513L69.0529 115.651L78.8437 93.7841L79.1434 94.3339C79.1622 94.3714 79.1934 94.3964 79.2246 94.4089C79.2309 94.4089 79.2371 94.4151 79.2496 94.4151C79.2995 94.4276 79.3432 94.4214 79.3869 94.4026C79.3994 94.3964 79.3994 94.3839 79.4119 94.3776C79.4369 94.3589 79.4619 94.3339 79.4744 94.3027L81.1166 88.7798L83.1022 89.6732C83.1896 89.7107 83.2958 89.6732 83.3332 89.5857C83.3707 89.4983 83.3332 89.392 83.2458 89.3545L68.6533 82.8133C68.5659 82.7758 68.4597 82.8133 68.4223 82.9008C68.3848 82.9882 68.4223 83.0944 68.5097 83.1319L80.7419 88.6173L77.7198 93.5217C77.701 93.5529 77.701 93.5842 77.7073 93.6217C77.7073 93.6342 77.701 93.6467 77.701 93.6592C77.7135 93.7029 77.7385 93.7466 77.7822 93.7716C77.7885 93.7779 77.7947 93.7779 77.8009 93.7841C77.8322 93.7966 77.8759 93.8029 77.9133 93.7966L78.5253 93.6592L68.7345 115.526L68.4348 114.982C68.416 114.939 68.3786 114.907 68.3286 114.895C68.3224 114.895 68.3161 114.895 68.3161 114.895C68.2724 114.889 68.235 114.889 68.1975 114.907C68.185 114.914 68.185 114.926 68.1725 114.932C68.1475 114.951 68.1226 114.976 68.1101 115.007L66.4679 120.53L51.1386 113.658L59.1997 95.6459C59.2372 95.5584 59.1997 95.4522 59.1123 95.4147C59.0249 95.3773 58.9187 95.4147 58.8813 95.5022L44.4324 127.771L42.5841 126.94L56.496 95.8646L57.0455 94.64C57.083 94.5526 57.0455 94.4464 56.9581 94.4089C56.8707 94.3714 56.7645 94.4089 56.727 94.4963L56.1776 95.7209L42.2782 126.772L37.3391 123.735C37.3328 123.729 37.3203 123.735 37.3078 123.729C37.2766 123.716 37.2392 123.704 37.2079 123.71C37.158 123.723 37.1205 123.748 37.0955 123.791C37.0706 123.835 37.0643 123.879 37.0768 123.923L37.2204 124.529L34.8289 123.46L29.4777 121.061L30.0209 120.768C30.0584 120.749 30.0959 120.711 30.1084 120.661C30.1084 120.655 30.1084 120.649 30.1084 120.643C30.1146 120.605 30.1146 120.561 30.0959 120.53C30.0771 120.499 30.0459 120.48 30.0147 120.461C30.0085 120.455 30.0022 120.449 29.9897 120.443L24.4387 118.775L30.4768 105.292L31.9504 105.411L31.607 107.56C31.5945 107.641 31.6382 107.716 31.7069 107.748C31.7193 107.754 31.7381 107.76 31.7506 107.76C31.8442 107.773 31.9379 107.71 31.9504 107.616L33.3366 98.8759C33.3366 98.8572 33.3303 98.8447 33.3241 98.8322C33.3241 98.8072 33.3178 98.7884 33.3116 98.7697C33.2991 98.751 33.2866 98.7385 33.2679 98.7197C33.2554 98.7072 33.2492 98.6947 33.2367 98.6885C33.2304 98.6822 33.2179 98.6885 33.2117 98.6885C33.2054 98.6885 33.1992 98.676 33.193 98.676C33.1742 98.676 33.1617 98.6822 33.1493 98.6885C33.1243 98.6885 33.1055 98.6947 33.0868 98.701C33.0681 98.7135 33.0556 98.726 33.0369 98.7447C33.0244 98.7572 33.0119 98.7635 33.0056 98.776L30.458 104.468L26.5492 103.093C26.4743 103.068 26.3994 103.106 26.3556 103.168C26.3494 103.181 26.3307 103.187 26.3244 103.206C26.3057 103.249 26.3119 103.299 26.3307 103.337C26.3307 103.337 26.3307 103.337 26.3307 103.343L26.5867 103.862C16.0903 101.05 6.73663 95.3023 -0.500303 87.2054L0.105376 87.1929C0.11162 87.1929 0.11162 87.1866 0.117865 87.1866C0.161573 87.1804 0.199038 87.1679 0.230259 87.1367C0.273968 87.0929 0.280211 87.0304 0.261479 86.9742C0.255235 86.943 0.248991 86.9117 0.224015 86.8868L-3.9533 82.8883L20.5674 65.2638C20.6485 65.2075 20.6673 65.0951 20.6111 65.0201C20.5549 64.9389 20.4425 64.9201 20.3675 64.9826L-4.32795 82.7321L-6.25114 84.1128C-6.33231 84.169 -6.35104 84.2815 -6.29485 84.3565C-6.27611 84.3814 -6.25114 84.4002 -6.22616 84.4127C-6.16996 84.4377 -6.10128 84.4314 -6.05133 84.394L-4.28424 83.1257L-1.27457 88.08C-1.25584 88.1113 -1.22462 88.1363 -1.1934 88.1488C-1.18716 88.155 -1.17467 88.155 -1.16218 88.1613C-1.11223 88.1738 -1.06852 88.1613 -1.03105 88.1425C-1.00608 88.13 -0.999833 88.105 -0.987345 88.08C-0.974857 88.0613 -0.956124 88.055 -0.94988 88.0301L-0.793777 87.4115C4.4825 93.328 10.8827 98.0012 18.0322 101.206C20.7672 102.431 23.6082 103.437 26.5367 104.224L26.0559 104.642C26.0247 104.674 26.006 104.711 25.9997 104.749C25.9997 104.755 25.9935 104.755 25.9935 104.761V104.767C25.9935 104.811 26.006 104.849 26.031 104.88C26.031 104.886 26.031 104.886 26.0372 104.892C26.0559 104.911 26.0747 104.93 26.0996 104.936C26.1184 104.942 26.1371 104.949 26.1558 104.949L30.0959 105.261L23.065 120.974C23.0275 121.061 23.065 121.167 23.1524 121.205C23.2398 121.242 23.346 121.205 23.3834 121.117L24.2701 119.143L29.2092 122.18C29.2155 122.186 29.2217 122.186 29.2279 122.192C29.2592 122.205 29.3029 122.211 29.3403 122.205C29.3403 122.205 29.3403 122.204 29.3466 122.198C29.3903 122.186 29.4278 122.161 29.4527 122.123C29.4777 122.08 29.484 122.036 29.4715 121.992L29.3279 121.386L34.6791 123.785L37.0706 124.853L36.5273 125.147C36.4899 125.166 36.4524 125.203 36.4399 125.253C36.4274 125.297 36.4337 125.341 36.4524 125.385V125.391C36.4711 125.428 36.5023 125.453 36.5336 125.466C36.5398 125.472 36.5461 125.472 36.5523 125.472L42.1033 127.14L41.2167 129.114C41.1792 129.202 41.2167 129.308 41.3041 129.346C41.3915 129.383 41.4976 129.346 41.5351 129.258L42.428 127.259L44.2763 128.09L43.3834 130.089C43.3459 130.176 43.3834 130.283 43.4708 130.32C43.5582 130.358 43.6643 130.32 43.7018 130.233L44.5822 128.258L49.5213 131.295C49.5276 131.301 49.5338 131.301 49.5401 131.307C49.5713 131.32 49.615 131.326 49.6525 131.32C49.6525 131.32 49.6525 131.32 49.6587 131.314C49.7024 131.301 49.7399 131.276 49.7649 131.239C49.7836 131.207 49.7773 131.176 49.7773 131.145C49.7773 131.132 49.7898 131.12 49.7836 131.107L49.64 130.501L52.0315 131.57L57.4514 134C57.5388 134.037 57.6449 134 57.6824 133.913C57.7199 133.825 57.6824 133.719 57.595 133.681L52.1751 131.251L49.7836 130.183L50.3331 129.889C50.3456 129.883 50.3456 129.864 50.358 129.858C50.383 129.839 50.408 129.82 50.4205 129.783C50.433 129.739 50.4267 129.689 50.408 129.652C50.3893 129.614 50.358 129.595 50.3206 129.583C50.3143 129.577 50.3081 129.57 50.3018 129.564L44.7508 127.896L50.9762 113.983L68.6596 121.911C68.747 121.948 68.8531 121.911 68.8906 121.823C68.9468 121.711 68.9031 121.611 68.8157 121.567ZM32.7746 100.113L32.0003 104.999L30.7827 104.567L32.7746 100.113Z" fill="white"/>
</g>
</g>
</g>
<defs>
<clipPath id="clip0">
<rect width="1440" height="720" fill="white"/>
</clipPath>
<clipPath id="clip1">
<rect x="-14" y="-95" width="219" height="229" fill="white"/>
</clipPath>
</defs>
</svg>
