<svg width="32" height="32" viewBox="0 0 32 32" fill="none" xmlns="http://www.w3.org/2000/svg">
<circle cx="16" cy="16" r="15.4" fill="white" stroke="#333333" stroke-width="1.2"/>
<path d="M7.99994 8.65869H13.6382V11.3175H7.99994V8.65869Z" fill="#333333"/>
<path d="M24.9398 8.65869V11.3175H19.3016H19.2932V8.65869H19.3016H24.9398Z" fill="#333333"/>
<path d="M15.9672 16.9878H16.9642V18.6485H15.9672V16.9878Z" fill="#333333"/>
<path d="M17.626 21.3072C16.7045 21.3072 15.9672 20.5607 15.9672 19.6465H16.9642C16.9642 20.0155 17.2658 20.3091 17.6344 20.3091H21.9406C22.8621 20.3091 23.5994 21.0556 23.5994 21.9698C23.5994 22.884 22.8537 23.6305 21.9406 23.6305H11.3259C10.9573 23.6305 10.6641 23.9241 10.6641 24.2931C10.6641 24.6622 10.9573 24.9558 11.3259 24.9558H15.9672C16.8888 24.9558 17.626 25.7022 17.626 26.6165V26.952H16.6291V26.6165C16.6291 26.2474 16.3275 25.9539 15.9588 25.9539H11.3176C10.396 25.9539 9.65875 25.2074 9.65875 24.2931C9.65875 23.3705 10.4044 22.6324 11.3176 22.6324H21.9322C22.3008 22.6324 22.594 22.3305 22.594 21.9698C22.594 21.6008 22.2924 21.3072 21.9322 21.3072H17.626Z" fill="#333333"/>
<path d="M16.629 18.984H16.2939C16.1096 18.984 15.9588 18.833 15.9588 18.6485C15.9588 18.464 16.1096 18.313 16.2939 18.313H16.629C16.8133 18.313 16.9641 18.464 16.9641 18.6485C16.9641 18.833 16.8133 18.984 16.629 18.984Z" fill="#333333"/>
<path d="M19.2932 6.3355C19.2932 6.15097 19.1424 6 18.9581 6H13.965C13.7807 6 13.6299 6.15097 13.6299 6.3355C13.6299 6.34388 13.6299 6.34388 13.6299 6.35227V8.66722V11.326V14.6559L15.6322 16.9876H15.9589H16.9558H17.2909L19.2932 14.6559V11.326V8.66722V6.3355Z" fill="#333333"/>
</svg>
