<svg width="18" height="18" viewBox="0 0 18 18" fill="none" xmlns="http://www.w3.org/2000/svg">
<path d="M9 5.73423e-09C6.61305 5.73423e-09 4.32386 0.948211 2.63604 2.63604C0.948211 4.32386 0 6.61305 0 9C0 11.3869 0.948211 13.6761 2.63604 15.364C4.32386 17.0518 6.61305 18 9 18C11.0538 18.0081 13.0471 17.3056 14.642 16.0115C16.0933 14.8438 17.1465 13.2545 17.6563 11.4629C18.1662 9.67127 18.1075 7.76558 17.4884 6.00871C16.8694 4.25184 15.7204 2.73035 14.2 1.65411C12.6796 0.577878 10.8628 -6.64717e-05 9 5.73423e-09ZM8.9998 3.15171C9.57813 3.15171 10.1435 3.3232 10.6244 3.64451C11.1052 3.96582 11.48 4.4225 11.7013 4.95682C11.9227 5.49113 11.9806 6.07908 11.8677 6.64631C11.7549 7.21353 11.4764 7.73456 11.0675 8.14351C10.6585 8.55246 10.1375 8.83096 9.57027 8.94378C9.00305 9.05661 8.4151 8.99871 7.88079 8.77739C7.34647 8.55607 6.88978 8.18127 6.56847 7.7004C6.24717 7.21953 6.07567 6.65418 6.07567 6.07584C6.07567 5.30031 6.38375 4.55655 6.93213 4.00817C7.48051 3.45979 8.22427 3.15171 8.9998 3.15171ZM14.7668 14.2516C14.4959 14.5487 14.2026 14.8246 13.8895 15.0768C12.3428 16.3236 10.3783 16.9326 8.39754 16.7792C6.41681 16.6258 4.56948 15.7217 3.23321 14.2516C3.10427 14.1103 2.98277 13.9638 2.86535 13.8146C3.34411 11.8316 5.90706 10.316 9.00001 10.316C12.091 10.316 14.6552 11.8314 15.1345 13.8142C15.0172 13.9635 14.8957 14.1102 14.7668 14.2516Z" fill="white"/>
</svg>
