<svg width="32" height="32" viewBox="0 0 32 32" fill="none" xmlns="http://www.w3.org/2000/svg">
<circle cx="16" cy="16" r="15.4" fill="white" stroke="#333333" stroke-width="1.2"/>
<g clip-path="url(#clip0)">
<path d="M19.8031 6H13.1506V13.6993H19.8031V6Z" fill="#333333"/>
<path d="M18.274 13.083H14.6805V19.8691H18.274V13.083Z" fill="#333333"/>
<path d="M20.2933 14.7315H12.6608C12.297 14.7315 12 14.442 12 14.0707V10.6554C12 10.2916 12.297 9.99463 12.6608 9.99463H20.2933C20.6571 9.99463 20.9541 10.2916 20.9541 10.6554V14.0707C20.9541 14.442 20.6571 14.7315 20.2933 14.7315Z" fill="#333333"/>
<path d="M18.957 20.0695H13.9973C13.4479 20.0695 13.0024 19.624 13.0024 19.0746V16.6839C13.0024 16.1344 13.4479 15.689 13.9973 15.689H18.9644C19.5138 15.689 19.9593 16.1344 19.9593 16.6839V19.0746C19.9519 19.624 19.5064 20.0695 18.957 20.0695Z" fill="#333333"/>
<path d="M18.3407 21.0423H14.6878L14.1755 19.2529H18.7788L18.3407 21.0423Z" fill="#333333"/>
<path d="M15.638 20.4854V26.0612L16.477 26.9299L17.3085 26.0612V20.4854H15.638Z" fill="#333333"/>
</g>
<defs>
<clipPath id="clip0">
<rect x="12" y="6" width="8.95409" height="20.93" fill="white"/>
</clipPath>
</defs>
</svg>
