<svg width="12" height="12" viewBox="0 0 12 12" fill="none" xmlns="http://www.w3.org/2000/svg">
<path d="M4.91183 5.51999H0.608159C0.27228 5.51999 0 5.24771 0 4.91183V0.608159C0 0.27228 0.27228 0 0.608159 0H4.91195C5.24771 0 5.51999 0.27228 5.51999 0.608159V4.91195C5.51999 5.24771 5.24771 5.51999 4.91183 5.51999Z" fill="white"/>
<path d="M11.3914 5.51999H7.08774C6.75186 5.51999 6.47958 5.24771 6.47958 4.91183V0.608159C6.47958 0.27228 6.75186 0 7.08774 0H11.3915C11.7273 0 11.9996 0.27228 11.9996 0.608159V4.91195C11.9996 5.24771 11.7273 5.51999 11.3914 5.51999Z" fill="white"/>
<path d="M4.91183 12H0.608159C0.27228 12 0 11.7277 0 11.3918V7.08814C0 6.75226 0.27228 6.47998 0.608159 6.47998H4.91195C5.24771 6.47998 5.51999 6.75226 5.51999 7.08814V11.3919C5.51999 11.7277 5.24771 12 4.91183 12Z" fill="white"/>
<path d="M11.3914 12H7.08774C6.75186 12 6.47958 11.7277 6.47958 11.3918V7.08814C6.47958 6.75226 6.75186 6.47998 7.08774 6.47998H11.3915C11.7274 6.47998 11.9997 6.75226 11.9997 7.08814V11.3919C11.9996 11.7277 11.7273 12 11.3914 12Z" fill="white"/>
</svg>
