<svg width="32" height="32" viewBox="0 0 32 32" fill="none" xmlns="http://www.w3.org/2000/svg">
<circle cx="16" cy="16" r="15.4" fill="white" stroke="#333333" stroke-width="1.2"/>
<path d="M25.9966 17.9487L18.4578 17.755C18.1675 17.7462 17.9388 17.5084 17.9388 17.2001V16.5132H16.76V21.2513H26.9818V18.3803L26.542 18.3626C26.2869 18.3626 26.067 18.1865 25.9966 17.9487Z" fill="#333333"/>
<path d="M26.7194 14.6636C26.6842 14.7517 26.6402 14.831 26.5874 14.8926C26.4731 15.0071 26.3323 15.0687 26.174 15.0776L18.7144 15.2713V17.0151L26.174 17.2088C26.3587 17.2176 26.5347 17.3057 26.6402 17.4554L26.6842 17.5347C26.6842 17.5435 26.693 17.5611 26.7018 17.5787L26.7194 17.6316L26.9921 17.6404V14.6372L26.7194 14.646C26.7194 14.6548 26.7194 14.6548 26.7194 14.6636Z" fill="#333333"/>
<path d="M16.76 15.7557H17.9388V15.06C17.9388 14.7605 18.1675 14.5139 18.4666 14.5051L26.0142 14.2849L26.0317 14.2409C26.0405 14.2321 26.0406 14.2145 26.0494 14.2057C26.0845 14.1528 26.1109 14.1088 26.1461 14.0736L26.2341 14.0031C26.2693 13.9767 26.3308 13.9415 26.3924 13.9239L26.4364 13.9151C26.454 13.9151 26.4716 13.9063 26.498 13.9063H26.5508L26.9994 13.8886V11.0176H16.7776V15.7557H16.76Z" fill="#333333"/>
<path d="M12.6004 13.9415V12.7438H8.94974V11H5V21.2689H8.94974V19.5251H12.6004V18.3274H14.8963L16.4006 16.1344L14.8963 13.9415H12.6004Z" fill="#333333"/>
</svg>
