<svg width="14" height="14" viewBox="0 0 14 14" fill="none" xmlns="http://www.w3.org/2000/svg">
<g clip-path="url(#clip0)">
<path d="M0.0382164 11.0888L0.0231641 4.72603C0.0224321 4.41295 0.342282 4.2013 0.630151 4.32435L6.42244 6.80046C6.58251 6.86888 6.68648 7.02599 6.68689 7.20005L6.70194 13.5628C6.70267 13.8759 6.38282 14.0875 6.09495 13.9645L0.302661 11.4884C0.142599 11.42 0.0386053 11.2628 0.0382164 11.0888ZM13.3095 5.02552L7.9643 7.34046L7.97821 13.2288L13.3235 10.9139L13.3095 5.02552ZM13.5258 4.2579C13.7556 4.25733 13.9617 4.44214 13.9623 4.69304L13.9774 11.0558C13.9778 11.2298 13.8745 11.3875 13.7148 11.4566L7.93431 13.9601C7.87728 13.9848 7.81885 13.9963 7.76196 13.9965C7.5322 13.997 7.32599 13.8122 7.32542 13.5613L7.31037 7.19859C7.30994 7.02452 7.4132 6.86689 7.57296 6.79773L13.3535 4.29427C13.4105 4.26954 13.4689 4.25804 13.5258 4.2579ZM6.95799 0.67406L1.41324 3.1498L6.96963 5.59922L12.5144 3.12351L6.95799 0.67406ZM6.95641 1.13329e-06C7.01662 -0.000136122 7.07688 0.0121939 7.1332 0.0370142L13.2274 2.72353C13.5731 2.87595 13.5742 3.36606 13.2293 3.52009L7.14784 6.23542C7.09165 6.26052 7.03145 6.27312 6.97121 6.27328C6.911 6.27342 6.85075 6.26109 6.79443 6.23627L0.700265 3.54976C0.354543 3.39736 0.353399 2.90722 0.698367 2.7532L6.77976 0.0378606C6.83597 0.0127658 6.89616 0.000138388 6.95641 1.13329e-06Z" fill="white"/>
</g>
<defs>
<clipPath id="clip0">
<rect width="14" height="14" fill="white"/>
</clipPath>
</defs>
</svg>
