<svg width="13" height="13" viewBox="0 0 13 13" fill="none" xmlns="http://www.w3.org/2000/svg">
<g clip-path="url(#clip0)">
<path d="M11.4547 12.3637C11.3432 12.3645 11.2335 12.336 11.1365 12.281L7.00015 9.91372L2.86379 12.281C2.76687 12.337 2.6569 12.3664 2.54498 12.3663C2.43306 12.3661 2.32314 12.3365 2.22633 12.2804C2.12951 12.2242 2.04922 12.1435 1.99355 12.0464C1.93788 11.9493 1.9088 11.8393 1.90925 11.7274V2.18191C1.90925 1.84436 2.04334 1.52064 2.28202 1.28195C2.5207 1.04327 2.84442 0.90918 3.18197 0.90918H10.8183C11.1559 0.90918 11.4796 1.04327 11.7183 1.28195C11.957 1.52064 12.0911 1.84436 12.0911 2.18191V11.7274C12.0911 11.8961 12.024 12.058 11.9047 12.1773C11.7853 12.2967 11.6235 12.3637 11.4547 12.3637Z" fill="white"/>
</g>
<defs>
<clipPath id="clip0">
<rect x="0.636414" y="0.272949" width="12.0909" height="12.0909" fill="white"/>
</clipPath>
</defs>
</svg>
