<svg width="32" height="32" viewBox="0 0 32 32" fill="none" xmlns="http://www.w3.org/2000/svg">
<circle cx="16" cy="16" r="15.4" fill="white" stroke="#333333" stroke-width="1.2"/>
<path d="M27.1676 14.237C27.0471 13.9771 26.7967 13.7914 26.5093 13.7914H20.2698L20.5294 13.5315C21.3916 12.6404 21.8644 11.4245 21.7903 10.1807C21.7161 8.93693 21.132 7.79524 20.1492 6.99699C18.3506 5.54899 15.7732 5.68822 14.1878 7.3497L6.9655 14.7939C5.76951 15.8427 5 17.3928 5 19.1007C5 22.2566 7.56814 24.8556 10.7482 24.8556H17.1546C17.34 24.8556 17.5255 24.7813 17.6645 24.6421L27.0192 15.0259C27.2139 14.7939 27.2603 14.4969 27.1676 14.237ZM16.8579 23.4354H10.7574C8.37473 23.4354 6.43705 21.4955 6.43705 19.11C6.43705 16.7245 8.37473 14.7846 10.7574 14.7846C12.2965 14.7846 13.5388 16.0469 13.5388 17.5692C13.5388 19.0914 12.2779 20.3538 10.7574 20.3538C10.0806 20.3538 9.5151 19.7876 9.5151 19.11C9.5151 18.4324 10.0806 17.8662 10.7574 17.8662C10.8316 17.8662 10.878 17.8662 10.9429 17.8941C11.3137 17.9869 11.7124 17.7548 11.7866 17.3557C11.8793 16.9844 11.6475 16.5853 11.2488 16.511C11.082 16.4646 10.9243 16.4646 10.7389 16.4646C9.26478 16.4646 8.07805 17.662 8.07805 19.1286C8.07805 20.6044 9.27405 21.7925 10.7389 21.7925C12.0462 21.7925 13.2143 21.1799 13.9839 20.2517L18.8698 15.2208H24.7849L16.8579 23.4354Z" fill="#333333"/>
</svg>
