<svg width="64" height="64" viewBox="0 0 64 64" fill="none" xmlns="http://www.w3.org/2000/svg">
<circle cx="32" cy="32" r="32" fill="#E6F4FD"/>
<path d="M48.2947 28.2105H46.4C45.68 28.2105 45.0737 27.7558 44.8084 27.0737C44.7326 26.8463 44.6189 26.6189 44.5432 26.4295C44.24 25.7853 44.3537 24.9895 44.8842 24.4968L46.2484 23.1326C46.9305 22.4505 46.9305 21.3895 46.2484 20.7074L43.2926 17.7516C42.6105 17.0695 41.5495 17.0695 40.8674 17.7516L39.5032 19.1158C39.0105 19.6084 38.2147 19.76 37.5705 19.4568C37.3432 19.3811 37.1537 19.2674 36.9263 19.1916C36.2442 18.9263 35.7895 18.32 35.7895 17.6V15.7053C35.7895 14.7579 35.0316 14 34.0842 14H29.9158C28.9684 14 28.2105 14.7579 28.2105 15.7053V17.6379C28.2105 18.3579 27.7558 19.0021 27.0737 19.2295C26.8463 19.3053 26.6568 19.3811 26.4295 19.4947C25.7853 19.7979 25.0274 19.6463 24.4968 19.1537L23.1326 17.7895C22.4505 17.1074 21.3895 17.1074 20.7074 17.7895L17.7516 20.7453C17.0695 21.4274 17.0695 22.4884 17.7516 23.1705L19.1158 24.5347C19.6084 25.0274 19.76 25.8232 19.4568 26.4674C19.3432 26.6947 19.2674 26.8842 19.1916 27.1116C18.9263 27.7937 18.32 28.2484 17.6 28.2484H15.7053C14.7579 28.2484 14 29.0063 14 29.9537V34.1221C14 35.0316 14.7579 35.7895 15.7053 35.7895H17.5621C18.2821 35.7895 18.9263 36.2442 19.1537 36.9263C19.2295 37.1537 19.3432 37.3811 19.4189 37.6084C19.7221 38.2526 19.5705 39.0105 19.0779 39.5411L17.7516 40.8674C17.0695 41.5495 17.0695 42.6105 17.7516 43.2926L20.7074 46.2484C21.3895 46.9305 22.4505 46.9305 23.1326 46.2484L24.4211 44.96C24.9137 44.4674 25.6716 44.3158 26.3158 44.6189C26.5811 44.7326 26.8463 44.8463 27.0737 44.96C27.7179 45.2253 28.1726 45.8316 28.1726 46.5516V48.2947C28.1726 49.2421 28.9305 50 29.8779 50H34.0463C34.9937 50 35.7516 49.2421 35.7516 48.2947V46.4379C35.7516 45.7558 36.1684 45.1116 36.8505 44.8463C37.1158 44.7326 37.3811 44.6568 37.6084 44.5053C38.2526 44.2021 39.0105 44.3537 39.5032 44.8463L40.7916 46.1347C41.4737 46.8168 42.5347 46.8168 43.2168 46.1347L46.1726 43.1789C46.8547 42.4968 46.8547 41.4358 46.1726 40.7537L44.8842 39.5032C44.3916 39.0105 44.24 38.2526 44.5432 37.5705C44.6568 37.3432 44.7326 37.1158 44.8084 36.8884C45.0737 36.2063 45.68 35.7516 46.4 35.7516H48.2947C49.2421 35.7516 50 34.9937 50 34.0463V29.8779C50 28.9684 49.2421 28.2105 48.2947 28.2105ZM32 38.6316C28.3242 38.6316 25.3684 35.6758 25.3684 32C25.3684 28.3242 28.3242 25.3684 32 25.3684C35.6758 25.3684 38.6316 28.3242 38.6316 32C38.6316 35.6758 35.6758 38.6316 32 38.6316Z" fill="#0B7EE8"/>
</svg>
