<svg width="64" height="64" viewBox="0 0 64 64" fill="none" xmlns="http://www.w3.org/2000/svg">
<circle cx="32" cy="32" r="32" fill="#FFF5C4"/>
<path d="M24.7008 35.0911C25.061 35.0911 25.4173 35.0796 25.7682 35.0569C28.0285 34.911 30.6641 34.2305 32.3037 32.7346C32.3348 32.7627 32.3693 32.7907 32.4015 32.8188V34.7868C32.3605 37.2062 29.064 39.0259 24.6969 39.0259C20.3187 39.0259 17.0165 37.1929 17 34.7598V32.6332C17.0337 32.6648 17.0751 32.6922 17.1098 32.7233C19.0486 34.4604 22.0868 35.0911 24.7008 35.0911ZM47.6157 21.6518C47.6157 21.6957 47.616 21.2989 47.6142 23.7685C47.6142 26.2111 44.3004 28.0529 39.9058 28.0529C35.5606 28.0529 32.2788 26.2467 32.2135 23.8405V21.687C35.6656 24.9074 44.1003 24.9605 47.6157 21.6518ZM17 38.1258C18.62 39.6473 21.3752 40.5911 24.6969 40.5911C28.022 40.5911 30.7797 39.6475 32.4015 38.1264V40.2742C32.3605 42.6936 29.064 44.5133 24.6969 44.5133C20.3187 44.5133 17.0165 42.6803 17 40.2472V38.1258ZM33.9667 39.3341C35.5809 40.1402 37.6602 40.593 39.899 40.593C43.2303 40.593 45.9932 39.6482 47.6157 38.1251V40.2331C47.6157 42.6734 44.3019 44.5137 39.9066 44.5137C37.5355 44.5137 35.4043 43.9682 33.9667 43.0171C33.9667 42.8963 33.9667 39.2553 33.9667 39.3341ZM39.899 39.0278C37.5328 39.0278 35.4041 38.4823 33.9667 37.5313C33.9667 37.4087 33.9667 33.7653 33.9667 33.8477C35.582 34.6542 37.664 35.1071 39.9066 35.1071C43.2343 35.1071 45.9943 34.1614 47.6157 32.6369V34.7468C47.6157 37.1875 44.2981 39.0278 39.899 39.0278ZM39.9066 33.5419C37.5334 33.5419 35.3995 32.9952 33.9667 32.0457C33.9216 30.1368 34.0581 29.1935 33.8621 28.307C35.4503 29.1361 37.5333 29.6182 39.9058 29.6182C43.2343 29.6182 45.9946 28.6728 47.6157 27.1488V29.2528C47.6157 31.6981 44.3019 33.5419 39.9066 33.5419ZM39.9066 14C44.2965 14 47.6073 15.8404 47.6073 18.2868C47.6012 20.7194 44.2904 22.5541 39.9066 22.5541C36.7983 22.5541 32.4402 21.4219 32.2112 18.4992C32.2051 18.4266 32.2059 18.3536 32.2059 18.281C32.2058 15.8404 35.5167 14 39.9066 14ZM24.7008 24.9722C27.2519 24.9722 29.5317 25.5954 30.9578 26.6838C32.8628 28.1288 32.9066 30.3382 30.9586 31.8223C29.5294 32.9049 27.2488 33.5259 24.7007 33.5259C20.3108 33.5259 17 31.6889 17 29.2528C17 26.8125 20.3108 24.9722 24.7008 24.9722ZM24.6931 50C20.307 50 17 48.1596 17 45.719V43.6132C18.62 45.1347 21.3752 46.0785 24.6969 46.0785C28.022 46.0785 30.7797 45.135 32.4015 43.6138C32.2573 45.0423 32.8041 46.2475 31.7022 47.5788C30.4786 49.0722 27.793 50 24.6931 50ZM39.9066 50C37.1155 50 34.6637 49.2468 33.3163 48.006C34.0482 46.8055 33.9495 45.7826 33.9667 44.8198C35.5819 45.626 37.6635 46.0789 39.9066 46.0789C43.2343 46.0789 45.9943 45.1346 47.6158 43.6122V45.719C47.6157 48.1596 44.3019 50 39.9066 50Z" fill="#FFB223"/>
</svg>
