<svg width="64" height="64" viewBox="0 0 64 64" fill="none" xmlns="http://www.w3.org/2000/svg">
<circle cx="32" cy="32" r="32" fill="#F4F4F4"/>
<g opacity="0.6">
<path d="M20 14V17.1409H21.8121H42.5906H44.4027V14H20Z" fill="#333333"/>
<path d="M21.8121 46.8591H20V50.0001H44.4027V46.8591H42.5906H21.8121Z" fill="#333333"/>
<path d="M42.5901 24.3893V18.7517H21.8115V24.3893C21.8115 24.8322 22.0129 25.2752 22.335 25.5571L29.7847 32L22.3753 38.443C22.0531 38.7249 21.8518 39.1678 21.8518 39.6108V45.2484H42.5901V39.6108C42.5901 39.1678 42.3887 38.7249 42.0666 38.443L34.5766 32L42.0263 25.5571C42.3484 25.2752 42.5498 24.8322 42.5901 24.3893Z" fill="#333333"/>
</g>
</svg>
