<svg width="64" height="64" viewBox="0 0 64 64" fill="none" xmlns="http://www.w3.org/2000/svg">
<circle cx="32" cy="32" r="32" fill="#FFF5C4"/>
<path d="M26.3075 22.3077H37.3844C38.1487 22.3077 38.769 21.6874 38.769 20.9231V16.7692C38.769 16.0049 38.1487 15.3846 37.3844 15.3846H34.2434C33.7643 14.5573 32.8692 14 31.8459 14C30.8227 14 29.9275 14.5573 29.4485 15.3846H26.3075C25.5432 15.3846 24.9229 16.0049 24.9229 16.7692V20.9231C24.9229 21.6874 25.5432 22.3077 26.3075 22.3077Z" fill="#FFB223"/>
<path d="M44.3077 18.1538H41.5385C40.7742 18.1538 40.1538 18.7741 40.1538 19.5384V23.6923H23.5385V19.5384C23.5385 18.7741 22.9182 18.1538 22.1538 18.1538H19.3846C18.6203 18.1538 18 18.7741 18 19.5384V48.6153C18 49.3797 18.6203 50 19.3846 50H44.3077C45.072 50 45.6923 49.3797 45.6923 48.6153V19.5384C45.6923 18.7741 45.072 18.1538 44.3077 18.1538ZM37.3846 41.6923H26.3077C25.5434 41.6923 24.9231 41.072 24.9231 40.3077C24.9231 39.5433 25.5434 38.923 26.3077 38.923H37.3846C38.1489 38.923 38.7692 39.5433 38.7692 40.3077C38.7692 41.072 38.1489 41.6923 37.3846 41.6923ZM37.3846 36.1538H26.3077C25.5434 36.1538 24.9231 35.5335 24.9231 34.7692C24.9231 34.0049 25.5434 33.3846 26.3077 33.3846H37.3846C38.1489 33.3846 38.7692 34.0049 38.7692 34.7692C38.7692 35.5335 38.1489 36.1538 37.3846 36.1538ZM37.3846 30.6153H26.3077C25.5434 30.6153 24.9231 29.995 24.9231 29.2307C24.9231 28.4664 25.5434 27.8461 26.3077 27.8461H37.3846C38.1489 27.8461 38.7692 28.4664 38.7692 29.2307C38.7692 29.995 38.1489 30.6153 37.3846 30.6153Z" fill="#FFB223"/>
</svg>
