<svg width="64" height="64" viewBox="0 0 64 64" fill="none" xmlns="http://www.w3.org/2000/svg">
<circle cx="32" cy="32" r="32" fill="#E6F4FD"/>
<path d="M42.5323 45.717C42.1104 45.7293 41.6912 45.647 41.3053 45.4761C40.9194 45.3052 40.5767 45.05 40.3024 44.7293C40.028 44.4087 39.829 44.0306 39.7199 43.6229C39.6108 43.2152 39.5944 42.7883 39.6719 42.3734C39.8232 41.4589 40.2876 40.6253 40.9857 40.0154C41.6837 39.4054 42.5721 39.057 43.4986 39.0298C43.9205 39.0174 44.3398 39.0997 44.7256 39.2707C45.1115 39.4416 45.4542 39.6967 45.7286 40.0174C46.0029 40.3381 46.202 40.7162 46.3111 41.1239C46.4202 41.5316 46.4366 41.9585 46.3591 42.3734C46.2077 43.288 45.7433 44.1215 45.0453 44.7314C44.3472 45.3413 43.4589 45.6897 42.5323 45.717ZM23.4311 42.3734C23.5086 41.9585 23.4922 41.5316 23.3831 41.1239C23.274 40.7162 23.0749 40.3381 22.8006 40.0175C22.5262 39.6968 22.1835 39.4416 21.7976 39.2707C21.4118 39.0998 20.9925 39.0174 20.5706 39.0298C19.6441 39.057 18.7557 39.4054 18.0577 40.0154C17.3596 40.6253 16.8952 41.4589 16.7439 42.3734C16.6664 42.7883 16.6828 43.2152 16.7919 43.6229C16.901 44.0306 17.1 44.4086 17.3744 44.7293C17.6487 45.05 17.9914 45.3052 18.3773 45.4761C18.7632 45.647 19.1825 45.7293 19.6043 45.717C20.5309 45.6897 21.4192 45.3413 22.1173 44.7314C22.8153 44.1215 23.2797 43.288 23.4311 42.3734V42.3734ZM11.4431 28.6715C11.4911 28.3393 11.6571 28.0356 11.9109 27.8159C12.1646 27.5962 12.489 27.4753 12.8246 27.4753H25.7436C25.9065 27.4753 26.0676 27.4411 26.2164 27.3749C26.3652 27.3087 26.4985 27.212 26.6075 27.091C26.7166 26.9701 26.7991 26.8276 26.8496 26.6727C26.9002 26.5179 26.9176 26.3542 26.9009 26.1922C26.8604 25.8985 26.7133 25.6299 26.4878 25.4376C26.2622 25.2452 25.9738 25.1424 25.6774 25.1488L16.279 25.1059C16.0955 25.1062 15.9137 25.0704 15.7441 25.0004C15.5744 24.9304 15.4202 24.8276 15.2903 24.6979C15.1605 24.5683 15.0574 24.4143 14.9871 24.2448C14.9168 24.0752 14.8806 23.8935 14.8806 23.71C14.8806 23.5265 14.9168 23.3448 14.9871 23.1752C15.0574 23.0057 15.1605 22.8517 15.2903 22.7221C15.4202 22.5924 15.5744 22.4897 15.7441 22.4197C15.9137 22.3497 16.0955 22.3138 16.279 22.3141L31.3271 22.357C31.49 22.357 31.6511 22.3228 31.7999 22.2566C31.9487 22.1905 32.082 22.0938 32.1911 21.9728C32.3001 21.8519 32.3826 21.7094 32.4332 21.5545C32.4837 21.3997 32.5011 21.2359 32.4844 21.0739C32.4439 20.7803 32.2969 20.5117 32.0713 20.3193C31.8457 20.127 31.5573 20.0242 31.2609 20.0306H16.124L16.2663 19.0451C16.3524 18.525 16.6166 18.0509 17.0136 17.704C17.4106 17.3571 17.9158 17.159 18.4428 17.1435H41.5799C41.8198 17.1365 42.0583 17.1833 42.2777 17.2805C42.4972 17.3777 42.6921 17.5228 42.8482 17.7052C43.0042 17.8876 43.1174 18.1026 43.1794 18.3345C43.2415 18.5664 43.2508 18.8092 43.2068 19.0451L42.5122 23.8512H47.5016C47.9692 23.8528 48.4254 23.9959 48.8101 24.2618C49.1948 24.5276 49.49 24.9037 49.6568 25.3406L52.2602 32.1216C52.5474 32.8696 52.638 33.6788 52.5234 34.4718L51.6412 40.5765C51.5792 40.951 51.3891 41.2924 51.1032 41.5422C50.8173 41.792 50.4535 41.9346 50.074 41.9458H48.1096C48.1611 41.383 48.0994 40.8156 47.928 40.2771C47.7566 39.7385 47.479 39.2398 47.1116 38.8104C46.7442 38.381 46.2945 38.0295 45.789 37.7768C45.2835 37.524 44.7325 37.3752 44.1685 37.339C41.4232 37.104 38.6816 39.1665 38.045 41.9458H25.182C25.2339 41.3826 25.1724 40.8147 25.001 40.2758C24.8296 39.7368 24.5519 39.2376 24.1842 38.8079C23.8165 38.3781 23.3664 38.0265 22.8605 37.7737C22.3545 37.5209 21.803 37.3722 21.2386 37.3363C18.493 37.1027 15.7522 39.1664 15.117 41.9458H14.3263C14.1535 41.9508 13.9818 41.9171 13.8238 41.8471C13.6658 41.7772 13.5254 41.6727 13.4131 41.5413C13.3007 41.41 13.2192 41.2552 13.1745 41.0882C13.1298 40.9212 13.1231 40.7464 13.1549 40.5765L14.3085 32.5935H20.1601C20.323 32.5935 20.484 32.5593 20.6329 32.4931C20.7817 32.4269 20.915 32.3302 21.024 32.2093C21.1331 32.0883 21.2156 31.9458 21.2661 31.791C21.3166 31.6361 21.3341 31.4724 21.3173 31.3104C21.2768 31.0167 21.1298 30.7481 20.9043 30.5558C20.6787 30.3634 20.3903 30.2606 20.0939 30.267H12.8246C12.6244 30.267 12.4266 30.224 12.2445 30.1408C12.0624 30.0576 11.9004 29.9362 11.7693 29.7849C11.6383 29.6335 11.5413 29.4558 11.485 29.2637C11.4288 29.0716 11.4144 28.8696 11.4431 28.6715ZM41.1557 33.2385L50.8192 33.2585L48.0566 25.945C48.0136 25.8325 47.9376 25.7357 47.8385 25.6673C47.7394 25.5989 47.622 25.5621 47.5016 25.5617H42.2651L41.1557 33.2385Z" fill="#0B7EE8"/>
</svg>
