<svg width="64" height="64" viewBox="0 0 64 64" fill="none" xmlns="http://www.w3.org/2000/svg">
<g filter="url(#filter0_d)">
<circle cx="32" cy="24" r="16" fill="white"/>
<circle cx="32" cy="24" r="15" stroke="#00C389" stroke-width="2"/>
</g>
<path d="M36.6078 30.5012C36.4233 30.5066 36.2398 30.4706 36.071 30.3958C35.9022 30.321 35.7523 30.2094 35.6322 30.0691C35.5122 29.9288 35.4251 29.7634 35.3774 29.585C35.3297 29.4067 35.3225 29.2199 35.3564 29.0384C35.4226 28.6383 35.6258 28.2736 35.9312 28.0067C36.2366 27.7399 36.6252 27.5875 37.0306 27.5755C37.2152 27.5701 37.3986 27.6062 37.5674 27.6809C37.7362 27.7557 37.8862 27.8673 38.0062 28.0076C38.1262 28.148 38.2133 28.3134 38.261 28.4917C38.3088 28.6701 38.3159 28.8569 38.282 29.0384C38.2158 29.4385 38.0126 29.8032 37.7072 30.07C37.4018 30.3369 37.0132 30.4893 36.6078 30.5012ZM28.251 29.0384C28.2849 28.8569 28.2778 28.6701 28.23 28.4917C28.1823 28.3134 28.0952 28.148 27.9752 28.0077C27.8552 27.8673 27.7052 27.7557 27.5364 27.6809C27.3676 27.6062 27.1842 27.5701 26.9996 27.5755C26.5942 27.5875 26.2056 27.7399 25.9002 28.0067C25.5948 28.2736 25.3916 28.6383 25.3254 29.0384C25.2915 29.2199 25.2987 29.4067 25.3464 29.585C25.3941 29.7634 25.4812 29.9288 25.6012 30.0691C25.7213 30.2094 25.8712 30.321 26.04 30.3958C26.2088 30.4706 26.3923 30.5066 26.5768 30.5012C26.9822 30.4893 27.3708 30.3368 27.6762 30.07C27.9816 29.8032 28.1848 29.4385 28.251 29.0384V29.0384ZM23.0063 23.0438C23.0273 22.8985 23.0999 22.7656 23.2109 22.6695C23.3219 22.5733 23.4639 22.5204 23.6107 22.5204H29.2628C29.334 22.5204 29.4045 22.5055 29.4696 22.4765C29.5347 22.4476 29.593 22.4053 29.6407 22.3523C29.6885 22.2994 29.7245 22.2371 29.7467 22.1693C29.7688 22.1016 29.7764 22.03 29.7691 21.9591C29.7513 21.8306 29.687 21.7131 29.5883 21.6289C29.4897 21.5448 29.3635 21.4998 29.2338 21.5026L25.122 21.4838C25.0417 21.484 24.9622 21.4683 24.888 21.4377C24.8137 21.407 24.7463 21.3621 24.6895 21.3054C24.6326 21.2486 24.5876 21.1813 24.5568 21.1071C24.526 21.0329 24.5102 20.9534 24.5102 20.8731C24.5102 20.7929 24.526 20.7133 24.5568 20.6392C24.5876 20.565 24.6326 20.4976 24.6895 20.4409C24.7463 20.3842 24.8137 20.3392 24.888 20.3086C24.9622 20.278 25.0417 20.2623 25.122 20.2624L31.7056 20.2812C31.7768 20.2812 31.8473 20.2663 31.9124 20.2373C31.9775 20.2083 32.0358 20.166 32.0835 20.1131C32.1313 20.0602 32.1673 19.9979 32.1894 19.9301C32.2115 19.8624 32.2192 19.7907 32.2119 19.7199C32.1941 19.5914 32.1298 19.4739 32.0311 19.3897C31.9324 19.3056 31.8063 19.2606 31.6766 19.2634H25.0542L25.1165 18.8323C25.1541 18.6047 25.2697 18.3973 25.4434 18.2455C25.6171 18.0938 25.8381 18.0071 26.0687 18.0003H36.1911C36.2961 17.9972 36.4004 18.0177 36.4965 18.0602C36.5925 18.1028 36.6777 18.1662 36.746 18.246C36.8143 18.3258 36.8638 18.4199 36.8909 18.5214C36.9181 18.6228 36.9222 18.729 36.9029 18.8323L36.599 20.9349H38.7819C38.9865 20.9356 39.186 20.9982 39.3544 21.1145C39.5227 21.2308 39.6518 21.3954 39.7248 21.5865L40.8638 24.5532C40.9894 24.8805 41.0291 25.2345 40.9789 25.5814L40.593 28.2522C40.5659 28.4161 40.4827 28.5654 40.3576 28.6747C40.2325 28.784 40.0734 28.8464 39.9073 28.8513H39.0479C39.0704 28.6051 39.0434 28.3568 38.9684 28.1212C38.8934 27.8856 38.772 27.6674 38.6113 27.4796C38.4505 27.2917 38.2538 27.1379 38.0326 27.0274C37.8115 26.9168 37.5704 26.8517 37.3237 26.8358C36.1226 26.733 34.9231 27.6354 34.6446 28.8513H29.0171C29.0398 28.6049 29.0128 28.3565 28.9379 28.1207C28.8629 27.8849 28.7414 27.6665 28.5805 27.4785C28.4197 27.2904 28.2227 27.1366 28.0014 27.026C27.78 26.9154 27.5388 26.8504 27.2918 26.8347C26.0906 26.7324 24.8915 27.6353 24.6136 28.8513H24.2677C24.1921 28.8535 24.117 28.8388 24.0478 28.8081C23.9787 28.7775 23.9173 28.7318 23.8682 28.6743C23.819 28.6169 23.7833 28.5491 23.7638 28.4761C23.7442 28.4031 23.7413 28.3266 23.7552 28.2522L24.2599 24.7597H26.82C26.8912 24.7597 26.9617 24.7447 27.0268 24.7157C27.0919 24.6868 27.1502 24.6445 27.198 24.5916C27.2457 24.5386 27.2818 24.4763 27.3039 24.4086C27.326 24.3408 27.3336 24.2692 27.3263 24.1983C27.3086 24.0698 27.2442 23.9523 27.1456 23.8682C27.0469 23.784 26.9207 23.739 26.791 23.7418H23.6107C23.5231 23.7418 23.4366 23.723 23.3569 23.6866C23.2772 23.6502 23.2064 23.5971 23.149 23.5309C23.0917 23.4647 23.0493 23.3869 23.0246 23.3029C23 23.2188 22.9938 23.1305 23.0063 23.0438ZM36.0056 25.0419L40.2334 25.0506L39.0247 21.851C39.0059 21.8017 38.9726 21.7594 38.9293 21.7295C38.8859 21.6995 38.8346 21.6834 38.7819 21.6832H36.4909L36.0056 25.0419Z" fill="#00C389"/>
<defs>
<filter id="filter0_d" x="0" y="0" width="64" height="64" filterUnits="userSpaceOnUse" color-interpolation-filters="sRGB">
<feFlood flood-opacity="0" result="BackgroundImageFix"/>
<feColorMatrix in="SourceAlpha" type="matrix" values="0 0 0 0 0 0 0 0 0 0 0 0 0 0 0 0 0 0 127 0"/>
<feOffset dy="8"/>
<feGaussianBlur stdDeviation="8"/>
<feColorMatrix type="matrix" values="0 0 0 0 0.117647 0 0 0 0 0.203922 0 0 0 0 0.360784 0 0 0 0.1 0"/>
<feBlend mode="normal" in2="BackgroundImageFix" result="effect1_dropShadow"/>
<feBlend mode="normal" in="SourceGraphic" in2="effect1_dropShadow" result="shape"/>
</filter>
</defs>
</svg>
