<svg width="4" height="12" viewBox="0 0 4 12" fill="none" xmlns="http://www.w3.org/2000/svg">
<path d="M1.71429 7.71422C2.66106 7.71422 3.42857 6.9467 3.42857 5.99993C3.42857 5.05316 2.66106 4.28564 1.71429 4.28564C0.767512 4.28564 0 5.05316 0 5.99993C0 6.9467 0.767512 7.71422 1.71429 7.71422Z" fill="#2B96DC"/>
<path d="M1.71429 3.42857C2.66106 3.42857 3.42857 2.66106 3.42857 1.71429C3.42857 0.767512 2.66106 0 1.71429 0C0.767512 0 0 0.767512 0 1.71429C0 2.66106 0.767512 3.42857 1.71429 3.42857Z" fill="#2B96DC"/>
<path d="M1.71429 11.9999C2.66106 11.9999 3.42857 11.2323 3.42857 10.2856C3.42857 9.3388 2.66106 8.57129 1.71429 8.57129C0.767512 8.57129 0 9.3388 0 10.2856C0 11.2323 0.767512 11.9999 1.71429 11.9999Z" fill="#2B96DC"/>
</svg>
