<svg width="20" height="20" viewBox="0 0 20 20" fill="none" xmlns="http://www.w3.org/2000/svg">
<path d="M19.0526 7.89474H18C17.6 7.89474 17.2632 7.64211 17.1158 7.26316C17.0737 7.13684 17.0105 7.01053 16.9684 6.90526C16.8 6.54737 16.8632 6.10526 17.1579 5.83158L17.9158 5.07368C18.2947 4.69474 18.2947 4.10526 17.9158 3.72632L16.2737 2.08421C15.8947 1.70526 15.3053 1.70526 14.9263 2.08421L14.1684 2.84211C13.8947 3.11579 13.4526 3.2 13.0947 3.03158C12.9684 2.98947 12.8632 2.92632 12.7368 2.88421C12.3579 2.73684 12.1053 2.4 12.1053 2V0.947368C12.1053 0.421053 11.6842 0 11.1579 0H8.8421C8.31579 0 7.89474 0.421053 7.89474 0.947368V2.02105C7.89474 2.42105 7.64211 2.77895 7.26316 2.90526C7.13684 2.94737 7.03158 2.98947 6.90526 3.05263C6.54737 3.22105 6.12632 3.13684 5.83158 2.86316L5.07368 2.10526C4.69474 1.72632 4.10526 1.72632 3.72632 2.10526L2.08421 3.74737C1.70526 4.12632 1.70526 4.71579 2.08421 5.09474L2.84211 5.85263C3.11579 6.12632 3.2 6.56842 3.03158 6.92632C2.96842 7.05263 2.92632 7.15789 2.88421 7.28421C2.73684 7.66316 2.4 7.91579 2 7.91579H0.947368C0.421053 7.91579 0 8.33684 0 8.86316V11.1789C0 11.6842 0.421053 12.1053 0.947368 12.1053H1.97895C2.37895 12.1053 2.73684 12.3579 2.86316 12.7368C2.90526 12.8632 2.96842 12.9895 3.01053 13.1158C3.17895 13.4737 3.09474 13.8947 2.82105 14.1895L2.08421 14.9263C1.70526 15.3053 1.70526 15.8947 2.08421 16.2737L3.72632 17.9158C4.10526 18.2947 4.69474 18.2947 5.07368 17.9158L5.78947 17.2C6.06316 16.9263 6.48421 16.8421 6.84211 17.0105C6.98947 17.0737 7.13684 17.1368 7.26316 17.2C7.62105 17.3474 7.87368 17.6842 7.87368 18.0842V19.0526C7.87368 19.5789 8.29474 20 8.82105 20H11.1368C11.6632 20 12.0842 19.5789 12.0842 19.0526V18.0211C12.0842 17.6421 12.3158 17.2842 12.6947 17.1368C12.8421 17.0737 12.9895 17.0316 13.1158 16.9474C13.4737 16.7789 13.8947 16.8632 14.1684 17.1368L14.8842 17.8526C15.2632 18.2316 15.8526 18.2316 16.2316 17.8526L17.8737 16.2105C18.2526 15.8316 18.2526 15.2421 17.8737 14.8632L17.1579 14.1684C16.8842 13.8947 16.8 13.4737 16.9684 13.0947C17.0316 12.9684 17.0737 12.8421 17.1158 12.7158C17.2632 12.3368 17.6 12.0842 18 12.0842H19.0526C19.5789 12.0842 20 11.6632 20 11.1368V8.82105C20 8.31579 19.5789 7.89474 19.0526 7.89474ZM10 13.6842C7.95789 13.6842 6.31579 12.0421 6.31579 10C6.31579 7.95789 7.95789 6.31579 10 6.31579C12.0421 6.31579 13.6842 7.95789 13.6842 10C13.6842 12.0421 12.0421 13.6842 10 13.6842Z" fill="#0B7EE8"/>
</svg>
