<svg width="20" height="21" viewBox="0 0 20 21" fill="none" xmlns="http://www.w3.org/2000/svg">
<path d="M10 0.491211C4.48421 0.491211 0 4.97542 0 10.4912C0 16.007 4.48421 20.4912 10 20.4912C15.5158 20.4912 20 16.007 20 10.4912C20 4.97542 15.5158 0.491211 10 0.491211ZM15.0526 8.42805L9.01053 14.4702C8.8421 14.6386 8.56842 14.6386 8.42105 14.4702L4.94737 10.9965C4.77895 10.8281 4.77895 10.5544 4.94737 10.407L6.27368 9.08068C6.44211 8.91226 6.71579 8.91226 6.86316 9.08068L8.71579 10.9333L13.1368 6.51226C13.3053 6.34384 13.5789 6.34384 13.7263 6.51226L15.0526 7.83858C15.2211 8.007 15.2211 8.25963 15.0526 8.42805Z" fill="#3EB93B"/>
</svg>
