<svg width="6" height="10" viewBox="0 0 6 10" fill="none" xmlns="http://www.w3.org/2000/svg">
<path fill-rule="evenodd" clip-rule="evenodd" d="M4.89678 5.74142C5.16489 5.69411 5.26779 5.84425 5.12752 6.07527L2.85 9.82648C2.70933 10.0582 2.48085 10.0575 2.34058 9.82648L0.0630638 6.07527C-0.0776089 5.84358 0.0247208 5.69393 0.293801 5.74142L0.335832 5.74884C1.5837 5.96905 3.60735 5.96897 4.85475 5.74884L4.89678 5.74142ZM0.293801 4.25858C0.0256958 4.3059 -0.0771995 4.15575 0.0630638 3.92473L2.34058 0.173519C2.48126 -0.0581768 2.70974 -0.0575026 2.85 0.173519L5.12752 3.92473C5.2682 4.15642 5.16587 4.30607 4.89678 4.25858L4.85475 4.25117C3.60689 4.03095 1.58323 4.03104 0.335832 4.25117L0.293801 4.25858Z" fill="#858585"/>
</svg>
