<svg width="16" height="21" viewBox="0 0 16 21" fill="none" xmlns="http://www.w3.org/2000/svg">
<path d="M4.61493 5.1066H10.7688C11.1934 5.1066 11.538 4.76198 11.538 4.33736V2.02967C11.538 1.60506 11.1934 1.26044 10.7688 1.26044H9.02378C8.75763 0.800826 8.26032 0.491211 7.69186 0.491211C7.1234 0.491211 6.62609 0.800826 6.35993 1.26044H4.61493C4.19032 1.26044 3.8457 1.60506 3.8457 2.02967V4.33736C3.8457 4.76198 4.19032 5.1066 4.61493 5.1066Z" fill="#FFB223"/>
<path d="M14.6154 2.79883H13.0769C12.6523 2.79883 12.3077 3.14344 12.3077 3.56806V5.87575H3.07692V3.56806C3.07692 3.14344 2.73231 2.79883 2.30769 2.79883H0.769231C0.344615 2.79883 0 3.14344 0 3.56806V19.7219C0 20.1465 0.344615 20.4911 0.769231 20.4911H14.6154C15.04 20.4911 15.3846 20.1465 15.3846 19.7219V3.56806C15.3846 3.14344 15.04 2.79883 14.6154 2.79883ZM10.7692 15.8758H4.61539C4.19077 15.8758 3.84615 15.5311 3.84615 15.1065C3.84615 14.6819 4.19077 14.3373 4.61539 14.3373H10.7692C11.1938 14.3373 11.5385 14.6819 11.5385 15.1065C11.5385 15.5311 11.1938 15.8758 10.7692 15.8758ZM10.7692 12.7988H4.61539C4.19077 12.7988 3.84615 12.4542 3.84615 12.0296C3.84615 11.605 4.19077 11.2604 4.61539 11.2604H10.7692C11.1938 11.2604 11.5385 11.605 11.5385 12.0296C11.5385 12.4542 11.1938 12.7988 10.7692 12.7988ZM10.7692 9.7219H4.61539C4.19077 9.7219 3.84615 9.37729 3.84615 8.95267C3.84615 8.52806 4.19077 8.18344 4.61539 8.18344H10.7692C11.1938 8.18344 11.5385 8.52806 11.5385 8.95267C11.5385 9.37729 11.1938 9.7219 10.7692 9.7219Z" fill="#FFB223"/>
</svg>
