<svg width="20" height="20" viewBox="0 0 20 20" fill="none" xmlns="http://www.w3.org/2000/svg">
<path fill-rule="evenodd" clip-rule="evenodd" d="M10 0C15.5228 0 20 4.47715 20 10C20 15.5228 15.5228 20 10 20C4.47715 20 0 15.5228 0 10C0 4.47715 4.47715 0 10 0ZM16.4527 4.7258L4.72579 16.4527C7.99914 19.1348 12.8371 18.9481 15.8926 15.8926C18.9481 12.8371 19.1348 7.99914 16.4527 4.7258ZM3.54728 15.2742L15.2742 3.54729C12.0009 0.865232 7.16294 1.05194 4.10744 4.10744C1.05195 7.16293 0.865226 12.0009 3.54728 15.2742Z" fill="#F1373A"/>
</svg>
