<svg width="64" height="64" viewBox="0 0 64 64" fill="none" xmlns="http://www.w3.org/2000/svg">
<g filter="url(#filter0_d)">
<circle cx="32" cy="24" r="16" fill="white"/>
<circle cx="32" cy="24" r="15" stroke="#00C389" stroke-width="2"/>
</g>
<path d="M40.47 22.2492L38.4637 21.9085C38.3502 21.5489 38.1987 21.2082 38.0284 20.8675L39.2019 19.2208C39.3722 18.9748 39.3533 18.6341 39.1451 18.4259L37.5363 16.817C37.3281 16.6088 36.9874 16.571 36.7413 16.7603L35.0946 17.9338C34.7729 17.7634 34.4132 17.612 34.0536 17.4984L33.7319 15.511C33.6751 15.2082 33.429 15 33.1262 15H30.8549C30.5521 15 30.306 15.2082 30.2492 15.511L29.9085 17.5174C29.5489 17.6309 29.2082 17.7823 28.8675 17.9527L27.2208 16.7792C26.9748 16.6088 26.6341 16.6278 26.4259 16.836L24.817 18.4448C24.6088 18.653 24.571 18.9937 24.7603 19.2397L25.9338 20.8864C25.7634 21.2082 25.612 21.5678 25.4984 21.9274L23.511 22.2492C23.2082 22.306 23 22.5521 23 22.8549V25.1262C23 25.429 23.2082 25.6751 23.511 25.7319L25.5174 26.0726C25.6309 26.4322 25.7823 26.7729 25.9527 27.1136L24.7792 28.7603C24.6088 29.0063 24.6278 29.347 24.836 29.5552L26.4448 31.164C26.653 31.3722 26.9937 31.4101 27.2397 31.2208L28.8864 30.0473C29.2082 30.2177 29.5678 30.3691 29.9274 30.4826L30.2681 32.489C30.3249 32.7918 30.571 33 30.8738 33H33.1451C33.4479 33 33.694 32.7918 33.7508 32.489L34.0726 30.4637C34.4322 30.3502 34.7729 30.1987 35.1136 30.0284L36.7603 31.2019C37.0063 31.3722 37.347 31.3533 37.5552 31.1451L39.164 29.5363C39.3722 29.3281 39.4101 28.9874 39.2208 28.7413L38.0473 27.0946C38.2177 26.7729 38.3691 26.4132 38.4826 26.0536L40.489 25.7129C40.7918 25.6562 41 25.4101 41 25.1073V22.8549C40.9811 22.5521 40.7729 22.306 40.47 22.2492ZM31.9905 27.2271C30.1924 27.2271 28.7539 25.7697 28.7539 23.9905C28.7539 22.1924 30.2114 20.7539 31.9905 20.7539C33.7697 20.7539 35.2271 22.1924 35.2271 23.9905C35.2271 25.7886 33.7886 27.2271 31.9905 27.2271Z" fill="#00C389"/>
<defs>
<filter id="filter0_d" x="0" y="0" width="64" height="64" filterUnits="userSpaceOnUse" color-interpolation-filters="sRGB">
<feFlood flood-opacity="0" result="BackgroundImageFix"/>
<feColorMatrix in="SourceAlpha" type="matrix" values="0 0 0 0 0 0 0 0 0 0 0 0 0 0 0 0 0 0 127 0"/>
<feOffset dy="8"/>
<feGaussianBlur stdDeviation="8"/>
<feColorMatrix type="matrix" values="0 0 0 0 0.117647 0 0 0 0 0.203922 0 0 0 0 0.360784 0 0 0 0.1 0"/>
<feBlend mode="normal" in2="BackgroundImageFix" result="effect1_dropShadow"/>
<feBlend mode="normal" in="SourceGraphic" in2="effect1_dropShadow" result="shape"/>
</filter>
</defs>
</svg>
