<svg width="14" height="12" viewBox="0 0 14 12" fill="none" xmlns="http://www.w3.org/2000/svg">
<path d="M8.96712 2.43018H0.602818C0.523655 2.43017 0.445267 2.44576 0.37213 2.47606C0.298992 2.50635 0.232538 2.55075 0.176561 2.60673C0.120584 2.66271 0.0761801 2.72916 0.0458858 2.8023C0.0155914 2.87543 -6.08093e-07 2.95382 1.26526e-10 3.03298V9.03108C-1.62176e-06 9.11025 0.0155896 9.18864 0.0458835 9.26178C0.0761774 9.33491 0.120581 9.40137 0.176558 9.45735C0.232535 9.51332 0.29899 9.55772 0.372128 9.58802C0.445266 9.61831 0.523655 9.6339 0.602818 9.6339H1.03373V12.0001L3.21262 9.6339H8.96712C9.04628 9.6339 9.12467 9.61831 9.19781 9.58802C9.27095 9.55772 9.33741 9.51332 9.39338 9.45735C9.44936 9.40137 9.49376 9.33491 9.52406 9.26178C9.55435 9.18864 9.56994 9.11025 9.56994 9.03108V3.03298C9.56994 2.95382 9.55435 2.87543 9.52405 2.8023C9.49376 2.72916 9.44936 2.66271 9.39338 2.60673C9.3374 2.55075 9.27095 2.50635 9.19781 2.47606C9.12467 2.44576 9.04628 2.43017 8.96712 2.43018ZM2.45185 6.60601C2.33833 6.60601 2.22736 6.57234 2.13297 6.50927C2.03858 6.44621 1.96502 6.35656 1.92157 6.25169C1.87813 6.14681 1.86677 6.0314 1.88891 5.92006C1.91106 5.80872 1.96572 5.70645 2.046 5.62618C2.12627 5.54591 2.22854 5.49124 2.33988 5.4691C2.45122 5.44695 2.56662 5.45832 2.6715 5.50176C2.77638 5.5452 2.86602 5.61877 2.92909 5.71316C2.99216 5.80755 3.02582 5.91852 3.02582 6.03204C3.02582 6.18426 2.96535 6.33025 2.85771 6.43789C2.75007 6.54553 2.60408 6.60601 2.45186 6.60601H2.45185ZM4.78497 6.60601C4.67145 6.60601 4.56047 6.57234 4.46608 6.50927C4.3717 6.44621 4.29813 6.35656 4.25469 6.25169C4.21125 6.14681 4.19988 6.0314 4.22203 5.92006C4.24417 5.80872 4.29884 5.70645 4.37911 5.62618C4.45938 5.54591 4.56165 5.49124 4.67299 5.4691C4.78433 5.44695 4.89973 5.45832 5.00461 5.50176C5.10949 5.5452 5.19913 5.61877 5.2622 5.71316C5.32527 5.80755 5.35893 5.91852 5.35893 6.03204C5.35893 6.18426 5.29846 6.33025 5.19082 6.43789C5.08319 6.54553 4.93719 6.60601 4.78497 6.60601H4.78497ZM7.11808 6.60601C7.00456 6.606 6.89359 6.57234 6.7992 6.50927C6.70482 6.4462 6.63125 6.35655 6.58781 6.25167C6.54437 6.14679 6.53301 6.03139 6.55516 5.92005C6.57731 5.80871 6.63197 5.70644 6.71224 5.62617C6.79252 5.54591 6.89479 5.49124 7.00613 5.4691C7.11746 5.44695 7.23287 5.45832 7.33775 5.50176C7.44263 5.5452 7.53227 5.61877 7.59533 5.71316C7.6584 5.80755 7.69206 5.91852 7.69206 6.03204C7.69206 6.10741 7.67722 6.18205 7.64837 6.25169C7.61953 6.32133 7.57725 6.3846 7.52395 6.4379C7.47065 6.4912 7.40737 6.53348 7.33773 6.56232C7.2681 6.59116 7.19346 6.60601 7.11808 6.60601H7.11808Z" fill="#42A2E0"/>
<path d="M13.2916 1.77664e-07H4.92738C4.76752 -0.00012243 4.61415 0.0632196 4.50096 0.17611C4.38777 0.289 4.32403 0.442205 4.32373 0.602065V1.34927H8.96747C9.41384 1.34988 9.84173 1.52757 10.1572 1.84335C10.4727 2.15912 10.65 2.58717 10.6502 3.03354V7.20333H10.6811L12.8609 9.56998V7.20333H13.2916C13.4515 7.20303 13.6047 7.1393 13.7176 7.02612C13.8305 6.91294 13.8938 6.75958 13.8937 6.59972V0.602073C13.8935 0.442458 13.83 0.289438 13.7171 0.176573C13.6043 0.0637066 13.4513 0.000207277 13.2916 1.77664e-07Z" fill="#42A2E0"/>
</svg>
