<svg width="32" height="32" viewBox="0 0 32 32" fill="none" xmlns="http://www.w3.org/2000/svg">
<circle cx="16" cy="16" r="15" fill="white"/>
<circle cx="16" cy="16" r="15" stroke="#333333" stroke-width="2"/>
<circle cx="16" cy="16" r="15" stroke="white" stroke-opacity="0.6" stroke-width="2"/>
<path d="M24.47 14.2492L22.4637 13.9085C22.3502 13.5489 22.1987 13.2082 22.0284 12.8675L23.2019 11.2208C23.3722 10.9748 23.3533 10.6341 23.1451 10.4259L21.5363 8.81703C21.3281 8.60883 20.9874 8.57098 20.7413 8.76025L19.0946 9.93375C18.7729 9.76341 18.4132 9.61199 18.0536 9.49842L17.7319 7.51104C17.6751 7.2082 17.429 7 17.1262 7H14.8549C14.5521 7 14.306 7.2082 14.2492 7.51104L13.9085 9.51735C13.5489 9.63091 13.2082 9.78233 12.8675 9.95268L11.2208 8.77918C10.9748 8.60883 10.6341 8.62776 10.4259 8.83596L8.81703 10.4448C8.60883 10.653 8.57098 10.9937 8.76025 11.2397L9.93375 12.8864C9.76341 13.2082 9.61199 13.5678 9.49842 13.9274L7.51104 14.2492C7.2082 14.306 7 14.5521 7 14.8549V17.1262C7 17.429 7.2082 17.6751 7.51104 17.7319L9.51735 18.0726C9.63091 18.4322 9.78233 18.7729 9.95268 19.1136L8.77918 20.7603C8.60883 21.0063 8.62776 21.347 8.83596 21.5552L10.4448 23.164C10.653 23.3722 10.9937 23.4101 11.2397 23.2208L12.8864 22.0473C13.2082 22.2177 13.5678 22.3691 13.9274 22.4827L14.2681 24.489C14.3249 24.7918 14.571 25 14.8738 25H17.1451C17.4479 25 17.694 24.7918 17.7508 24.489L18.0726 22.4637C18.4322 22.3502 18.7729 22.1987 19.1136 22.0284L20.7603 23.2019C21.0063 23.3722 21.347 23.3533 21.5552 23.1451L23.164 21.5363C23.3722 21.3281 23.4101 20.9874 23.2208 20.7413L22.0473 19.0946C22.2177 18.7729 22.3691 18.4132 22.4827 18.0536L24.489 17.7129C24.7918 17.6562 25 17.4101 25 17.1073V14.8549C24.9811 14.5521 24.7729 14.306 24.47 14.2492ZM15.9905 19.2271C14.1924 19.2271 12.7539 17.7697 12.7539 15.9905C12.7539 14.1924 14.2114 12.7539 15.9905 12.7539C17.7697 12.7539 19.2271 14.1924 19.2271 15.9905C19.2271 17.7886 17.7886 19.2271 15.9905 19.2271Z" fill="#ADADAD"/>
</svg>
