<svg width="64" height="64" viewBox="0 0 64 64" fill="none" xmlns="http://www.w3.org/2000/svg">
<g filter="url(#filter0_d)">
<circle cx="32" cy="24" r="16" fill="white"/>
<circle cx="32" cy="24" r="15" stroke="#00C389" stroke-width="2"/>
</g>
<path d="M37.825 16.8H35.125V15.675C35.125 15.2925 34.8325 15 34.45 15H29.5C29.1175 15 28.825 15.2925 28.825 15.675V16.8H26.125C25.495 16.8 25 17.295 25 17.925V31.875C25 32.505 25.495 33 26.125 33H37.825C38.455 33 38.95 32.505 38.95 31.875V17.925C38.95 17.295 38.455 16.8 37.825 16.8ZM30.175 16.35H33.775V18.15H30.175V16.35ZM30.715 29.625H28.735C28.3525 29.625 28.06 29.3325 28.06 28.95C28.06 28.5675 28.3525 28.275 28.735 28.275H30.715C31.0975 28.275 31.39 28.5675 31.39 28.95C31.39 29.3325 31.0975 29.625 30.715 29.625ZM35.215 26.25H28.735C28.3525 26.25 28.06 25.9575 28.06 25.575C28.06 25.1925 28.3525 24.9 28.735 24.9H35.215C35.5975 24.9 35.89 25.1925 35.89 25.575C35.89 25.9575 35.5975 26.25 35.215 26.25ZM35.215 22.875H28.735C28.3525 22.875 28.06 22.5825 28.06 22.2C28.06 21.8175 28.3525 21.525 28.735 21.525H35.215C35.5975 21.525 35.89 21.8175 35.89 22.2C35.89 22.5825 35.5975 22.875 35.215 22.875Z" fill="#00C389"/>
<defs>
<filter id="filter0_d" x="0" y="0" width="64" height="64" filterUnits="userSpaceOnUse" color-interpolation-filters="sRGB">
<feFlood flood-opacity="0" result="BackgroundImageFix"/>
<feColorMatrix in="SourceAlpha" type="matrix" values="0 0 0 0 0 0 0 0 0 0 0 0 0 0 0 0 0 0 127 0"/>
<feOffset dy="8"/>
<feGaussianBlur stdDeviation="8"/>
<feColorMatrix type="matrix" values="0 0 0 0 0.117647 0 0 0 0 0.203922 0 0 0 0 0.360784 0 0 0 0.1 0"/>
<feBlend mode="normal" in2="BackgroundImageFix" result="effect1_dropShadow"/>
<feBlend mode="normal" in="SourceGraphic" in2="effect1_dropShadow" result="shape"/>
</filter>
</defs>
</svg>
