<svg width="32" height="32" viewBox="0 0 32 32" fill="none" xmlns="http://www.w3.org/2000/svg">
<circle cx="16" cy="16" r="15" fill="white" stroke="#00C389" stroke-width="2"/>
<path d="M21.825 8.8H19.125V7.675C19.125 7.2925 18.8325 7 18.45 7H13.5C13.1175 7 12.825 7.2925 12.825 7.675V8.8H10.125C9.495 8.8 9 9.295 9 9.925V23.875C9 24.505 9.495 25 10.125 25H21.825C22.455 25 22.95 24.505 22.95 23.875V9.925C22.95 9.295 22.455 8.8 21.825 8.8ZM14.175 8.35H17.775V10.15H14.175V8.35ZM14.715 21.625H12.735C12.3525 21.625 12.06 21.3325 12.06 20.95C12.06 20.5675 12.3525 20.275 12.735 20.275H14.715C15.0975 20.275 15.39 20.5675 15.39 20.95C15.39 21.3325 15.0975 21.625 14.715 21.625ZM19.215 18.25H12.735C12.3525 18.25 12.06 17.9575 12.06 17.575C12.06 17.1925 12.3525 16.9 12.735 16.9H19.215C19.5975 16.9 19.89 17.1925 19.89 17.575C19.89 17.9575 19.5975 18.25 19.215 18.25ZM19.215 14.875H12.735C12.3525 14.875 12.06 14.5825 12.06 14.2C12.06 13.8175 12.3525 13.525 12.735 13.525H19.215C19.5975 13.525 19.89 13.8175 19.89 14.2C19.89 14.5825 19.5975 14.875 19.215 14.875Z" fill="#00C389"/>
</svg>
