<svg width="32" height="32" viewBox="0 0 32 32" fill="none" xmlns="http://www.w3.org/2000/svg">
<circle cx="16" cy="16" r="15" fill="white"/>
<circle cx="16" cy="16" r="15" stroke="#333333" stroke-width="2"/>
<circle cx="16" cy="16" r="15" stroke="white" stroke-opacity="0.6" stroke-width="2"/>
<path d="M20.6078 22.5012C20.4233 22.5066 20.2398 22.4706 20.071 22.3958C19.9022 22.321 19.7523 22.2094 19.6322 22.0691C19.5122 21.9288 19.4251 21.7634 19.3774 21.585C19.3297 21.4067 19.3225 21.2199 19.3564 21.0384C19.4226 20.6383 19.6258 20.2736 19.9312 20.0067C20.2366 19.7399 20.6252 19.5875 21.0306 19.5755C21.2152 19.5701 21.3986 19.6062 21.5674 19.6809C21.7362 19.7557 21.8862 19.8673 22.0062 20.0076C22.1262 20.148 22.2133 20.3134 22.261 20.4917C22.3088 20.6701 22.3159 20.8569 22.282 21.0384C22.2158 21.4385 22.0126 21.8032 21.7072 22.07C21.4018 22.3369 21.0132 22.4893 20.6078 22.5012V22.5012ZM12.251 21.0384C12.2849 20.8569 12.2778 20.6701 12.23 20.4917C12.1823 20.3134 12.0952 20.148 11.9752 20.0077C11.8552 19.8673 11.7052 19.7557 11.5364 19.6809C11.3676 19.6062 11.1842 19.5701 10.9996 19.5755C10.5942 19.5875 10.2056 19.7399 9.90017 20.0067C9.59477 20.2736 9.39158 20.6383 9.32538 21.0384C9.29148 21.2199 9.29866 21.4067 9.34639 21.585C9.39413 21.7634 9.4812 21.9288 9.60123 22.0691C9.72126 22.2094 9.87119 22.321 10.04 22.3958C10.2088 22.4706 10.3923 22.5066 10.5768 22.5012C10.9822 22.4893 11.3708 22.3368 11.6762 22.07C11.9816 21.8032 12.1848 21.4385 12.251 21.0384V21.0384ZM7.00628 15.0438C7.02727 14.8985 7.09993 14.7656 7.21094 14.6695C7.32194 14.5733 7.46386 14.5204 7.6107 14.5204H13.2628C13.334 14.5204 13.4045 14.5055 13.4696 14.4765C13.5347 14.4476 13.593 14.4053 13.6407 14.3523C13.6885 14.2994 13.7245 14.2371 13.7467 14.1693C13.7688 14.1016 13.7764 14.03 13.7691 13.9591C13.7513 13.8306 13.687 13.7131 13.5883 13.6289C13.4897 13.5448 13.3635 13.4998 13.2338 13.5026L9.12201 13.4838C9.04172 13.484 8.96218 13.4683 8.88796 13.4377C8.81374 13.407 8.74629 13.3621 8.68946 13.3054C8.63264 13.2486 8.58756 13.1813 8.5568 13.1071C8.52604 13.0329 8.5102 12.9534 8.5102 12.8731C8.5102 12.7929 8.52604 12.7133 8.5568 12.6392C8.58756 12.565 8.63264 12.4976 8.68946 12.4409C8.74629 12.3842 8.81374 12.3392 8.88796 12.3086C8.96218 12.278 9.04172 12.2623 9.12201 12.2624L15.7056 12.2812C15.7768 12.2812 15.8473 12.2663 15.9124 12.2373C15.9775 12.2083 16.0358 12.166 16.0835 12.1131C16.1313 12.0602 16.1673 11.9979 16.1894 11.9301C16.2115 11.8624 16.2192 11.7907 16.2119 11.7199C16.1941 11.5914 16.1298 11.4739 16.0311 11.3897C15.9324 11.3056 15.8063 11.2606 15.6766 11.2634H9.05417L9.11647 10.8323C9.15412 10.6047 9.26968 10.3973 9.44338 10.2455C9.61708 10.0938 9.83811 10.0071 10.0687 10.0003H20.1911C20.2961 9.99723 20.4004 10.0177 20.4965 10.0602C20.5925 10.1028 20.6777 10.1662 20.746 10.246C20.8143 10.3258 20.8638 10.4199 20.8909 10.5214C20.9181 10.6228 20.9222 10.729 20.9029 10.8323L20.599 12.9349H22.7819C22.9865 12.9356 23.186 12.9982 23.3544 13.1145C23.5227 13.2308 23.6518 13.3954 23.7248 13.5865L24.8638 16.5532C24.9894 16.8805 25.0291 17.2345 24.9789 17.5814L24.593 20.2522C24.5659 20.4161 24.4827 20.5654 24.3576 20.6747C24.2325 20.784 24.0734 20.8464 23.9073 20.8513H23.0479C23.0704 20.6051 23.0434 20.3568 22.9684 20.1212C22.8934 19.8856 22.772 19.6674 22.6113 19.4796C22.4505 19.2917 22.2538 19.1379 22.0326 19.0274C21.8115 18.9168 21.5704 18.8517 21.3237 18.8358C20.1226 18.733 18.9231 19.6354 18.6446 20.8513H13.0171C13.0398 20.6049 13.0128 20.3565 12.9379 20.1207C12.8629 19.8849 12.7414 19.6665 12.5805 19.4785C12.4197 19.2904 12.2227 19.1366 12.0014 19.026C11.78 18.9154 11.5388 18.8504 11.2918 18.8347C10.0906 18.7324 8.89152 19.6353 8.61362 20.8513H8.26769C8.1921 20.8535 8.11699 20.8388 8.04785 20.8081C7.97871 20.7775 7.91731 20.7318 7.86816 20.6743C7.819 20.6169 7.78334 20.5491 7.76379 20.4761C7.74425 20.4031 7.74131 20.3266 7.75519 20.2522L8.2599 16.7597H10.82C10.8912 16.7597 10.9617 16.7447 11.0268 16.7157C11.0919 16.6868 11.1502 16.6445 11.198 16.5916C11.2457 16.5386 11.2818 16.4763 11.3039 16.4086C11.326 16.3408 11.3336 16.2692 11.3263 16.1983C11.3086 16.0698 11.2442 15.9523 11.1456 15.8682C11.0469 15.784 10.9207 15.739 10.791 15.7418H7.6107C7.52312 15.7418 7.43656 15.723 7.35691 15.6866C7.27725 15.6502 7.20635 15.5971 7.14902 15.5309C7.09169 15.4647 7.04928 15.3869 7.02465 15.3029C7.00002 15.2188 6.99375 15.1305 7.00628 15.0438V15.0438ZM20.0056 17.0419L24.2334 17.0506L23.0247 13.851C23.0059 13.8017 22.9726 13.7594 22.9293 13.7295C22.8859 13.6995 22.8346 13.6834 22.7819 13.6832H20.4909L20.0056 17.0419Z" fill="#ADADAD"/>
</svg>
