<svg width="16" height="16" viewBox="0 0 16 16" fill="none" xmlns="http://www.w3.org/2000/svg">
<circle cx="8" cy="8" r="7.4" fill="white" stroke="#333333" stroke-width="1.2"/>
<g clip-path="url(#clip0)">
<path d="M9.90167 3H6.57544V6.84966H9.90167V3Z" fill="#333333"/>
<path d="M9.13685 6.5415H7.34009V9.93455H9.13685V6.5415Z" fill="#333333"/>
<path d="M10.1466 7.36552H6.3304C6.14849 7.36552 6 7.22074 6 7.03513V5.32747C6 5.14556 6.14849 4.99707 6.3304 4.99707H10.1466C10.3286 4.99707 10.477 5.14556 10.477 5.32747V7.03513C10.477 7.22074 10.3286 7.36552 10.1466 7.36552Z" fill="#333333"/>
<path d="M9.47874 10.035H6.99891C6.7242 10.035 6.50146 9.81225 6.50146 9.53754V8.34218C6.50146 8.06747 6.7242 7.84473 6.99891 7.84473H9.48245C9.75716 7.84473 9.9799 8.06747 9.9799 8.34218V9.53754C9.97619 9.81225 9.75345 10.035 9.47874 10.035Z" fill="#333333"/>
<path d="M9.17019 10.5211H7.34373L7.08759 9.62646H9.38922L9.17019 10.5211Z" fill="#333333"/>
<path d="M7.81909 10.2427V13.0306L8.23858 13.465L8.65436 13.0306V10.2427H7.81909Z" fill="#333333"/>
</g>
<defs>
<clipPath id="clip0">
<rect x="6" y="3" width="4.47705" height="10.465" fill="white"/>
</clipPath>
</defs>
</svg>
