<svg width="16" height="16" viewBox="0 0 16 16" fill="none" xmlns="http://www.w3.org/2000/svg">
<circle cx="8" cy="8" r="7.4" fill="white" stroke="#333333" stroke-width="1.2"/>
<path d="M12.9982 8.97436L9.22877 8.87748C9.08362 8.87308 8.96926 8.75418 8.96926 8.60006V8.25659H8.37988V10.6257H13.4908V9.19013L13.2709 9.18132C13.1433 9.18132 13.0334 9.09325 12.9982 8.97436Z" fill="#333333"/>
<path d="M13.3595 7.33181C13.3419 7.37585 13.3199 7.41548 13.2935 7.4463C13.2363 7.50355 13.1659 7.53437 13.0868 7.53878L9.35693 7.63565V8.50754L13.0868 8.60441C13.1791 8.60882 13.2671 8.65285 13.3199 8.72771L13.3419 8.76734C13.3419 8.77175 13.3463 8.78055 13.3507 8.78936L13.3595 8.81578L13.4958 8.82018V7.3186L13.3595 7.32301C13.3595 7.32741 13.3595 7.32741 13.3595 7.33181Z" fill="#333333"/>
<path d="M8.37988 7.87785H8.96926V7.52998C8.96926 7.38026 9.08362 7.25696 9.23317 7.25256L13.007 7.14247L13.0158 7.12046C13.0202 7.11605 13.0202 7.10725 13.0246 7.10284C13.0422 7.07642 13.0553 7.05441 13.0729 7.03679L13.1169 7.00156C13.1345 6.98835 13.1653 6.97074 13.1961 6.96193L13.2181 6.95753C13.2269 6.95753 13.2357 6.95313 13.2489 6.95313H13.2753L13.4996 6.94432V5.50879H8.38867V7.87785H8.37988Z" fill="#333333"/>
<path d="M6.30019 6.97076V6.37189H4.47487V5.5H2.5V10.6344H4.47487V9.76256H6.30019V9.16368H7.44816L8.20029 8.06722L7.44816 6.97076H6.30019Z" fill="#333333"/>
</svg>
