<svg width="16" height="16" viewBox="0 0 16 16" fill="none" xmlns="http://www.w3.org/2000/svg">
<circle cx="8" cy="8" r="7.4" fill="white" stroke="#333333" stroke-width="1.2"/>
<path d="M13.5838 7.11848C13.5235 6.98853 13.3984 6.89571 13.2547 6.89571H10.1349L10.2647 6.76576C10.6958 6.32022 10.9322 5.71225 10.8951 5.09036C10.858 4.46846 10.566 3.89762 10.0746 3.49849C9.17531 2.7745 7.8866 2.84411 7.09391 3.67485L3.48275 7.39694C2.88476 7.92137 2.5 8.69642 2.5 9.55036C2.5 11.1283 3.78407 12.4278 5.37409 12.4278H8.57731C8.67002 12.4278 8.76274 12.3907 8.83227 12.321L13.5096 7.51296C13.607 7.39694 13.6301 7.24843 13.5838 7.11848ZM8.42897 11.7177H5.37872C4.18737 11.7177 3.21852 10.7477 3.21852 9.555C3.21852 8.36227 4.18737 7.3923 5.37872 7.3923C6.14824 7.3923 6.76941 8.02347 6.76941 8.7846C6.76941 9.54572 6.13897 10.1769 5.37872 10.1769C5.04032 10.1769 4.75755 9.8938 4.75755 9.555C4.75755 9.21621 5.04032 8.93311 5.37872 8.93311C5.41581 8.93311 5.43899 8.93311 5.47144 8.94703C5.65687 8.99344 5.85619 8.87742 5.89328 8.67786C5.93963 8.49221 5.82375 8.29265 5.62442 8.25552C5.54098 8.23232 5.46217 8.23232 5.36946 8.23232C4.63239 8.23232 4.03903 8.83101 4.03903 9.56429C4.03903 10.3022 4.63703 10.8963 5.36946 10.8963C6.02308 10.8963 6.60717 10.5899 6.99193 10.1258L9.4349 7.61042H12.3924L8.42897 11.7177Z" fill="#333333"/>
</svg>
